<?xml version="1.0" standalone="no"?>
<!DOCTYPE svg PUBLIC "-//W3C//DTD SVG 1.1//EN" "http://www.w3.org/Graphics/SVG/1.1/DTD/svg11.dtd" >
<svg>
<metadata>
Created by FontForge 20120731 at Mon Sep 11 15:55:50 2017
 By www
2009 published by FontShop International GmbH
</metadata>
<defs>
<font id="DuperWebW03-Italic" horiz-adv-x="328" >
  <font-face 
    font-family="DuperWebW03-Italic"
    font-weight="400"
    font-style="italic"
    font-stretch="normal"
    units-per-em="1000"
    panose-1="3 1 5 0 2 1 1 1 1 1"
    ascent="800"
    descent="-200"
    x-height="472"
    cap-height="604"
    bbox="-145 -307 1071 818"
    underline-thickness="50"
    underline-position="-75"
    slope="-7"
    unicode-range="U+0020-FEFF"
  />
<missing-glyph horiz-adv-x="471" 
d="M44 602h383v-602h-383v602zM352 75v452h-233v-452h233z" />
    <glyph glyph-name="f_b.liga" unicode="fb" horiz-adv-x="697" 
d="M114 372l2 12q0 6 -2.5 9t-14.5 8l-47 4q-23 5 -24 30l11 30q4 8 18 8l17 -1l16 3l18 4l7 5q9 11 13 52l3 17q15 36 31 63q6 11 30.5 29t31 19t32 10.5t46.5 9.5l21 -2q14 -2 21.5 -7.5t21.5 -5.5q10 0 28 11q10 8 34 8l13 -2q16 -7 16 -28q0 -17 -8 -38l-14 -52l-5 -69
l-3 -32q0 -10 3 -16q1 -3 4 -3l5 1l5 3l51 21l42 11q18 6 37 6q37 0 56 -21q37 -47 41 -84l8 -53l1 -26q0 -70 -37 -146q-29 -54 -44 -72q-21 -23 -64 -48l-79 -31l-31 -6q-35 -7 -79 -7l-15 2q-29 5 -29 42l1 30l9 78v41l8 52l7 43l7 77l5 29q4 18 7 102l10 76l2 18
q0 9 -7 15l-5 3l-21 4q-14 5 -33 5q-20 0 -36 -10l-18 -12q-10 -6 -15 -17l-23 -62l-2 -18l1 -7q3 -5 12 -5t14 -2l34 -11q11 -3 11 -22q0 -37 -34 -46l-5 -1l-23 3q-11 0 -16 -8l-3 -6l-10 -53l-13 -97l-7 -50l-12 -73l-17 -87q-6 -26 -23 -33q-6 -3 -12 -3
q-14 0 -25.5 10.5t-11.5 24.5q1 19 18 105l5 32l22 127l6 45zM502 411q-32 -9 -55 -24l-16 -9q-19 -8 -19 -33l-2 -17l-25 -184l-10 -59q0 -9 4 -13q4 -5 16 -5l17 2q20 0 56 16t61 41q22 20 38 45q31 50 35 122v12q0 52 -19 91q-12 24 -48 24z" />
    <glyph glyph-name="f_f.liga" unicode="ff" horiz-adv-x="508" 
d="M507 688l9 1l52 -7l10 -5q17 -10 17 -32q0 -16 -12 -25q-10 -7 -20 -7q-11 0 -22 4.5t-22 4.5l-7 -1q-35 -6 -43 -21l-20 -25q-15 -19 -15 -81l1 -19q3 -12 17 -12l13 1l45 4q25 0 40 -10q7 -6 7 -16q0 -12 -6 -24q-10 -19 -23 -19l-10 1l-26 -3l-10 -1l-22 2l-11 -1
l-13 -2q-20 -4 -21 -45.5t-7 -81.5l-15 -65l-5 -43l-10 -69l-4 -20l-3 -24q-7 -49 -41 -49t-34 45q0 13 21 118l5 27l21 180l2 13q0 9 -6 11q-4 2 -33 2l-38 6l-40 2l-14 1q-21 0 -29 -12q-5 -5 -5 -13l-1 -12l-7 -53l-30 -245q-3 -41 -7 -49q-4 -11 -20 -19.5t-30 -8.5
l-7 1q-20 8 -20 38l3 27l9 81l9 46q2 8 2 46l9 39l11 94l3 30q0 4 -2 6q-5 9 -14 10l-28 2l-14 1q-9 1 -9 20q0 6 3 11q6 11 23 19t29 9q18 0 26 9q9 9 14 57l3 14q41 127 141 127q34 0 52 -9q10 -4 19 -15t9 -22q0 -9 -5 -14q-8 -10 -21 -10l-31 3q-47 -3 -64 -19
t-22 -37.5t-9 -41.5l-3 -24q0 -23 20 -23l59 2l12 -1l29 -4l16 2q11 3 18 22l9 57l4 13l8 22q8 29 41.5 65t89.5 44z" />
    <glyph glyph-name="f_f_b.liga" unicode="ffb" horiz-adv-x="926" 
d="M498 684q6 2 58 2q23 0 45 -5l53 -7l9 -3q23 -12 23 -43q0 -11 -7 -19.5t-10 -19.5q-10 -31 -13 -95l-1 -20q0 -24 10 -24l15 6q13 6 17.5 11t18.5 7q48 12 59 12l49 -7q12 -3 45 -30q30 -27 34 -52l7 -22q8 -40 8 -74q0 -36 -11 -71l-12 -44q-10 -29 -53.5 -77.5
t-73.5 -58.5q-62 -24 -103 -33l-53 -15l-21 -3l-33 -3l-7 1q-25 9 -25 44l6 47q14 95 15 145l2 19l9 41l5 56l8 59l14 130l5 33l1 18q0 16 -15 19l-46 5q-56 0 -75 -32q-11 -17 -19 -47l-9 -44l-2 -10l1 -4q3 -5 10 -5.5t12 -1.5l26 -2q45 -3 45 -25q0 -15 -14.5 -29
t-36.5 -14l-26 2q-24 0 -29 -18l-4 -17l-22 -224l-10 -95q0 -22 -14 -42t-38 -20q-29 2 -29 41l2 27l37 323l1 12q0 7 -4 10l-18 3l-19 2l-61 -1l-23 1l-15 2l-7 -2q-5 -4 -6 -10.5t-3 -11.5l-11 -156l-20 -194l-4 -20l-3 -6q-12 -26 -40 -26l-8 1q-24 7 -24 31l9 69l10 86
l7 49l2 40l8 45l4 69l2 15q0 5 -3 10q-6 8 -18 8l-22 -1q-17 2 -24 21q-2 3 -2 13q2 17 9 23t28 6l8 -1l14 -1q10 0 14 5l4 8l2 24q3 37 10 61q17 46 26 59q14 20 45.5 37.5t51.5 20.5l19 3q55 0 55 -31q0 -19 -16 -29q-10 -5 -28.5 -5t-23.5 -2q-30 -10 -45.5 -39
t-15.5 -60l-2 -22q0 -9 2 -12q4 -10 31 -10h15h22l51 1l12 -1q5 0 10 3q7 6 10 24q6 41 14 64q11 38 29 62q24 28 69 49q10 7 35 12zM642 361q-10 -21 -11 -65l-18 -168q0 -20 3.5 -27t13.5 -7l34 5l70 25q29 9 49 33q15 15 24 34l20 37q13 30 13 69q0 22 -5.5 52t-13.5 39
q-24 26 -74 26l-7 -1q-39 -7 -59 -20q-35 -21 -39 -32z" />
    <glyph glyph-name="f_f_h.liga" unicode="ffh" horiz-adv-x="938" 
d="M539 688l10 1q22 0 52 -14l14 -4h4l39 6q12 0 17 -9q2 -3 2 -10l-7 -36l-5 -31l-1 -43l-11 -78l-2 -15q0 -10 5 -12l5 -2l14 5l16 9q39 25 72 28l28 1q46 0 70 -21l25 -30l4 -8q8 -19 8 -49l-15 -188l-18 -93l-5 -30q-11 -64 -47 -66h-3q-12 0 -23.5 8t-11.5 23l6 24
l8 39q23 98 26 151l5 79l1 19q0 52 -28 64q-20 8 -41 8q-28 0 -70 -21q-26 -14 -39 -36l-5 -14l-4 -44l-23 -184l-3 -16l-2 -47q-3 -55 -49 -55q-13 0 -20 7q-10 9 -10 26l1 14l8 86l30 223l13 112l8 62l2 55q0 13 -4 18q-6 9 -30 15l-27 3q-32 0 -49.5 -15.5t-35.5 -42.5
q-11 -14 -17 -48l-1 -9q0 -7 3 -11q5 -6 14 -6l15 -1l25 2q12 0 24 -4q24 -10 24 -30l-1 -7q-7 -27 -43 -27q-71 -1 -78.5 -4t-9.5 -29l-3 -77l-28 -267q-1 -23 -14 -37q-13 -13 -28 -13q-31 5 -31 43l5 48l7 115l18 100l2 30l-1 16l4 56q0 12 -7 17q-9 5 -22 5l-26 -2
l-19 1l-50 -4q-11 -1 -18 -8q-5 -4 -5 -9.5t-1 -10.5l-6 -46l-5 -61l-10 -104l-12 -77l-5 -50l-3 -32l-5 -13q-5 -8 -18.5 -15t-25.5 -7l-9 1q-14 5 -17.5 16t-3.5 34l1 11l11 59l23 175l7 80l3 31l-2 13q-3 9 -25 9l-24 3q-9 2 -12 22l-1 7l2 9q8 22 50 22q21 0 29 13l4 26
l7 38l7 25q18 67 55 84q44 21 76 24l46 -7q8 -1 26 -16q10 -6 10 -19q0 -12 -8 -20t-19 -8l-34 3q-49 0 -68 -23q-17 -19 -33 -81l-3 -17q0 -10 8 -11h7l108 5l25 4l6 4q9 8 10 19.5t5 21.5l17 46l15 25q15 27 33.5 37.5t32 21t39.5 13.5z" />
    <glyph glyph-name="f_f_i.liga" unicode="ffi" horiz-adv-x="676" 
d="M538 686l25 -2q51 -8 67 -30q10 -17 10 -22l-2 -7q-2 -7 -9 -13q-13 -14 -26 -14q-15 0 -29 10.5t-31 10.5q-37 -2 -62 -22q-44 -41 -52 -78q-4 -10 -4 -32q0 -7 8 -9l52 -8l42 2l46 -2l20 1q24 0 41 -10q12 -9 12 -25l-4 -30l-9 -116l-5 -46l-11 -106l-4 -70
q-4 -47 -34 -63l-12 -2q-12 0 -22.5 7t-12.5 17l-1 14l8 89q15 109 20 196l1 39l2 22l-1 6q-5 7 -13.5 6t-18.5 1.5t-19 2.5l-36 -2l-35 -1l-13 2l-8 -2q-7 -5 -10 -20l-10 -79l-13 -96l-3 -33l-6 -33q-5 -20 -5 -49q-3 -54 -11 -71q-12 -23 -37 -23q-31 0 -31 45l2 48
l14 106q14 97 16 128l4 46q0 27 -10 31l-7 2l-15 -1l-39 4l-5 -1l-14 -1l-15 1l-7 -1q-19 0 -24 -5q-5 -4 -8 -21l-6 -46l-12 -66l-6 -26l-17 -151l-4 -28q0 -17 -13 -37.5t-24 -26.5l-14 -3l-8 1q-23 8 -23 51l28 200l15 82l6 42l-1 11q0 10 -17 14l-33 6q-15 7 -15 26
l3 18q6 16 35 21t36 18q5 12 11 53q21 95 77 122q29 16 52 20l37 4l32 -6q14 -4 14 -20q0 -20 -13 -33q-12 -14 -35 -14l-21 1q-22 0 -34 -12q-29 -27 -35 -59l-4 -29l-3 -19q0 -9 6 -13q9 -5 20 -5.5t71 -0.5q35 0 47.5 7.5t15.5 32.5l4 17l13 46q42 77 120 106q11 5 49 5z
" />
    <glyph glyph-name="f_f_j.liga" unicode="ffj" horiz-adv-x="675" 
d="M72 92l6 52l2 31l16 76l10 96l4 33q0 18 -16 18l-16 -1q-32 0 -32 35q2 40 45 40l11 -1q10 0 15 6q5 5 5.5 12t2.5 13l6 29q24 145 121 149l55 2q34 0 34 -34q0 -19 -13 -28q-7 -4 -17 -4l-31 3q-22 -2 -44 -15t-33 -63l-8 -33l-2 -21q0 -8 5 -11q5 -4 38 -4l73 2l25 -2
q11 0 16 5q7 6 9 15l4 17l8 34q10 53 63.5 92.5t117.5 39.5q35 0 61 -11t33 -23q3 -6 3 -13q0 -29 -21 -33l-8 -1q-11 0 -22 5.5t-22 6.5l-15 1q-76 0 -112 -53l-6 -11l-20 -68q0 -9 7.5 -9t10.5 -1h14l15 1l31 1l49 -4h26l42 -2l8 -4q16 -10 16 -35l-1 -18l-9 -75l-7 -55
l-6 -42l-3 -56l-6 -43l-7 -66q-12 -134 -54 -184q-29 -36 -96 -71l-45 -18q-13 -8 -40 -8l-10 1q-21 8 -21 31q0 21 18 31q13 8 40.5 14t52.5 23.5t43 37.5q20 25 30 85l7 38l12 108l16 174q7 21 7 45q0 18 -8 23l-15 3l-33 -3l-9 1l-21 2l-26 -3q-26 0 -31 -5
q-12 -13 -15 -34l-5 -37l-6 -43l-16 -221q-2 -21 -14 -42q-12 -19 -33 -23l-14 2q-21 9 -21 32l5 40l12 99l2 29v46l12 78l5 57l2 13q0 14 -25 14l-8 2l-3 1q-1 1 -20 1l-10 -1l-56 -1q-12 0 -18 -5q-8 -5 -9 -14l-6 -40l-5 -28l-11 -81q-10 -58 -12 -148l-5 -53
q-2 -11 -15 -27q-5 -8 -12 -12l-13 -6l-9 -1q-29 0 -29 48v12z" />
    <glyph glyph-name="f_f_k.liga" unicode="ffk" horiz-adv-x="894" 
d="M650 295q3 0 7 5l37 45l64 60l52 54q9 7 25 7q36 0 36 -26l-1 -8q-5 -18 -21 -31l-27 -22l-25 -28l-36 -33l-29 -32l-7 -10l-1 -7q0 -9 7 -16l32 -47q27 -43 77 -149q7 -15 7 -32q0 -30 -25 -35l-11 -1q-19 0 -27.5 15t-14.5 31q-19 45 -70 128l-48 71l-5 7q-2 4 -7 4
q-4 -1 -4 -26.5t-5 -53.5l-7 -59l-16 -89q-4 -31 -37 -31q-17 0 -27.5 12t-10.5 24l20 139l3 71l14 71l1 39l12 79l2 39q10 61 11 91l1 18l-3 17q-8 18 -36 23l-27 2q-25 0 -50 -20q-48 -41 -55 -101l-1 -11q0 -5 2 -7q4 -5 11.5 -4.5t12.5 -0.5q64 0 66 -26v-6
q0 -5 -2.5 -7t-4.5 -7q-13 -24 -26 -25h-5l-23 3l-19 3q-18 0 -23 -12l-7 -30l-7 -61q-23 -167 -30 -203l-4 -24q-10 -65 -44 -79l-11 -2q-13 0 -21.5 11t-9.5 25q2 17 13 39l13 69l16 93l6 52l1 39l10 68l-2 8q-4 7 -20 7l-99 -3l-17 -1q-20 0 -21 -19.5t-2 -21.5l-7 -75
l-6 -23q-15 -129 -23 -164l-9 -46l-4 -27q-8 -31 -42 -31q-22 0 -29 18q-3 6 -3 12l5 26l13 71l20 114v23l8 40l4 52l4 42q0 13 -29 13l-27 -3q-34 6 -34 34q2 32 53 32l19 1q21 3 25 8l4 6l7 22l13 68q24 58 61.5 89.5t78.5 31.5l25 -3l23 -5q18 -8 18 -30q0 -19 -16 -29
q-7 -4 -16 -4l-30 3l-7 -1q-27 -4 -42 -26t-25 -45q-15 -29 -19 -59l-1 -8q0 -16 24 -16l89 2l26 -1q11 0 19 3q7 3 10 15l5 19l6 30q12 43 23 58q17 26 52.5 54t58.5 31l30 2l23 2q14 -1 23 -6.5t23 -7.5h3q10 0 18 5.5t19 5.5q21 0 24 -14l6 -28l5 -27l-6 -32l-10 -129
l-16 -142q0 -13 6 -13z" />
    <glyph glyph-name="f_f_l.liga" unicode="ffl" horiz-adv-x="678" 
d="M493 692l18 2l18 -1q43 -3 56 -8q11 -3 15 -8t15 -7l8 -1l24 2q17 0 25 -15q5 -8 5 -15l-6 -23l-10 -79l-9 -87l-9 -46l-24 -187l-8 -75q-7 -83 -24 -121q-7 -15 -29 -15q-28 2 -33 33v3l6 33l12 103l22 146l10 90l14 84l4 51l2 28q0 4 -2 7q-13 25 -40 27l-33 6l-10 1
q-41 0 -68 -45l-18 -36q-10 -23 -10 -44l1 -13q1 -10 14 -10l40 2q28 0 30 -23v-3q0 -7 -5 -14q-14 -22 -30 -25h-4l-27 2q-18 0 -24 -12q-4 -8 -7 -46l-6 -43l-2 -36l-8 -46l-7 -49l-6 -79l-9 -59q-1 -62 -34 -62l-13 4l-22 10l-5 5q-4 7 -4 17l7 46l18 157l14 102l6 64
q0 15 -2.5 18.5t-7.5 5.5q-8 3 -21 3l-28 -1l-26 2l-26 -1l-18 1q-13 0 -21 -6q-12 -9 -12 -24t-4 -27l-5 -21l-27 -240l-2 -36l-4 -13q-10 -31 -36 -31l-10 2q-22 8 -22 30l4 35l6 67l30 222l6 29l-2 7q-2 6 -12 6l-17 -2q-22 0 -24 28v7q0 21 21 25l16 1q11 0 18 7
q7 8 11 38.5t22.5 74t47.5 61.5l27 16q25 13 64 18l28 1q12 -2 21 -11.5t9 -21.5q0 -23 -27 -31l-18 -5l-33 -5q-19 -3 -33 -17q-17 -19 -33 -72l-1 -15q0 -20 6 -24q8 -8 25 -8l19 1l82 -5l9 1q7 1 11 17l5 26l23 79q28 81 123 96z" />
    <glyph glyph-name="f_h.liga" unicode="fh" horiz-adv-x="708" 
d="M274 428q-4 -35 -56 -35q-24 0 -30 -7.5t-10 -28.5l-23 -192l-9 -59l-2 -65q-2 -16 -12.5 -28t-24.5 -12q-10 0 -20 7q-12 7 -12 33q0 23 4 39l30 258l7 39q0 5 -3 10q-5 6 -14 6l-22 -3q-20 0 -30 18q-3 7 -3 17q2 41 47 41l18 -2q8 0 13 5q9 7 14 36t6 30l9 34l17 36
q3 5 20 22q41 39 81 43l47 1l14 -1q8 -2 14 -6.5t14 -4.5q14 2 24 11t27 9q25 0 30 -23l1 -7l-3 -46q-2 -27 -8 -42l-10 -76l-4 -30q0 -9 4 -12l5 -1q10 0 17 5l22 10q32 17 74 21l30 1q47 -2 72.5 -30t25.5 -76l-1 -21l-34 -277q-4 -63 -34 -74l-16 -1q-35 3 -35 45l14 98
l8 53l15 128l2 28q0 41 -29 49l-18 3l-14 2q-14 0 -51 -13t-45 -26q-15 -20 -22 -71l-22 -183v-43q-1 -34 -15.5 -50.5t-32.5 -16.5q-11 0 -21.5 6t-12.5 16l-1 6l5 27l8 79l30 256l3 56l14 95l4 28l-1 8q-4 13 -22 16l-25 3l-16 1l-29 -3q-13 -2 -28 -17l-14 -17
q-30 -46 -30 -84q0 -8 3 -11t19 -5q52 -7 53 -30v-5z" />
    <glyph glyph-name="f_i.liga" unicode="fi" horiz-adv-x="446" 
d="M270 678l52 4q25 0 37 -3.5t22.5 -3.5t19 -9t8.5 -26t-10 -25q-14 -9 -34 -9q-15 0 -53 7l-13 1q-31 0 -54 -20q-32 -30 -41 -74q-8 -24 -8 -30l2 -8q7 -10 36 -13l7 -1l24 -2l85 5l33 3q40 0 40 -29l-2 -19q-1 -28 -15 -89l-4 -29l-9 -33v-27l-17 -99l-8 -99
q-4 -33 -28 -35l-7 -1q-43 0 -43 63l1 7q21 151 36 233l10 60l1 10q0 10 -9 13l-11 1l-46 -4l-69 5q-9 0 -15 -7l-3 -9l-7 -50l-19 -169l-11 -88q-8 -48 -21 -61.5t-30 -13.5q-10 0 -19 8.5t-9 27.5q0 18 6 45l5 53l12 105l16 152q0 11 -13 11l-30 -2q-13 0 -22 5t-11 25v4
l2 9q9 19 33 19l22 -1q32 0 34 25q4 41 14 69q18 54 51 83q34 28 82 36z" />
    <glyph glyph-name="f_j.liga" unicode="fj" horiz-adv-x="446" 
d="M324 691q58 0 84 -15q19 -12 19 -36q0 -13 -8.5 -21.5t-19.5 -8.5l-31 7l-21 2l-22 -1q-79 -6 -106 -91l-10 -32l-1 -11q0 -8 3 -12q4 -9 22 -9l27 1l108 -3h17q24 0 28 -12q2 -4 2 -16q0 -15 -4 -29l-7 -54l-6 -47q-17 -202 -42 -301l-32 -76q-16 -33 -36 -61
q-33 -41 -55 -60q-21 -20 -46 -21h-4q-14 0 -24 9t-10 22l3 14q5 10 24 23t36 30q83 82 103 307l1 56l11 83l2 43q0 14 -5 18q-3 3 -8 3l-16 -1l-30 2l-30 3l-20 2q-16 0 -25 -8q-12 -12 -17 -66l-3 -34l-18 -134l-11 -71q-3 -51 -16 -78q-11 -18 -41 -18l-12 2
q-18 8 -18 31l6 45l15 83l9 77l22 142l2 16q0 8 -4 12q-4 5 -18 8l-21 4q-31 3 -39 23q-2 3 -2 13q3 29 56 29l10 -1l16 -2q22 0 28 38t24.5 79.5t46 65.5t46.5 28z" />
    <glyph glyph-name="f_k.liga" unicode="fk" horiz-adv-x="664" 
d="M421 700q25 -4 25 -31l1 -40l-2 -14l-5 -29l-4 -19l-4 -56l-27 -209l-3 -47l-16 -113l-5 -95l2 -22l-1 -8q-3 -10 -16.5 -18.5t-24.5 -10.5h-3q-11 0 -21.5 7.5t-13.5 17.5l-2 16l8 89l10 73l1 29l10 69l15 123l6 82l4 36l6 36l2 22q0 7 -2 10q-3 8 -19 11l-10 1l-57 -2
l-15 -5q-18 -8 -34 -25t-20 -30l-10 -38l-4 -15q0 -9 25 -9l35 -2q19 0 35 -11q5 -4 5 -22l-1 -6q-5 -29 -51 -30t-48 -3q-12 -8 -13 -51t-8 -73l-9 -62l-3 -30q-9 -45 -14 -140l-3 -16q-1 -16 -17 -30.5t-33 -14.5q-11 2 -18 10q-10 13 -10 26l9 43v19l13 94l19 132l5 52
l3 29l-1 7q-4 20 -36 20q-8 0 -14 3q-11 4 -18 18l-2 13q0 22 13 27.5t30 5.5l13 -1q10 0 14 5q9 13 19.5 45.5t19.5 45t36.5 42.5t52 39t61.5 9l54 -4l7 1q17 5 25.5 12.5t20.5 10.5zM625 477q29 0 29 -34q0 -15 -6 -25q-6 -11 -22.5 -21t-25.5 -17l-71 -75l-21 -21
q-12 -12 -14 -24v-5q0 -15 11 -30l31 -44l82 -130q11 -15 11 -40q0 -29 -22 -33l-6 -1q-14 0 -23 10l-52 65l-21 40l-37 52l-18 30q-40 48 -43 74v4q0 14 27 43l10 14q28 44 51 65l87 85q18 16 43 18z" />
    <glyph glyph-name="f_l.liga" unicode="fl" horiz-adv-x="449" 
d="M313 682l30 -3l23 -8l12 -2h3l33 5q12 0 22 -10q8 -11 8 -27l-2 -25l-17 -154l-2 -33l-11 -56l-30 -259l-3 -48q-10 -49 -53 -49q-11 1 -18.5 10.5t-8.5 20.5v5q0 16 8 53l3 57l19 134l7 70l10 55l2 43l7 39q3 18 3 63l3 19q0 6 -2 9q-5 9 -27 14q-14 5 -33 5
q-63 0 -93 -64q-11 -20 -12 -46l-1 -10l2 -7q3 -5 11.5 -6.5t13.5 -3.5l9 -1l28 2l35 -1q17 -4 17 -24q0 -29 -28 -39q-13 -5 -23 -5l-44 2q-11 0 -19 -3q-7 -3 -8 -9.5t-3 -13.5l-14 -80l-6 -83l-14 -100l-2 -35q-1 -84 -56 -84q-27 2 -27 34l4 37q5 58 15.5 115.5
t12.5 116.5q0 24 10 64q3 7 3 17l-3 15q-4 7 -12 7l-22 -3q-30 0 -30 39q2 20 33 26l39 5q15 4 18.5 43t41.5 96t98 67l30 4h10z" />
    <glyph glyph-name="f_t.liga" unicode="ft" horiz-adv-x="536" 
d="M293 404l-55 1q-33 0 -42.5 -11t-15 -45.5t-5.5 -51.5l-17 -92l-22 -147q-6 -53 -40 -67l-17 -2q-18 3 -18 26l3 32l8 79l11 69l26 164l5 34q0 13 -8 15l-37 5q-23 12 -23 35q4 23 33 28q40 0 43 8q13 26 16.5 56t16.5 58t23 38q6 7 33 25q40 28 94 28q49 0 49 -36
q0 -34 -48 -32l-28 -2q-19 -5 -32 -14l-21 -19q-17 -30 -22 -56q-7 -21 -7 -37q0 -23 26 -23l15 1l92 -2q22 0 28 8q4 4 4 21l2 33q1 14 8 23q11 17 35 17q11 0 21 -8q6 -6 6 -16l-4 -26l-3 -36q0 -7 4 -11q5 -6 14 -5.5t17 -1.5l28 -3l22 -2q40 -4 40 -39q0 -21 -28 -27
q-15 -6 -30 -6l-35 3l-25 5l-7 -2q-5 -2 -7 -9t-3 -10q-8 -25 -10 -63l-19 -129l-2 -47l2 -41q1 -18 19 -35q10 -10 27 -10l18 2l46 18l15 3q6 0 13 -5q6 -6 6 -18q0 -25 -20 -41q-6 -6 -22 -14q-42 -18 -86 -18l-15 2q-57 17 -71 77q-6 34 -6 76l5 72l4 37l9 45l9 91l-1 10
q-3 12 -44 15z" />
    <glyph glyph-name=".notdef" horiz-adv-x="471" 
d="M44 602h383v-602h-383v602zM352 75v452h-233v-452h233z" />
    <glyph glyph-name="glyph1" horiz-adv-x="0" 
 />
    <glyph glyph-name="glyph1" horiz-adv-x="0" 
 />
    <glyph glyph-name="glyph2" horiz-adv-x="180" 
 />
    <glyph glyph-name="space" unicode=" " horiz-adv-x="180" 
 />
    <glyph glyph-name="exclam" unicode="!" horiz-adv-x="209" 
d="M188 610l14 -6l5 -5q3 -6 3 -12l-2 -19l-2 -33l-4 -46l-42 -282q-3 -23 -18 -40.5t-34 -17.5q-16 0 -19 21l-1 7l6 32l1 26l8 108l22 130l2 52l3 16l7 20q7 48 37 51zM109 99q17 0 31.5 -17.5t14.5 -33.5q0 -18 -16 -36t-33 -20h-6q-10 0 -17 4q-15 6 -27 30q-4 7 -4 17
q0 20 17.5 37t36.5 19h3z" />
    <glyph glyph-name="quotedbl" unicode="&#x22;" horiz-adv-x="305" 
d="M263 607q7 3 20 3q36 0 40 -18l1 -8l-1 -11l-38 -148q-7 -26 -29 -34l-11 -2q-24 0 -24 36l4 26l16 105q5 33 9.5 40.5t12.5 10.5zM139 607q11 0 23.5 -6t16.5 -17l1 -8l-6 -39l-19 -71l-2 -12q-11 -62 -48 -65h-1q-16 0 -19.5 12.5t-4.5 26.5l7 36l15 110l3 10
q7 21 34 23z" />
    <glyph glyph-name="numbersign" unicode="#" horiz-adv-x="540" 
d="M209 127q-17 -3 -22 -17q-6 -14 -8.5 -52.5t-15.5 -59.5q-11 -16 -27 -16q-13 0 -22 13q-3 6 -3 26q0 21 9 72l5 27l-1 6q-3 4 -15 4l-23 -2l-10 -1q-39 0 -39 32l2 13q3 10 11.5 13t16.5 5l39 6q19 0 23 4q10 9 11 24t3 27l6 50l14 75l5 29l-1 6q-3 8 -16 8l-11 -1
l-28 -3q-15 0 -26 8q-14 11 -14 24q8 32 43 32l35 -1q28 0 36 13l13 43l3 18q5 51 28 61q8 5 17 5q25 0 25 -26l-9 -57l-7 -39q0 -10 13 -10l19 2l46 1l13 -2l9 -1l21 1q11 0 12 10l2 17l13 58l1 21l3 8q8 17 28 17q8 0 18 -5q13 -8 13 -24l-8 -89l2 -9q3 -8 26 -10l26 -1
q26 -2 30 -31q0 -32 -53 -32q-35 0 -44 -12q-6 -7 -6 -25l-1 -24l-13 -75q-7 -45 -7 -70q1 -16 23 -16q66 0 67 -31v-8q-3 -19 -14.5 -24t-43.5 -5t-38 -5q-8 -8 -8 -18l-1 -19l-8 -73q-2 -11 -14 -21q-9 -9 -23 -9q-27 0 -31 24l-1 11q0 12 8.5 43.5t8.5 52.5q-2 16 -31 16
l-33 -3l-8 -1q-5 0 -8.5 1.5t-32.5 1.5zM253 421q-11 -3 -16 -11.5t-7 -37t-9.5 -58.5t-9.5 -63l-5 -37q0 -10 3 -14q4 -5 14 -5l16 1l50 -1q32 0 50 5q11 2 13 11l4 17l11 79l3 26l5 46q5 13 5 30q0 14 -18 14l-14 -1l-54 3z" />
    <glyph glyph-name="dollar" unicode="$" horiz-adv-x="410" 
d="M282 705l8 1q19 0 28 -17l1 -8q0 -10 -4 -21t-4 -21q0 -8 4 -13q11 -15 29 -20l24 -10q26 -14 34 -22.5t8 -21.5l-1 -8q-1 -8 -7 -14q-12 -15 -29 -15q-14 0 -42 11.5t-62 11.5l-11 -1l-43 -10q-63 -16 -63 -97q0 -16 7 -26.5t30 -25.5q20 -14 63 -29t79 -44t49 -60
q8 -17 8 -39q0 -83 -36 -125q-22 -30 -40 -41q-40 -29 -57 -35t-20 -19l-2 -18q0 -66 -35 -69h-7q-23 0 -28 21l-2 12l6 32l1 9q0 10 -6 16q-6 4 -14 3.5t-15 1.5q-47 5 -72 20q-23 13 -23 36q1 7 8 17q14 17 35 17q16 0 32.5 -6.5t32.5 -9.5q22 -5 43 -5q39 0 60 17l11 8
l22 15q20 15 24 42l3 29q0 20 -5 30q-16 38 -107 78t-111 80q-11 20 -11 54q0 26 7 52q15 44 28 63q22 29 61 48l45 19l13 10q10 11 13.5 32.5t5.5 31.5l2 10q2 18 19 20z" />
    <glyph glyph-name="percent" unicode="%" horiz-adv-x="789" 
d="M659 303q48 -17 58 -33l14 -13q4 -5 5 -11t6 -9l6 -6l7 -18l2 -19l6 -28l-1 -7l-7 -35q-38 -132 -155 -136q-7 0 -22 5q-46 11 -58 20l-24 18l-14 17l-17 29q-6 11 -9 54v6q0 32 23 75q19 42 51 62l37 20q26 12 68 12zM254 611q84 0 116 -73q11 -18 11 -35
q0 -66 -39.5 -121t-104.5 -73l-25 -8h-4l-24 3l-30 2l-11 4q-5 2 -21 18q-41 34 -50 67l-2 20q0 65 35.5 117.5t85.5 69.5q11 5 48 8zM628 608q8 4 20 4q32 0 32 -23l-1 -8q-5 -14 -17.5 -22.5t-22.5 -16.5q-13 -9 -26 -29q-63 -98 -202 -262l-35 -38l-41 -62l-25 -33
l-50 -69l-24 -36q-10 -17 -27.5 -27t-22.5 -11h-4q-22 0 -22 26q0 11 4 19l19 32l68 93l62 88l93 109l41 55l61 73l52 73l19 20l22 25zM606 237q-69 -16 -79 -81l-1 -14q0 -47 32 -71q10 -9 42 -15h5q10 0 34 7q41 10 54 86l2 18q0 10 -4 17l-19 34q-5 5 -12 4t-9 6
q-5 12 -23 12zM239 546q-46 -3 -70 -38.5t-24 -72.5l3 -22q11 -45 67 -45q38 4 61.5 35.5t30.5 75.5l1 13q0 21 -12 38.5t-39 17.5z" />
    <glyph glyph-name="ampersand" unicode="&#x26;" horiz-adv-x="685" 
d="M309 609l37 -11q53 -33 53 -107q0 -51 -30 -91l-32 -40l-52 -46l-12 -9q-8 -5 -10 -13v-2q0 -9 8 -18l84 -87l14 -9q3 -2 7 -2q8 0 12 11l6 17q17 40 21 59l4 26q6 37 45 37l15 -1l13 -1q31 0 73 22q9 6 23 24q11 14 13 25q6 23 12 28l12 10q6 6 13 6l11 -3
q22 -11 22 -41q0 -28 -18 -47l-18 -26q-20 -21 -45 -30l-60 -20l-18 -3q-16 -1 -25 -8l-5 -6l-5 -14l-19 -43l-18 -39l-2 -14l2 -9q7 -16 39 -28l43 -19l12 -3l31 -5l7 1l44 16l16 2q13 0 22 -8q7 -7 7 -16l-2 -13q-10 -23 -48 -38q-33 -9 -53 -9l-30 2l-43 11l-11 2l-32 13
q-11 2 -23.5 12t-23.5 10q-8 -1 -23 -16q-39 -32 -47 -36q-57 -25 -116 -25l-10 1l-36 4l-25 4q-47 15 -71 59q-16 27 -16 66l3 36q7 52 51 108q13 19 30 30l18 11l4 5v2q0 6 -5 14t-6 13l-11 66l-1 24q0 74 28 118q25 35 63 52q25 15 54 15zM187 252q-11 0 -29 -18
q-28 -39 -36 -72l-1 -15q0 -40 18.5 -61t60.5 -31l32 -1q48 2 84 28l12 10q8 6 8 15q-3 11 -15 18.5t-32 23t-30 27.5l-22 25q-40 51 -50 51zM258 547q-55 -16 -55 -121l1 -24q9 -56 22 -56q17 0 59 46.5t47 86.5l1 8q0 26 -19.5 44t-42.5 18z" />
    <glyph glyph-name="quotesingle" unicode="'" horiz-adv-x="165" 
d="M120 604q8 4 21 4q34 0 38 -20l1 -12q0 -24 -19 -87l-19 -56q-10 -28 -31 -37q-6 -3 -11 -3q-17 0 -20 25v4l6 39l12 90l4 29q1 16 18 24z" />
    <glyph glyph-name="parenleft" unicode="(" horiz-adv-x="228" 
d="M278 715q23 -2 23 -25l-2 -12q-4 -11 -12.5 -18t-14.5 -17l-53 -93q-37 -68 -80 -213q-24 -80 -24 -176q0 -48 6 -91q5 -39 35 -118l16 -46l23 -36l4 -13v-8q0 -45 -30 -49h-1q-14 0 -24 13q-32 40 -46 80l-26 59l-13 52l-12 60q-5 15 -5 33l3 58l3 83q4 59 41 165
t47 129l62 118l22 31q29 34 58 34z" />
    <glyph glyph-name="parenright" unicode=")" horiz-adv-x="228" 
d="M90 725q8 4 16 4q22 0 43 -37t34 -98l23 -94q10 -48 10 -134l-4 -73q-3 -43 -18 -119l-36 -125l-19 -39q-21 -51 -40 -83l-21 -43l-62 -82q-10 -14 -28 -17h-6q-28 0 -28 28q0 13 7 23l52 70l49 93q37 73 61 175l16 102l4 49l-2 57v7l1 34l-8 56l-4 53l-14 36l-7 33
l-36 78q-3 7 -3 15q0 24 20 31z" />
    <glyph glyph-name="asterisk" unicode="*" horiz-adv-x="412" 
d="M280 605q36 0 36 -28l-14 -41l-11 -58l-6 -27q0 -7 4 -10q3 -3 8 -3l8 1l21 7q25 11 65 19q15 5 29 5q12 0 22 -8t10 -23q-3 -24 -13 -30l-8 -4l-25 -3q-78 -15 -88 -30l-1 -6q0 -10 12 -28.5t31 -56.5q16 -25 18 -37v-5q0 -12 -8 -23t-20 -14l-10 -1q-21 0 -32 19
l-22 44l-21 31l-25 44q-13 25 -23 29h-2q-8 0 -17 -15l-14 -24l-37 -46q-15 -24 -22 -31q-13 -10 -25 -10q-8 0 -15 4q-16 10 -16 27q0 31 40 71l16 16l17 20q12 14 12 24q-2 6 -14 9.5t-17 6.5l-37 16l-14 9q-17 11 -17 34q0 27 28 29h3q14 0 23 -7t25 -15l39 -16l23 -11
l8 -1q10 0 13.5 14t4.5 16l9 41q12 72 44 76h5z" />
    <glyph glyph-name="plus" unicode="+" horiz-adv-x="416" 
d="M264 491q14 0 21 -13t7 -27q0 -15 -10 -82l-2 -20q0 -10 4 -13q4 -4 10 -4t11 -2l27 -3l55 2q16 -2 29 -11.5t13 -23.5q0 -6 -5 -16l-11 -10q-21 -12 -64 -12l-38 2l-23 3q-12 0 -20 -9q-4 -6 -6 -39l-6 -26l-9 -66q-10 -36 -36 -39h-5q-26 0 -30 26v5q0 10 5 28l14 101
q0 12 -4 15q-5 3 -9 3l-25 -5l-64 -1l-28 2q-16 0 -25.5 10.5t-9.5 23.5q0 16 15 27q13 9 30 9l45 -6l12 -1l39 5l16 2q12 0 18 8q5 6 5 14.5t2 16.5l13 81q1 25 6 31q6 11 30 14h3z" />
    <glyph glyph-name="comma" unicode="," horiz-adv-x="205" 
d="M96 102q21 0 37 -19.5t16 -40.5l-1 -7q-12 -68 -67 -123q-22 -25 -48 -25q-17 1 -17 17l2 11q4 8 11.5 12.5t13.5 11.5l15 11l4 6l15 27l2 10q0 5 -3 10l-13 10q-22 13 -22 40q0 19 11 29.5t18 13.5q18 6 26 6z" />
    <glyph glyph-name="hyphen" unicode="-" horiz-adv-x="287" 
d="M166 325q35 0 70 -6l13 -1q32 0 32 -24q0 -37 -52 -37l-74 5l-71 -3q-32 0 -32 32q0 14 10 22q8 6 20 7z" />
    <glyph glyph-name="period" unicode="." horiz-adv-x="205" 
d="M97 100l16 1q28 -4 28 -43l-1 -11q-2 -19 -14.5 -35t-32.5 -18h-6q-20 0 -32.5 16t-12.5 35q0 10 5 20q16 29 50 35z" />
    <glyph glyph-name="slash" unicode="/" horiz-adv-x="338" 
d="M372 688l7 1q31 0 31 -25l-2 -11q-9 -25 -19 -40l-66 -108l-27 -53l-7 -24l-27 -55l-13 -33l-82 -152l-10 -35l-93 -184l-60 -133q-8 -16 -26 -16q-33 2 -33 35l3 15q11 35 41 92t41 89t32 69t28 53l16 42l68 126l64 147l24 37l56 113q23 46 54 50z" />
    <glyph glyph-name="zero" unicode="0" horiz-adv-x="473" 
d="M267 522q20 0 36 -4l46 -8l20 -9l13 -9l20 -24l22 -28q7 -11 16 -52l12 -41l1 -23q0 -38 -12 -94t-21 -82q-31 -74 -86.5 -118t-109.5 -44q-43 0 -95 29l-13 8q-40 33 -57 111l-4 44q0 27 7 67l1 30q3 29 24.5 82.5t30.5 68.5l48 52q36 36 82 43zM263 454q-31 -3 -68 -42
l-21 -24q-2 -2 -12 -30q-22 -50 -27 -83l-2 -37l-5 -54q0 -45 27.5 -86t71.5 -41q32 2 52.5 18t40.5 39q29 32 38.5 68t15.5 78l6 28l1 18q0 28 -12 66l-18 44q-3 7 -12.5 16.5t-19.5 12.5l-33 8z" />
    <glyph glyph-name="one" unicode="1" horiz-adv-x="258" 
d="M212 525q27 0 31 -24v-3q0 -8 -5 -23l-6 -39l-6 -50l-6 -33l-3 -42l-17 -125l-9 -43l-4 -46q-6 -63 -17.5 -89t-36.5 -30h-2q-12 0 -22 15q-6 10 -6 24l3 35l8 59l28 190l2 13l-1 6l-1 3l2 6v15l4 14l1 22l8 40q0 8 -5 16q-2 2 -6 2l-36 -10q-9 0 -15.5 -3t-19.5 -3
q-12 0 -16 10l-3 7l-1 8q0 28 49 50l34 10l69 18h5z" />
    <glyph glyph-name="two" unicode="2" horiz-adv-x="400" 
d="M203 529l24 1q74 0 111 -35q21 -21 28 -55q7 -28 7 -59q0 -82 -52 -138l-84 -78q-18 -19 -40 -33t-40 -34l-9 -8q-14 -10 -14 -15q0 -3 11 -3l32 -4l8 1l38 2l93 -7l31 -2q36 -6 36 -37q0 -27 -28 -35l-15 -2l-31 3l-78 4l-139 7l-20 3q-25 3 -32 8l-9 8q-8 8 -8 28
q0 10 5 18q21 29 70 64l78 61l42 43q76 67 78 137v14q0 34 -15 49q-20 22 -71 22q-35 0 -56 -9l-21 -13q-13 -10 -24 -10q-8 0 -16 7q-5 5 -6 10l-2 10q0 23 29 46q31 26 89 31z" />
    <glyph glyph-name="three" unicode="3" horiz-adv-x="374" 
d="M209 523l14 1q32 0 62.5 -18.5t47.5 -44.5q15 -30 15 -63q0 -79 -77 -162q-3 -5 -11.5 -11t-8.5 -12q0 -4 2 -7l5 -4l28 -23q37 -30 45 -68q5 -30 5 -58l-1 -12l-11 -47l-14 -32q-31 -54 -65 -78l-48 -25l-32 -6q-45 -9 -80 -9q-46 0 -61 10q-17 11 -17 36q0 32 33 32
l33 -5q15 -3 51 -3q31 3 51 10q58 25 83 104q4 10 4 26q0 29 -12 47q-21 39 -75 53q-27 5 -84 5l-18 2q-13 2 -13 29q0 33 48 33q51 6 85 32l22 12l30 37q8 10 17.5 35t9.5 47l-3 22q-5 13 -19.5 26t-28.5 15l-23 3l-13 -1l-22 -2q-23 -4 -38 -19l-14 -14q-8 -9 -19 -9l-8 2
q-7 3 -12 12q-7 10 -7 20q0 13 22 43q9 10 34 20l29 10z" />
    <glyph glyph-name="four" unicode="4" horiz-adv-x="470" 
d="M88 233l45 50l20 20l17 25l141 156q21 23 30 28.5t23 5.5q14 -2 24 -14q13 -13 13 -33l-5 -43q-1 -14 -13 -69l-18 -101l-7 -41l-4 -57q0 -15 19 -15l14 1l33 -2q54 -5 54 -45q0 -35 -24 -40h-5l-57 6l-10 1q-17 0 -23 -6q-10 -8 -11 -19.5t-3 -22.5l-4 -28l-23 -91
q-3 -13 -14.5 -27.5t-26.5 -14.5q-25 0 -33 34v2l7 36l24 111l1 11q0 10 -6 16q-5 3 -9 3l-7 -1q-44 -4 -99 -4l-63 -3l-13 1l-32 2l-9 4q-20 14 -20 47l1 11q1 5 6 10t5 9t5 9q20 23 19 24zM307 384q-5 0 -14.5 -12t-20.5 -23q-58 -66 -113 -146l-34 -47l-5 -6q-5 -4 -5 -9
l1 -3q1 -2 4 -2t5 -1l10 -1l47 3l57 1l10 2q27 0 33 7l3 5l3 20l5 58q4 54 14 105l6 37q0 11 -5 12h-1z" />
    <glyph glyph-name="five" unicode="5" horiz-adv-x="384" 
d="M136 514l12 2l46 -8h9l52 2l32 -1l11 1l46 3q18 0 31 -5q16 -7 16 -23t-16 -32q-15 -18 -54 -18l-62 2l-40 -2l-34 -2q-10 -4 -13 -15l-4 -17q-4 -10 -18 -81l-8 -20l-1 -8q0 -8 12.5 -10.5t43.5 -2.5q62 -3 95 -25l29 -21l10 -16q22 -31 22 -79l-5 -49q-10 -68 -31 -98
l-27 -28q-28 -29 -67 -60l-40 -18l-36 -18q-49 -23 -101 -29h-2q-16 0 -24.5 12t-8.5 26q0 19 14 27l8 4l24 5l61 20l55 25l20 15q77 69 80 131v19q-6 59 -44 76l-24 5q-37 7 -86 7l-24 -2q-18 0 -34 14q-9 10 -9 24q0 10 11 43l31 115l7 53q3 23 9.5 37.5t25.5 19.5z" />
    <glyph glyph-name="six" unicode="6" horiz-adv-x="423" 
d="M417 619l19 -2l7 -3q13 -13 13 -28q0 -11 -7 -18q-14 -16 -39.5 -16t-37 -6t-25.5 -9l-47 -15q-17 -8 -54 -41.5t-78 -108.5q-5 -9 -5 -19q0 -5 16 -5l19 1l55 -3q27 -2 53 -14l52 -30l5 -5l12 -19q22 -30 26 -60l1 -15q0 -58 -4 -70q-6 -25 -38 -71q-30 -40 -57 -54.5
t-71 -14.5q-102 0 -142 73l-10 18q-25 42 -25 112q0 65 7 102.5t26 75.5l23 49q26 65 103.5 126t162.5 66zM140 267q-6 -7 -6 -41l1 -50q2 -39 24 -74.5t65 -35.5l24 2q33 6 56.5 41t23.5 76q0 27 -13 46l-9 13q-24 36 -113 36l-39 -6q-9 -2 -14 -7z" />
    <glyph glyph-name="seven" unicode="7" horiz-adv-x="379" 
d="M219 518l54 -4l69 2l15 -2q41 -6 48 -25q4 -8 4 -19q0 -10 -5 -20l-38 -76l-36 -62l-18 -22l-43 -70l-102 -178l-51 -104q-15 -24 -32.5 -64.5t-47.5 -40.5q-12 1 -22.5 10t-10.5 22l1 6q13 43 53 112l64 119l22 46l85 135l25 44l19 26l31 53l10 13q4 5 4 12q-1 6 -12 6
l-188 1l-30 -1q-47 0 -47 41q0 37 49 37h97z" />
    <glyph glyph-name="eight" unicode="8" horiz-adv-x="413" 
d="M262 611l12 1q15 0 33 -5l24 -7q13 -2 21.5 -11t19.5 -17q13 -8 24 -30.5t11 -47.5q0 -33 -19 -76l-13 -22q-19 -33 -68 -71q-9 -7 -11 -17v-2q0 -15 22 -46l7 -10l10 -29q17 -38 17 -75l-3 -28q-28 -95 -122 -122l-50 -7h-4q-36 0 -58 16q-38 24 -47 48l-8 25
q-8 26 -8 48q0 47 27.5 89.5t61.5 63.5l19 12q14 8 14 15q0 10 -23 33q-20 14 -26 24l-17 26l-11 29q-5 11 -5 30l2 26q6 47 45 85.5t84 48.5zM220 262q-17 -4 -52 -35.5t-46 -94.5l-1 -7q0 -24 19 -47t51 -23l29 4q55 15 66 90l1 9q0 30 -23 67t-44 37zM252 549
q-34 -3 -60 -32t-27 -54v-7q0 -32 20 -56q32 -48 57 -48q9 1 19 11.5t30 28t28 27.5q13 20 22 50l1 7q0 13 -8 32q-22 41 -82 41z" />
    <glyph glyph-name="nine" unicode="9" horiz-adv-x="428" 
d="M291 154q-1 1 -6 1l-70 -12l-24 -1q-77 0 -109 67q-24 45 -24 130q0 59 26 99q32 58 113 76q25 9 53 9l14 -1q67 -11 103 -63l23 -45q19 -41 19 -88v-43l-2 -17q-9 -51 -22 -94l-12 -42l-20 -49q-55 -104 -118 -156q-31 -27 -62 -46q-39 -22 -91 -34q-15 -5 -26 -5l-5 1
q-27 4 -27 38l1 10q5 18 33 24q65 21 84 32q62 35 108 104t46 95q0 7 -5 10zM237 448q-58 -9 -77 -30q-28 -30 -30 -73l-1 -8l-1 -16q0 -27 8 -54q8 -31 32 -49q13 -11 40 -11q38 0 67 17t40 30t17 44v17l-1 11q0 50 -23 86.5t-60 36.5z" />
    <glyph glyph-name="colon" unicode=":" horiz-adv-x="205" 
d="M141 475q36 0 48 -20q7 -10 7 -24q0 -17 -10.5 -33.5t-26.5 -21.5l-16 -3q-21 0 -38 15.5t-17 43.5q1 13 14 25t24 16zM106 100q20 0 30.5 -17.5t10.5 -36.5l-1 -9q-4 -18 -19.5 -29.5t-33.5 -13.5h-6q-33 0 -45 41l-2 9q0 16 10 31q8 16 21.5 19t28.5 5z" />
    <glyph glyph-name="semicolon" unicode=";" horiz-adv-x="205" 
d="M125 473q7 3 14 3q18 0 34.5 -13t18.5 -30v-1q0 -15 -12 -32.5t-26 -22.5q-12 -4 -23 -4q-28 0 -37 38l-4 28l1 8q5 15 34 26zM93 101q46 0 59 -77v-5q0 -10 -5 -28q-8 -31 -32.5 -57.5t-55.5 -37.5q-15 -6 -24 -6q-8 0 -15 4q-11 4 -11 18q0 10 7 19q6 6 21 9
q31 10 38 48l1 6q0 11 -12 20.5t-17.5 20t-5.5 19.5q0 19 16 33t36 14z" />
    <glyph glyph-name="less" unicode="&#x3c;" horiz-adv-x="416" 
d="M351 472q10 4 22 4q37 0 37 -25l-1 -6q-3 -11 -29 -30l-21 -15l-57 -26l-77 -44l-46 -23q-14 -7 -14 -16q0 -5 11 -12l38 -23l94 -71l25 -15q20 -10 28 -22q3 -5 3 -11q0 -15 -12 -28.5t-29 -13.5q-15 0 -28 10t-27 18l-18 12l-52 44l-128 79q-22 16 -22 35q0 17 31 31
l18 8l38 24l61 28l49 32l83 41z" />
    <glyph glyph-name="equal" unicode="=" horiz-adv-x="416" 
d="M179 266l79 -4l37 3l92 -10q30 -4 30 -24q0 -12 -11 -24.5t-26 -14.5l-18 -2l-21 2l-63 5h-15l-61 -1l-29 3l-40 -4l-28 1l-18 -1l-25 -3q-10 0 -17 4q-14 9 -14 27q0 22 17 30q22 11 50 10l45 1zM133 388l20 1q60 6 89 6l50 -6h115q23 -6 23 -26q0 -25 -26 -36
q-12 -4 -28 -4l-54 5h-13l-76 -2l-44 2l-92 -9l-24 -4q-8 0 -11 2q-16 6 -16 30q0 13 8 21q13 10 27 13l34 6z" />
    <glyph glyph-name="greater" unicode="&#x3e;" horiz-adv-x="416" 
d="M123 492q15 0 27 -8l87 -56l36 -28l78 -48l36 -26q27 -20 27 -38q0 -27 -43 -48l-27 -13l-161 -91l-67 -34q-16 -8 -39 -8q-25 2 -25 23q0 23 30 38l35 16l155 90l27 18q5 3 5 8l-1 4l-8 10l-43 38l-86 53l-66 39q-15 12 -15 29q0 32 38 32z" />
    <glyph glyph-name="question" unicode="?" horiz-adv-x="319" 
d="M186 615l17 1q60 0 101 -26.5t45 -56.5l2 -19l2 -25q0 -36 -19 -70q-23 -38 -66 -70l-78 -53l-18 -17q-15 -15 -19 -33v-3q0 -9 12 -33l9 -16l7 -17v-2q0 -9 -14.5 -21.5t-29.5 -12.5q-40 8 -52 60l-3 33q0 27 9 49q14 38 70 76l36 24l40 26q42 28 42 66t-25.5 53.5
t-79.5 15.5q-11 0 -33 -11q-13 -7 -21.5 -18.5t-21.5 -11.5l-10 2q-18 7 -18 29q0 5 6 17t9 15q37 40 75 45zM127 90q22 0 33 -11l11 -16q4 -8 4 -22q0 -12 -4 -21q-8 -20 -44 -26l-6 -1q-19 0 -34.5 17t-15.5 36l1 8q7 26 45 35z" />
    <glyph glyph-name="at" unicode="@" horiz-adv-x="870" 
d="M512 82q0 1 -2 1q-5 0 -17 -11q-65 -59 -91 -68q-24 -10 -50 -10q-16 0 -28 4q-23 9 -40 29q-16 13 -28 44q-13 45 -14 62l-1 17q0 39 12 87q34 118 85.5 165t76.5 56t57 15l37 6l9 -1l73 -6q29 -4 36 -15q4 -5 4 -14l-6 -34q-5 -67 -19 -158l-10 -109l-4 -33l-1 -16
q0 -29 6 -30h3q9 0 27 9q35 21 88 83q33 41 52 100.5t19 120.5q0 73 -27 123q-27 46 -50 62q-76 49 -162 58l-30 1l-44 1l-52 -1l-20 -4q-35 -9 -74 -26l-49 -20l-25 -15q-53 -32 -78 -91l-25 -59q-22 -84 -22 -154l2 -42l10 -87l12 -63l12 -29v-3q0 -14 -12 -23t-25 -9
q-28 0 -36 46l-5 27q-17 77 -21 155l-1 33q0 59 14 123t37 112t74 92l22 20l43 27l28 13q60 28 105 36l30 6q39 6 91 6q64 0 159 -26q17 -6 58 -29q48 -30 87 -85l20 -41l14 -35l6 -22l4 -33l1 -42l-8 -48l-12 -67l-11 -29q-38 -101 -70 -136l-37 -32q-55 -44 -83 -61
l-47 -17q-18 -9 -32 -9q-31 0 -39 49l-2 27q1 20 -4 27zM479 406q-47 -8 -76 -36t-59 -98q-19 -39 -22 -69l-2 -27q0 -96 62 -96q22 3 47 20q42 32 64 59l16 18q11 13 17 51q8 30 10 63l7 79l-2 14q-1 7 -7 11q-7 6 -31 9z" />
    <glyph glyph-name="A" unicode="A" horiz-adv-x="486" 
d="M293 610q29 0 38 -20l12 -26l16 -56q49 -150 62 -252l11 -59l5 -50l19 -88l3 -27q0 -32 -32 -43l-9 -2q-25 0 -37 37l-7 29l-9 89q-1 27 -10 40q-21 19 -77 19l-78 -2l-26 -4q-10 -2 -18 -9l-11 -17l-14 -44l-34 -79q-25 -57 -59 -57q-12 0 -23 10q-6 7 -6 21l3 21l19 40
l7 22l15 29l6 10l83 180l19 62l21 40l32 73l19 55q15 50 48 57zM285 487q-17 0 -36 -77l-10 -29l-18 -53l-18 -36l-3 -15q4 -9 16 -9l17 2l88 -2l17 3l3 3v13l-1 8l-8 24l-4 18l-3 35l-18 71q-8 44 -22 44z" />
    <glyph glyph-name="B" unicode="B" horiz-adv-x="458" 
d="M258 614l6 1l23 -4q65 0 102.5 -29t48.5 -71q2 -5 2 -17l-4 -32l-5 -30q-9 -43 -58 -88l-13 -10q-10 -7 -10 -13q0 -5 13 -13l11 -6l9 -4q32 -21 47 -59q10 -24 10 -55q0 -73 -48 -117l-25 -14l-60 -32l-42 -10l-27 -11l-39 -1q-104 0 -127 30q-7 10 -7 20l5 29l5 29
l13 138v36l5 56l6 43l6 53l11 42l1 26l6 37l-2 24q0 17 7 24q7 9 17 11l21 4zM189 279q-24 -4 -28 -53l-3 -20l-10 -91l-1 -14q0 -13 5 -17q9 -9 42 -9l57 7l27 7q17 4 35 14q42 22 50 50l2 16l-1 16q-3 24 -7 30l-7 12q-28 47 -130 51l-23 2zM207 532q-6 -7 -8 -17l-4 -24
l-9 -52l-9 -46l-4 -29l-3 -14l1 -4q2 -4 7.5 -4.5t23.5 -0.5q61 0 91 21q68 44 68 109q-1 26 -19.5 45.5t-41.5 25.5l-49 4q-34 0 -44 -14z" />
    <glyph glyph-name="C" unicode="C" horiz-adv-x="476" 
d="M373 612l57 -5l23 -5l52 -18q17 -6 17 -25q0 -27 -24 -40q-10 -5 -16 -5q-9 0 -17.5 4.5t-19.5 6.5l-45 9l-47 3h-5l-21 -2l-36 -8q-21 -7 -49 -28q-46 -39 -64 -68.5t-28 -68.5t-10 -117q1 -43 10.5 -77t42.5 -65l24 -23q21 -18 83 -18q20 2 49 17l29 19q20 16 39 16
l15 -3q18 -8 18 -25q0 -20 -27 -48.5t-77 -43.5l-24 -5l-53 -2q-54 3 -75 10q-35 13 -60 37l-18 15q-46 41 -53 122l-3 32l-3 55l5 46l5 56q7 26 28 70l27 54q23 42 82 84q31 20 82.5 32t86.5 12z" />
    <glyph glyph-name="D" unicode="D" horiz-adv-x="560" 
d="M269 612l20 1l47 -3q64 -8 122.5 -47t80.5 -98q10 -31 10 -66l-6 -105l-6 -31q-16 -73 -67.5 -133t-105.5 -84l-94 -38l-19 -5l-18 -4q-36 -11 -60 -14h-5q-29 0 -45 8q-2 2 -32 13l-16 8q-6 3 -12 17l-3 16l6 36l10 71l1 7l-2 22l1 8l7 32q14 77 25 181l11 137l4 41
q9 40 51 40l31 -12l21 -1zM241 532q-30 -3 -39 -9l-12 -37l-12 -141l-25 -172l-7 -78v-8q0 -11 3 -18t19 -7q37 0 114.5 28.5t109.5 72.5l15 19l27 35q21 31 28 104l5 63q-5 79 -69 120q-21 15 -73 27l-44 4z" />
    <glyph glyph-name="E" unicode="E" horiz-adv-x="392" 
d="M274 600l24 -1q52 -3 58 -5l26 -2q12 -7 12 -20q0 -12 -9 -24t-19 -16q-9 -4 -21 -4l-27 2l-46 4l-27 -2l-29 -3q-18 -2 -18 -21l-2 -12l-9 -73l-2 -39l-2 -17l2 -10q3 -10 22 -10l65 2l26 -1l23 1l17 -2q34 -8 34 -33l-1 -8q-7 -23 -37 -28l-9 -1l-52 3l-72 -3
q-27 -2 -34 -16q-3 -4 -3 -15.5t-4 -51.5l-10 -88l-3 -18q0 -11 20 -11l37 5l21 2l15 -1l26 -2l45 -5h5l22 1q11 0 18 -4q12 -8 12 -22t-9 -27.5t-19 -17.5q-4 -2 -26 -2l-78 6q-36 0 -85 -7l-43 -6q-23 0 -38 12q-13 8 -13 29l5 35l7 39l5 27l10 127l22 129l5 63l13 86
l1 27q3 24 25 28l30 2l19 1l53 -3z" />
    <glyph glyph-name="F" unicode="F" horiz-adv-x="365" 
d="M291 605l25 1q58 0 74 -8q12 -7 12 -25t-10 -34t-26 -16q-10 0 -26 7.5t-61 7.5l-37 -4q-30 -4 -33 -19l-3 -18l-8 -43l-9 -36l-7 -59l-4 -22q0 -18 47 -18h46l21 1h28q32 -5 32 -32l-1 -10q-5 -17 -16.5 -21t-24.5 -7q-18 -3 -100 -3l-30 3q-11 0 -16 -5q-10 -8 -11 -24
t-4 -27q-4 -11 -4 -48l-5 -39l1 -14l-1 -7l-5 -29q-6 -66 -55 -66q-30 0 -30 49l17 146l12 55l12 79l15 55l20 125l9 46l2 36q2 12 14 20q7 6 18 6l29 -5h28l13 1z" />
    <glyph glyph-name="G" unicode="G" horiz-adv-x="535" 
d="M370 607l41 2q60 0 82 -6l18 -2q5 -1 9 -5q12 -8 12 -29q0 -20 -10 -33q-11 -12 -20 -12l-32 7l-81 3l-11 -1q-62 -7 -68 -9q-62 -15 -103 -64l-24 -41l-31 -57q-15 -48 -15 -113q0 -97 78 -155q28 -19 55 -24.5t79 -5.5l26 3q35 6 36 40v18l5 36l1 41l9 67l4 21l3 5
q11 17 34 17q12 0 21 -6q12 -9 12 -22l-3 -22l-4 -44l-11 -118v-29q0 -19 -7 -28q-11 -19 -31 -29l-49 -17l-39 -6l-53 -3q-66 0 -102 15l-18 10l-42 31q-23 15 -35 34t-25 45q-25 47 -25 105q0 107 16 159q6 21 34 63l9 17q54 105 172 127z" />
    <glyph glyph-name="H" unicode="H" horiz-adv-x="557" 
d="M162 606l7 1q33 0 33 -45l-1 -15l-20 -149q-5 -15 -5 -29q0 -16 11 -21q10 -6 26 -6l32 2l30 -4l47 3l42 -3l34 -3q23 0 28 19l4 17l11 38l2 27l24 119l4 17l4 6q11 13 43 13q16 0 21 -5q11 -8 11 -22l-25 -111l-6 -60l-12 -48l-8 -72l-16 -176q-10 -72 -13 -81
q-7 -27 -25 -30h-6q-18 0 -30 12.5t-12 32.5q0 7 6 28l5 69l17 122q0 13 -7 16l-20 2l-48 3h-49l-120 -1q-14 -1 -14 -15l-1 -8l-4 -42q-13 -74 -25 -183q-2 -15 -17 -29t-32 -14q-9 0 -18 6q-13 8 -13 29l1 11l12 99l15 104l3 56l8 37l6 58q13 72 16 108l9 55l2 25
q4 33 33 37z" />
    <glyph glyph-name="I" unicode="I" horiz-adv-x="222" 
d="M192 598q23 -11 23 -44l-5 -43l-2 -30l-13 -58l-13 -95l-17 -78l-7 -52l-6 -29l-7 -39l-9 -49l-2 -16q-8 -73 -46 -73l-10 2q-30 11 -30 47l1 9l9 55l12 51l6 33l9 53l1 28l24 111l5 26q0 52 13 95l3 27l5 26l-3 22l2 9q5 18 32 18q14 0 25 -6z" />
    <glyph glyph-name="J" unicode="J" horiz-adv-x="234" 
d="M187 618q24 0 34 -32l1 -6l-2 -18l-8 -43l-4 -45l-17 -112l-5 -104l-10 -82l-17 -92l-12 -59q-30 -158 -164 -180q-33 -10 -46 -10q-16 1 -29 15t-13 30q0 11 9 20q13 12 36 14l36 6q69 20 90 124l12 61l11 58l10 59l22 217l8 46l2 29l11 53l4 24q3 21 22 25l15 2h4z" />
    <glyph glyph-name="K" unicode="K" horiz-adv-x="488" 
d="M487 604q31 0 31 -33q0 -18 -13 -30l-6 -4l-18 -4l-25 -20l-26 -24l-61 -70l-68 -62l-14 -17l-12 -17l-1 -6q0 -8 16 -27l22 -31l134 -190l25 -31l7 -15l2 -11q0 -30 -29 -40l-6 -1q-17 0 -31.5 14.5t-78.5 103.5l-27 42l-24 30l-62 94l-19 24q-14 15 -16 29v5q0 16 8 25
l42 52l74 73l25 32q96 102 146 109h5zM169 612q11 0 21.5 -7t12.5 -18v-5l-22 -167l-4 -88l-19 -113v-35l-10 -59l-9 -69l-4 -23l-6 -20q-3 -8 -13 -10l-7 -1l-6 1q-40 9 -40 58l1 11l2 26l6 29l9 91l12 54l5 60l5 23l1 17l-1 42l1 9l18 129l4 32q4 23 34 31z" />
    <glyph glyph-name="L" unicode="L" horiz-adv-x="366" 
d="M177 610q20 0 27 -24l1 -8l-9 -124l-13 -63l-1 -27l-9 -42l-7 -84l-7 -38l-9 -62l-4 -33v-9q0 -16 4 -23q2 -5 10 -5l46 -1q100 -4 155 -20q20 -6 20 -28q0 -36 -49 -36l-26 2q-90 15 -173 15l-30 -1q-35 0 -43 21l-2 10l5 26l23 156l9 77l25 178l5 97q2 27 13 34t36 12
h3z" />
    <glyph glyph-name="M" unicode="M" horiz-adv-x="715" 
d="M398 239l50 92l24 34l12 25l39 63l35 62l52 72q22 29 44 30h1q11 0 22 -12t11 -23l-8 -49l-1 -26l-8 -43l-1 -9l2 -27l-1 -10l-4 -26l1 -59l-9 -207v-11l1 -54l-2 -25q-1 -9 -20 -31q-11 -11 -27 -11q-18 0 -25 14q-6 13 -6 21l2 19l9 280l8 103q0 10 -4 10q-6 0 -11 -10
l-16 -37l-58 -97l-27 -55l-29 -48l-11 -29l-36 -73l-18 -26l-21 -40q-19 -36 -39 -36l-10 2q-28 18 -44 103l-18 84l-30 145l-23 96l-3 13q-2 10 -6 10q-7 0 -7 -23q-1 -26 -11 -75q-18 -107 -21 -116l-37 -194q-16 -47 -47 -47q-8 0 -15 4q-8 3 -13 11q-3 6 -3 13
q0 13 4 23l12 45l10 70l26 115l9 53l19 105q3 36 11 55q8 24 11 62q3 30 18 45q16 19 32 23h6q22 0 31 -13q2 -3 11 -34l19 -63q12 -30 15.5 -64t21.5 -90.5t22 -77.5l10 -44l4 -22q4 -53 16 -53q9 0 26.5 39.5t22.5 48.5z" />
    <glyph glyph-name="N" unicode="N" horiz-adv-x="557" 
d="M419 185q5 0 6 17.5t4 35.5l4 60l26 216l4 34q6 42 35 54l20 2q22 -4 22 -36l-9 -62l-3 -39q-4 -71 -7 -88l-10 -74l-23 -162l-4 -45l-4 -56q-7 -50 -30 -58l-14 -3q-28 0 -50 57l-50 122l-24 53l-30 57l-35 84q-24 40 -38 74l-5 11q-4 10 -9 10q-6 0 -6 -26l-10 -87
l-18 -124l-8 -57l-4 -45l-7 -48l-4 -10l-3 -18l-4 -9l-14 -21q-6 -12 -20 -13h-3q-14 0 -24 10.5t-12 24.5v5l6 33q5 16 12 78l19 147l17 105q11 122 25 171l4 19q6 24 40 24q17 0 25 -7q5 -5 7.5 -12.5t7.5 -13.5q15 -25 43 -93t63 -126l25 -55l42 -74l13 -28q6 -14 12 -14
z" />
    <glyph glyph-name="O" unicode="O" horiz-adv-x="594" 
d="M338 615q66 0 112 -21l26 -16q18 -8 36 -24q70 -66 70 -203l-2 -52l-9 -53q-6 -32 -35 -88l-17 -34q-29 -55 -103 -109l-11 -6l-32 -10l-37 -11l-45 -4l-14 1q-85 9 -142 58q-37 37 -48 74.5t-19 78t-8 76.5l3 37l5 56l18 52q17 59 35 83l25 30q41 46 79 64q28 15 64 19z
M304 536q-64 -3 -106.5 -68t-50.5 -146l-5 -46l1 -14q3 -51 11 -76l5 -27q4 -24 22 -41l10 -11l9 -12l5 -3q35 -31 89 -31q57 3 75 14q89 62 119 187l3 43l4 59l-1 12q-6 65 -25 95l-18 26l-12 11l-28 18l-29 7l-36 4z" />
    <glyph glyph-name="P" unicode="P" horiz-adv-x="418" 
d="M238 606l28 2l41 -3q35 -4 59 -23q48 -29 66 -71q9 -26 9 -55q0 -78 -50 -139l-30 -33q-21 -18 -107 -49l-27 -5l-17 -6h-21q-15 0 -23 -11q-8 -12 -8 -27l-2 -25l-11 -71l-8 -51q-13 -58 -48 -62h-3q-31 0 -31 43l6 57l11 95l10 59l1 41l8 41l9 74l11 50l9 80l7 32l4 18
q3 10 8 15q13 15 44 19zM234 536q-23 -8 -26 -10q-9 -9 -12 -37l-11 -69l-13 -70l-2 -39l-2 -9q0 -11 17 -11l14 1q112 22 141 83l19 41l3 16v10q0 48 -32.5 72t-74.5 24z" />
    <glyph glyph-name="Q" unicode="Q" horiz-adv-x="594" 
d="M358 616l39 -5q66 -8 118 -53.5t64 -110.5l5 -63q0 -65 -19.5 -134.5t-51.5 -117.5l-31 -41l-44 -42q-49 -40 -107 -44l-66 -4l-36 -1l-36 5q-28 5 -74 43q-37 29 -48 80q-18 66 -19 97v27l8 67q11 69 35 117l6 17q7 31 63 79q19 13 25 21q45 38 86 52l21 6l55 5h7z
M267 521q-15 -9 -42.5 -39t-37.5 -46q-28 -48 -40 -123l-8 -50l-1 -19q0 -76 35 -129q6 -13 12 -16q26 -23 49 -25l53 -1q37 0 60 5q46 17 78 62q74 99 74 230q0 33 -6 66q-2 15 -13.5 35t-23.5 28l-40 27l-11 5l-10 6l-3 2l-35 5l-50 -8q-20 -2 -40 -15zM315 -33l37 -5
l75 -1l104 -13l31 -1q26 -6 26 -31q0 -24 -26 -35q-9 -4 -23 -4l-93 14l-91 5q-58 0 -76 7q-21 9 -21 30q0 10 7 17q7 8 40 16z" />
    <glyph glyph-name="R" unicode="R" horiz-adv-x="448" 
d="M145 94l2 -21q0 -32 -12 -61q-5 -10 -19.5 -20t-28.5 -10q-13 0 -20 10q-9 12 -9 31l5 40l17 142l5 42l4 24l2 35l5 41l3 29l11 56l8 75q2 5 2 22l-2 38l-1 14q0 10 5 19q8 14 43 15h87q52 0 96 -19q46 -18 67 -44q24 -31 24 -79l-1 -16q-11 -64 -15 -73q-9 -24 -20 -35
l-25 -22q-26 -20 -46.5 -30t-20.5 -31q0 -17 11 -35l15 -27l54 -113l24 -43l1 -9q0 -16 -11.5 -29.5t-28.5 -13.5l-7 1q-31 6 -50 63l-23 43l-18 45l-21 43l-21 49l-7 10q-4 6 -11 7h-33q-23 0 -23 -34zM223 550q-19 -2 -22.5 -18.5t-5.5 -30.5l-8 -74l-12 -89q0 -17 14 -17
q23 2 81 16q42 12 69 50q15 16 18 40l5 38q0 14 -5 24q-18 46 -69 54q-31 7 -65 7z" />
    <glyph glyph-name="S" unicode="S" horiz-adv-x="410" 
d="M249 610l48 4l29 -2q30 0 55 -10q19 -8 19 -34q0 -13 -6 -22q-9 -10 -22 -10l-61 5l-55 3l-9 -1q-31 -5 -64 -38.5t-33 -66.5q0 -60 92 -91q82 -32 117.5 -78t35.5 -95q0 -65 -32 -107q-60 -72 -173 -78h-10q-41 0 -109 21q-12 4 -22.5 17.5t-10.5 27.5l1 6q2 15 25 21
l10 1l13 -1l43 -11l76 -7q83 0 102 59l7 39q0 6 -9 30q-19 46 -62 65l-31 13l-31 18l-49 23q-36 18 -47 44l-9 25q-6 21 -6 47q0 58 36 101t67.5 60t74.5 22z" />
    <glyph glyph-name="T" unicode="T" horiz-adv-x="393" 
d="M343 610l23 1l24 -2l8 -1l35 2q9 -2 18 -13t9 -24q0 -15 -14 -23l-3 -2l-36 -10l-74 -3q-35 0 -44 -2.5t-13 -9.5q-13 -25 -12 -53t-3 -54l-6 -37l-2 -40l-10 -72l-8 -128l-9 -43l-8 -83q-3 -16 -17 -27t-27 -11q-27 2 -32 33l-1 9l3 27l4 56l22 200l5 39q8 47 9 92.5
t5 72.5l4 18l-2 7q-3 10 -22 10l-23 -2l-40 -2l-25 -2q-17 0 -27 11.5t-10 23.5q0 14 11 23.5t26 10.5l84 1l31 2l105 2z" />
    <glyph glyph-name="U" unicode="U" horiz-adv-x="570" 
d="M211 81q17 -17 55 -17l9 1l32 1q69 20 100 70q18 32 24 71q46 284 46 366q0 47 43 47q28 0 32 -24l1 -40l-6 -57l-1 -23l-7 -50l-6 -104l-4 -20l-5 -22l-5 -29q-21 -125 -72.5 -186.5t-154.5 -74.5l-35 -3q-49 0 -82 22q-53 34 -74 77q-18 35 -18 125l5 87l6 34l25 154
l10 41l7 31q13 53 51 57h4q25 0 25 -28q0 -35 -11 -79l-14 -57q-28 -140 -28 -244q0 -74 27 -104z" />
    <glyph glyph-name="V" unicode="V" horiz-adv-x="465" 
d="M238 134q6 0 14.5 24t12.5 32l112 275q22 47 35.5 88.5t24.5 56.5q7 10 26 10q45 0 45 -39q0 -20 -21 -53q-8 -14 -23 -56q-22 -57 -81 -178l-28 -66l-28 -72l-12 -30l-24 -59l-15 -27l-14 -37q-7 -11 -25 -11q-11 0 -23 5q-29 18 -34 26l-5 9l-5 22l-21 114l-29 124
l-2 25l-8 24l-3 28l-17 80l-12 131q0 43 37 43q20 -2 26 -10.5t11 -33.5l9 -69l23 -115v-19l21 -117l20 -90q6 -35 13 -35z" />
    <glyph glyph-name="W" unicode="W" horiz-adv-x="711" 
d="M188 174q4 0 8 7l10 19l21 43l23 43l113 246l18 42q16 46 53 46q19 0 28 -10l5 -8l5 -24l12 -72l6 -43l30 -266q0 -24 7 -24q5 0 7.5 10t4.5 14l24 76l11 41l36 102l63 190q10 16 32 16q16 0 27.5 -9.5t11.5 -23.5l-6 -24l-24 -76q-24 -83 -84 -233l-16 -56l-31 -92
l-22 -72l-8 -26q-9 -17 -34 -17l-12 1q-33 9 -43 127l-9 50l-17 143l-6 39l-5 65q-2 38 -11 38q-12 -1 -14 -11.5t-6 -19.5l-108 -228q-54 -104 -68 -147q-19 -52 -63 -52q-12 2 -23.5 11t-14.5 20l-4 24l-6 154v33l-7 69l-2 13l-6 147l-17 102l3 20q6 22 36 22q21 0 33 -13
l5 -9l5 -26q6 -22 8 -70l3 -62l-2 -49l7 -66v-26q6 -32 7 -75t6 -43z" />
    <glyph glyph-name="X" unicode="X" horiz-adv-x="485" 
d="M157 442l-37 63l-37 50q-4 7 -4 16q0 15 11 27.5t26 12.5q4 -1 21 -11q26 -23 44 -54t34 -55l40 -57l24 -39l11 -10q9 4 14 14l25 36l26 42l63 84l20 30q20 25 52 25q20 0 30 -18l1 -8q0 -10 -6 -17l-9 -18l-33 -39l-20 -31l-35 -46l-43 -57l-23 -31q-14 -17 -14 -37
q3 -16 10 -28l29 -60l30 -57l19 -35q6 -22 10 -30l24 -36q14 -19 14 -40l-2 -14q-6 -13 -19.5 -22t-27.5 -9q-23 0 -34 24l-8 16l-24 44l-57 136l-1 4l-4 10l-10 18l-1 1l-8 7q-8 -2 -14 -11.5t-23 -27t-25 -29.5l-15 -22q-15 -20 -53 -58q-17 -14 -41 -52l-30 -36
q-22 -30 -41 -30l-7 1q-31 14 -31 39q4 11 26 33l19 26l42 48l24 27l51 73l45 49q25 28 29 37l1 5q0 10 -11 19l-29 38l-25 41z" />
    <glyph glyph-name="Y" unicode="Y" horiz-adv-x="423" 
d="M86 612l10 2q25 0 48 -53q15 -28 44 -105l11 -36l20 -44l6 -11l4 -3h2q4 0 9 9l38 51l46 71l70 86q23 28 42 28q8 0 15 -4q12 -6 12 -23l-1 -12q-4 -22 -23 -45l-44 -51l-56 -84l-31 -39q-31 -39 -46 -83l-4 -26l-11 -62q-6 -39 -6 -69t-6 -57q-7 -36 -41 -45l-8 -1
q-28 0 -28 45l2 38l5 28l2 36l5 24l3 49l5 37q-1 26 -13 47t-21 45l-60 155l-30 50l-4 11v3q0 11 12 22.5t22 15.5z" />
    <glyph glyph-name="Z" unicode="Z" horiz-adv-x="485" 
d="M380 528q-4 5 -20 5l-33 -1l-62 1l-39 -2l-57 -1l-43 -8q-29 2 -29 38q3 33 75 41q27 4 152 4l46 -1l69 2q30 0 48.5 -7.5t18.5 -30.5q0 -21 -23 -39q-26 -26 -41 -52l-24 -33l-84 -91l-44 -63l-45 -54l-81 -123l-10 -13q-7 -8 -7 -17q0 -11 22 -11l33 4l7 1l12 -1l7 1
l10 1l30 -2l94 10l44 1l32 -1q26 -3 30 -29v-6q0 -31 -19 -39l-20 -3l-20 1l-39 1l-49 -3l-63 -2l-17 -3l-15 -1l-34 1l-141 -7q-21 0 -32 11q-5 6 -5 16q0 16 10 28l68 102l33 45l20 22l31 51l85 109l101 118q18 22 18 30z" />
    <glyph glyph-name="bracketleft" unicode="[" horiz-adv-x="223" 
d="M253 714l16 2q17 0 22 -14q3 -6 3 -14q0 -19 -3 -25q-6 -17 -21 -17l-37 3q-7 0 -10 -2l-8 -1q-7 0 -8 -6l-7 -43q-10 -35 -10 -71.5t-5 -72.5l-9 -30l-3 -23q-9 -22 -9 -50l1 -36l-1 -19l-18 -108l-13 -86q-22 -123 -24 -174l-4 -39l2 -16q4 -9 7 -9l9 -2h5l25 2
q14 0 24 -10t10 -24q0 -21 -17 -30q-28 -12 -60 -12l-67 6q-10 2 -14 10l-2 11l1 12l8 32l4 75l14 116l16 91l9 100l9 46l9 72l17 140q6 57 11 75l5 28v18l8 52q0 19 8 29q9 15 38 15l55 -2z" />
    <glyph glyph-name="backslash" unicode="\" horiz-adv-x="338" 
d="M87 710q6 3 15 3q19 0 27 -11q5 -7 8 -25l22 -70l8 -29l22 -95l25 -97l40 -185l17 -71l3 -24q15 -81 29 -131l4 -40l7 -19l9 -67q0 -30 -24 -39l-10 -2q-14 0 -24 10t-18 55l-7 43l-73 344l-39 163l-7 47q-16 95 -24 111l-16 49l-5 12q-10 18 -10 32q0 28 21 36z" />
    <glyph glyph-name="bracketright" unicode="]" horiz-adv-x="223" 
d="M146 717l20 -2l25 2q21 0 30 -12q5 -6 5 -19q0 -30 -6 -63l-9 -73l-6 -37l-3 -52l-5 -41l-5 -41l-11 -82l-7 -55l-15 -93l-3 -40l-8 -93l-10 -91l-20 -90l-3 -20q-4 -26 -24 -26h-10l-60 4h-20q-26 1 -31 21l-1 6l2 9q1 7 6 13q7 11 18 15l9 1l26 -3q21 0 26 26l3 13
l13 85l3 25l2 29l9 104l21 147l12 69l12 134l10 74l2 35l5 36l3 11l-1 4q-2 6 -7 7.5t-19 1.5l-22 -1q-24 0 -32 19l-2 9q0 23 24 30l51 4h3z" />
    <glyph glyph-name="asciicircum" unicode="^" horiz-adv-x="369" 
d="M230 502q-19 -7 -30 -24q-35 -54 -79 -100q-24 -24 -40 -24q-14 0 -22 14q-5 7 -5 17q0 12 14 29l59 63l87 119q8 14 22 14q6 0 50 -58l85 -136q5 -12 5 -26q0 -33 -23 -35h-4q-31 0 -51 38l-22 45l-11 20l-8 10l-8 19q-7 16 -15 16z" />
    <glyph glyph-name="underscore" unicode="_" horiz-adv-x="416" 
d="M327 -28q26 0 36 -5q16 -11 16 -26q0 -16 -17 -25l-5 -2l-89 -2l-15 -3l-27 2l-39 -2l-90 -2l-75 -7q-10 0 -14 2q-18 7 -18 28q0 8 4 13q9 14 34 20l36 5l113 3l48 2l22 -1l29 2z" />
    <glyph glyph-name="grave" unicode="`" horiz-adv-x="453" 
d="M194 657l8 1q9 0 17 -6t77 -49q26 -14 41 -31q4 -4 4 -13q0 -11 -7.5 -23t-17.5 -16l-8 -2q-11 0 -30.5 19.5t-40.5 32.5l-61 38q-5 7 -5 14q0 25 23 35z" />
    <glyph glyph-name="a" unicode="a" horiz-adv-x="455" 
d="M309 32q-5 0 -10.5 -5t-11.5 -8q-61 -33 -109 -33q-103 0 -129 128l-7 77q0 112 72 201q35 48 72.5 64.5t85.5 18.5l56 4l15 -1l33 -11l29 -3q10 -2 16 -12q4 -7 4 -14t-6 -28l-8 -90l-2 -66l-16 -141l-4 -74l-3 -32l-4 -8q-9 -15 -32 -15q-35 0 -36 37q0 10 -4 11h-1z
M275 404l-18 -4q-44 -8 -76 -46t-46 -77l-12 -65q-3 -12 -3 -30l7 -40q15 -77 58 -77l9 1q66 10 80 19l21 10q13 6 17 14t9 48t5 48l6 71l5 28l4 52l1 19q0 28 -25 30l-31 1z" />
    <glyph glyph-name="b" unicode="b" horiz-adv-x="457" 
d="M185 440l4 -1q6 0 10.5 5t10.5 7l37 13l29 9l12 1q40 0 60 -7q98 -38 98 -207l-2 -20l-13 -49l-24 -66l-11 -19l-64 -67q-15 -11 -66 -32l-41 -13q-21 -6 -56 -6l-88 2q-26 6 -26 38t6.5 63.5t8.5 63.5l2 36l14 90l12 102l17 103l2 52l-1 12v7q0 33 12 81q7 37 39 51
l12 2q19 0 28 -14q3 -6 3 -14l-1 -11l-12 -52l1 -27l-10 -75zM274 402q-34 -6 -67 -26l-24 -20l-7 -10l-7 -20l-5 -50l-10 -80l-6 -53l-6 -53l-1 -22l2 -6l4 -2l10 -1h36q48 7 82 28q67 53 88 179l2 38q0 65 -36 87l-27 8l-20 4z" />
    <glyph glyph-name="c" unicode="c" horiz-adv-x="371" 
d="M263 478q8 2 43 2q36 -2 45 -5t19 -10q18 -11 18 -31q0 -14 -12 -23t-27 -9l-23 3q-7 2 -50 2l-13 -1q-55 -4 -92 -50l-18 -31q-15 -23 -17 -34l-7 -22l-7 -48v-5l2 -43l8 -37l2 -17q2 -12 24 -35.5t70 -23.5l11 1l48 14l12 1l15 -3q20 -8 20 -29q0 -24 -20 -35l-34 -10
q-33 -9 -66 -9q-39 0 -76.5 15.5t-46.5 26.5q-38 42 -38 135l-2 58l1 9q20 116 76 172q52 47 135 72z" />
    <glyph glyph-name="d" unicode="d" horiz-adv-x="457" 
d="M316 53q-4 0 -35 -23q-53 -39 -100 -39l-42 4q-41 7 -61 34q-12 15 -23 53q-7 28 -7 69q0 115 51 197t137 106q52 13 78 13l22 -1q27 0 29 20l1 30q3 49 17 115l6 26q2 12 18 17q7 3 14 3q27 0 31 -23v-3l-4 -23l-10 -75l-4 -32l-2 -84l-11 -36l-7 -51l-2 -47l-12 -98
q-4 -32 -2.5 -64t-3.5 -64l-2 -48q-2 -15 -9 -26q-10 -18 -32 -18q-18 0 -28 16q-3 4 -3 10l2 17q0 25 -6 25zM298 395l-32 -4l-31 -8q-40 -11 -71 -59t-37 -107l-2 -48q0 -73 22 -93q15 -12 26 -15l22 -3q31 2 62 23.5t46.5 36.5t18.5 50l3 24l9 76l6 85l4 25q0 5 -3 10
q-2 3 -5 3t-8 1l-24 4z" />
    <glyph glyph-name="e" unicode="e" horiz-adv-x="380" 
d="M267 489q62 0 103 -35q21 -21 21 -65q0 -74 -40 -105l-28 -20l-4 -5q-5 -10 -16.5 -12.5t-19.5 -7.5q-17 -10 -38.5 -11.5t-38 -5t-45.5 -3.5t-34 -5t-5 -22l1 -19q8 -67 34 -95t73 -28q14 0 43.5 11.5t44.5 11.5q9 0 15 -3q11 -4 11 -26q-1 -14 -4 -18t-10 -8
q-54 -35 -119 -35q-82 0 -116 41l-20 28q-30 60 -30 114l-1 40l4 51q13 78 40 116q39 63 76.5 86t90.5 30h12zM139 283q5 -5 33 -5q50 0 80 16l46 20q10 8 19 28t9 39l-3 17q-13 25 -63 25q-36 -3 -49 -12q-21 -10 -44 -41l-27 -50q-4 -10 -4 -22q0 -9 3 -15z" />
    <glyph glyph-name="f" unicode="f" horiz-adv-x="278" 
d="M95 413l-26 -1q-37 0 -37 23q0 19 16 30q10 8 25 9t27 4q18 3 20 11l7 19l10 46q19 90 73 117q29 14 74 14h46l12 -2q15 -6 15 -24q0 -12 -7 -24q-10 -19 -33 -19l-39 3q-35 0 -50.5 -17t-21.5 -66l-6 -49q0 -7 2 -8.5t6 -1.5l18 1l14 -1l49 3q17 0 29 -11t12 -24
q0 -14 -15 -24q-4 -4 -9.5 -4.5t-23.5 -0.5l-56 -2l-24 2q-10 0 -14 -4q-6 -4 -9 -56l-10 -58l-7 -96l-8 -49l-1 -23l-6 -28l-5 -86q-2 -12 -13 -17q-8 -5 -20 -5q-31 0 -42 21l-2 11l2 15l-1 26l21 138l1 36l23 160q0 8 -3.5 10t-12.5 2z" />
    <glyph glyph-name="g" unicode="g" horiz-adv-x="457" 
d="M356 472l23 -3q55 -4 59 -28v-3q0 -3 -7 -24l-7 -29q-4 -18 -11 -83l-7 -63l-34 -270l-9 -38l-11 -35l-8 -15q-25 -35 -71 -64l-58 -24l-44 -9l-15 -1q-17 0 -54 8q-44 7 -57 22t-13 33q0 20 18 27q7 3 15 3l15 -2l35 -13q16 -6 40 -6l16 1q28 5 82 38q23 18 32 31
q11 17 11.5 33.5t5.5 36.5l10 66l-1 6q-2 5 -5 5q-4 0 -10 -4l-27 -18q-15 -10 -50 -23t-64 -13q-24 0 -44 8q-5 1 -28 18q-29 20 -34 70l-5 59q0 23 4 39l18 87l16 38l8 14q32 59 113 104q37 19 104 22l38 1zM310 403q-71 -5 -99 -23q-22 -15 -37 -35q-37 -48 -48 -120
l-3 -60v-3l3 -23q6 -52 77 -52q21 0 52 18q11 5 32.5 21t31.5 38q3 7 2.5 15.5t1.5 16.5l11 67l2 43l10 59l3 21q0 6 -3 11q-5 6 -36 6z" />
    <glyph glyph-name="h" unicode="h" horiz-adv-x="469" 
d="M165 683q12 0 28 -7.5t17 -20.5v-7l-2 -19l-12 -74l-6 -40q0 -25 -2 -31l-2 -11l1 -4q0 -1 3 -1l13 4l36 8q26 8 80 8q38 0 67 -19q49 -35 49 -136q0 -43 -4 -66l-7 -62l-9 -55l-8 -43q-7 -31 -29 -89q-8 -21 -41 -24h-5q-19 0 -19 22l7 48q0 11 4 23l9 43l7 62l8 52
q8 35 8 86q0 70 -37 79l-29 8l-11 1l-8 -1q-80 -11 -91.5 -21.5t-15.5 -52.5l-3 -74l-8 -71l-22 -164l-5 -18l-3 -5q-5 -8 -18 -15.5t-24 -7.5l-9 2q-19 12 -19 33l9 47l2 33l5 43l12 93l11 142l33 209q2 48 16 80q4 10 19 13h5z" />
    <glyph glyph-name="i" unicode="i" horiz-adv-x="214" 
d="M143 622q10 5 23 5q38 0 48 -22q3 -6 3 -14q0 -18 -15.5 -35t-37.5 -17q-25 0 -41 22q-4 7 -4 17q0 33 24 44zM176 332l-10 -73l-16 -107l-9 -49l-1 -17q0 -72 -34 -86q-8 -4 -16 -4q-16 0 -24.5 15t-9.5 30l6 45l3 45l7 24l29 249q7 49 21 62q9 8 36 8q16 0 24 -8
q8 -7 8 -17q0 -6 -6 -27q-5 -14 -4 -27.5t-1 -27.5z" />
    <glyph glyph-name="j" unicode="j" horiz-adv-x="215" 
d="M157 469q36 0 36 -24l-6 -42l-3 -24l-6 -30l-5 -66l-3 -16l-7 -20l-5 -59l-13 -81l-18 -103l-4 -19q-19 -68 -45 -102q-36 -49 -76 -66l-15 -8l-21 -12q-9 -5 -21 -5t-22.5 16t-10.5 30q0 9 4 14q7 10 19 14.5t22 10.5q7 3 24 17l32 22q16 13 33.5 69t22.5 115l8 73l9 35
l3 30l13 75l3 30l6 76l5 29q4 21 41 21zM168 629q24 0 32 -8q13 -16 13 -38q0 -35 -43 -42h-6q-35 0 -40 47l-1 14l2 9q7 11 28 17z" />
    <glyph glyph-name="k" unicode="k" horiz-adv-x="425" 
d="M170 681q33 0 35 -23v-3l-14 -119l-18 -144l-7 -50l-3 -62l-6 -30l-2 -48l-8 -57l-7 -46l-3 -39l-6 -24q-7 -24 -34 -31l-8 -1q-27 0 -32 29l-1 11l12 71l9 46l33 313l8 46l5 90l14 53q4 12 18 16zM395 481q13 0 20.5 -9t7.5 -20q0 -12 -7 -20l-51 -47l-66 -75
q-17 -12 -34 -36q-9 -11 -9 -23l1 -6q3 -25 36 -64q11 -12 38.5 -57t37.5 -57l17 -20l4 -8q3 -6 3 -13q0 -24 -21 -32q-8 -4 -16 -4q-20 0 -40 22q-13 13 -57 81l-13 28l-6 8q-65 70 -67 115v3q0 20 13 35l60 72l59 59l14 19q32 38 67 48z" />
    <glyph glyph-name="l" unicode="l" horiz-adv-x="211" 
d="M167 672q13 0 28.5 -7.5t17.5 -19.5l1 -6l-3 -20l-8 -56q-5 -21 -5 -42t-6 -42q-6 -17 -12 -68q-13 -80 -17 -135l-6 -33l-31 -197q-4 -28 -11 -35t-22 -8h-2q-15 0 -28.5 9.5t-14.5 23.5l8 59l3 26l20 135l11 89l14 69l28 185l8 46q5 24 23 27h4z" />
    <glyph glyph-name="m" unicode="m" horiz-adv-x="731" 
d="M136 75q-4 -7 -4 -29.5t-3 -32.5q-4 -16 -10 -20l-23 -9h-3l-18 7q-5 2 -12.5 13t-7.5 16l3 23l5 14l5 59l13 115l17 150l1 63l1 4l-2 14l1 5q8 17 40 17q13 0 21 -6t9 -16l1 -6l3 -5q3 -3 7 -3l6 1q11 2 18.5 6.5t18.5 6.5l41 13q26 7 46 7l25 -3q44 -13 72 -45l3 -5
q3 -8 7 -8q14 0 37 23q16 12 79 32q12 4 32 4q17 0 34 -5q10 -4 36 -21l17 -15q20 -19 20 -24l16 -43l1 -12l-6 -142l-2 -11q-4 -12 -5 -40t-10 -58q-6 -19 -5.5 -34.5t-5.5 -34.5l-4 -10q-9 -14 -23 -23q-6 -3 -13 -3q-19 0 -29 16q-5 10 -5 41l1 9l7 39l6 46l10 62l8 63
l-1 12l3 21l1 18l-1 19l-7 25q-19 23 -33 26l-15 2q-12 0 -24 -4l-28 -9l-21 -11l-9 -4l-11 -9q-20 -13 -26 -23l-7 -13q-6 -17 -6 -48t-7 -55q-5 -20 -5 -41.5t-5 -43.5l-5 -49l-6 -58q-2 -14 -9 -24q-11 -18 -46 -18q-11 0 -13 4q-14 17 -14 32l1 7l6 30l18 147l4 75l7 35
q2 5 2 17q0 17 -8 33q-16 35 -55 35l-19 -1l-36 -8q-15 -3 -36 -14l-8 -3q-32 -12 -35 -137l-19 -157z" />
    <glyph glyph-name="n" unicode="n" horiz-adv-x="471" 
d="M172 455q3 -13 15 -13q7 0 13 4q55 38 97 39h18l14 -2l12 -4q44 -20 66 -44q32 -38 32 -95l-2 -23l-6 -29l-2 -49l-18 -85l-2 -33l-12 -63q-9 -60 -46 -60q-25 0 -32 31l-1 6q0 9 5 27l1 26l26 135l7 65l6 49q-1 27 -19.5 49t-45.5 23h-4q-37 0 -77 -15t-44 -41l-2 -28
l-2 -6q-8 -19 -7.5 -47t-4.5 -53l-3 -23l-5 -32l-29 -147l-4 -16q-6 -20 -30 -20q-15 0 -28 10t-13 28l8 29l22 121l14 69l9 130q0 80 5 100q6 21 34 21q31 0 35 -34z" />
    <glyph glyph-name="o" unicode="o" horiz-adv-x="448" 
d="M261 482q54 0 89 -22l16 -11q40 -29 60 -95l4 -15l3 -42l1 -24l-5 -41l-3 -33q-3 -41 -41 -107l-14 -22l-31 -28q-53 -41 -110 -49l-39 -3l-30 3q-23 6 -49 24t-38 41q-10 17 -25 79l-5 43q0 60 30 138.5t86 124.5l31 24q12 7 51 14zM254 404q-61 -11 -96 -77
q-7 -12 -11 -29q-22 -51 -26 -114v-10l3 -31q5 -24 13 -38q19 -37 71 -37l22 2l24 10q37 15 53 35l18 34q27 58 27 130l-1 14q-3 42 -10 64q-8 18 -23.5 33t-50.5 15z" />
    <glyph glyph-name="p" unicode="p" horiz-adv-x="459" 
d="M188 464l114 19l26 1l8 -1q35 -7 59 -22q57 -41 57 -132q0 -56 -18 -112q-27 -76 -84 -147q-10 -14 -41 -31q-39 -24 -104 -39l-36 -3l-15 1q-16 0 -24 -11q-11 -16 -16 -46l-19 -95q-9 -40 -28 -55q-9 -6 -19 -6q-21 0 -29 18l-2 8l16 91q5 53 25 156t24 159l4 36l5 35
l9 101l-1 41l1 11q0 27 5 35q7 9 23 9q32 0 51 -18l7 -3h2zM280 416l-47 -9q-24 -4 -38 -15q-6 -5 -11 -17q-13 -30 -19 -115l-1 -20l-13 -85l-5 -39l-5 -14l-2 -15l2 -9q2 -5 15 -5l27 -1l9 2l36 7q69 18 96 64q36 59 42 118l8 52q0 11 -4 23q-12 76 -60 79h-15z" />
    <glyph glyph-name="q" unicode="q" horiz-adv-x="455" 
d="M303 73q-5 0 -20 -9q-67 -39 -123 -39l-42 5q-33 9 -53 49q-10 18 -13 43l-5 47l-1 14l3 41q7 40 33 95t75 101q23 23 81 44l24 6q40 8 73 8l44 -4l26 -4q11 -2 18 -13q5 -10 5 -38l-12 -91l-17 -160l-26 -171l-12 -95q-7 -81 -17 -98t-34 -17q-32 0 -32 46q6 80 18 151
l10 80q0 9 -3 9zM280 408q-39 -8 -52 -17q-29 -20 -37 -33q-64 -80 -64 -177l4 -39q3 -26 18 -37l31 -3q55 0 97 31q31 20 41 41q9 16 17 107l14 99l1 14q0 8 -4 13q-5 6 -29 6z" />
    <glyph glyph-name="r" unicode="r" horiz-adv-x="275" 
d="M137 492q36 0 37 -32q0 -5 9 -7h3q5 0 8.5 2.5t8.5 3.5q26 9 44 10l32 2q48 0 48 -39q0 -19 -12 -27q-5 -5 -18 -5l-18 1l-9 -1l-25 -1l-33 -9q-24 -6 -33 -27l-5 -74l-13 -61l-9 -43l-8 -59l-7 -33l-3 -31l-2 -24q0 -51 -29 -62q-6 -3 -14 -3q-36 0 -36 44l5 48l9 61
l11 79l11 52l18 130l1 7l-2 21l1 8l-1 23l1 22q0 24 30 24z" />
    <glyph glyph-name="s" unicode="s" horiz-adv-x="357" 
d="M238 482l15 1l36 -3l42 -10q27 -7 27 -27q0 -11 -12.5 -25t-31.5 -14l-36 6q-22 5 -50 5l-8 -2q-33 -11 -53 -24.5t-23 -39.5l-1 -16q0 -11 4 -18q11 -20 50 -48q54 -33 88 -62q29 -24 38 -50l3 -24l-1 -20q-1 -15 -8 -30q-9 -18 -37 -49q-36 -31 -63 -37l-34 -4l-27 -2
q-69 0 -108 37q-17 24 -17 48q0 20 17 24l7 1q21 0 46 -22l20 -14q8 -6 22 -7l11 -1q35 0 61 16.5t28 45.5q0 8 -5 14l-15 16q-29 27 -58 44l-31 19q-77 46 -77 109q0 34 16.5 70t39.5 49.5t39 22t31 11.5z" />
    <glyph glyph-name="t" unicode="t" horiz-adv-x="306" 
d="M268 402l-66 3q-6 0 -10 -3q-5 -4 -5.5 -9t-9.5 -63l-8 -59l-6 -33q-11 -110 -11 -129l1 -9l3 -18q7 -12 18 -15q8 -4 43 -8q38 0 50 -5t17 -20l1 -6q0 -16 -13 -26q-12 -8 -28.5 -8.5t-31.5 -2.5h-11l-34 3q-86 13 -92 70l-3 42v10l3 54l34 209l-1 12q-3 14 -18 14
l-30 -2q-24 0 -24 23l1 11q4 19 30 25l20 3h10q18 0 22 19l15 63q2 9 16 14l12 1q39 0 39 -28l-6 -34l-3 -15q0 -6 4 -9q8 -5 30.5 -5t52.5 -2q39 -3 39 -36q-3 -28 -50 -31z" />
    <glyph glyph-name="u" unicode="u" horiz-adv-x="471" 
d="M397 481l7 1q12 0 23.5 -8.5t13.5 -20.5l1 -8l1 -12l-12 -82l-3 -33l-11 -54l-7 -63q-5 -73 -6 -138.5t-32 -76.5q-10 -4 -17 -4q-21 0 -25 30l-1 13q0 9 -8 9q-7 0 -52 -23t-85 -23q-43 0 -74 21l-19 19q-27 34 -27 112l5 66l6 52l7 56l14 59l13 84q1 6 8 10t16 4
q14 0 26 -7.5t16 -18.5l2 -12l-9 -72l-11 -65q-9 -54 -12 -109l-3 -36l3 -38q3 -21 19 -35.5t38 -14.5l17 2l35 7l9 4q16 9 35.5 14t26.5 20t9 72l2 37q14 144 35 235q5 22 26 27z" />
    <glyph glyph-name="v" unicode="v" horiz-adv-x="397" 
d="M379 475l23 2q26 0 26 -14l-2 -9l-22 -41l-33 -68l-113 -245l-12 -28q-26 -69 -82 -75h-3q-11 0 -21 20q-9 17 -10.5 38.5t-6.5 39.5l-14 62l-7 41l-14 79l-9 33l-6 23l-15 50l-7 33l-10 20l-1 9q0 17 12 29q8 5 23 5q30 0 42 -42l20 -69l16 -68q2 -17 17 -78l14 -72
l2 -10q1 -8 7 -8q9 3 17 22l26 57l103 224q17 34 40 40z" />
    <glyph glyph-name="w" unicode="w" horiz-adv-x="615" 
d="M196 192q23 60 61 125l34 67l29 69l8 10q10 12 29 12q13 0 24 -9q8 -8 11 -22t8 -25l13 -53l6 -26l6 -26l21 -118l2 -6q2 -8 5 -8q4 0 6 6t3 8l21 49l43 105l40 89l12 21q10 10 25 10q20 0 32 -15q6 -7 6 -17l-2 -13l-15 -29l-19 -43q-31 -61 -81 -187l-28 -75l-9 -23
q-22 -62 -49 -62q-33 0 -43 65l-15 75l-14 66l-13 112q-2 12 -9 12q-6 0 -9.5 -11.5t-7.5 -19.5l-32 -60l-35 -75l-53 -99l-10 -20q-27 -59 -56 -59l-6 1q-15 4 -22 22l-4 12l-4 38l-30 159l-6 44l-4 29l-8 86l-5 50l1 14q4 27 29 27q26 0 36 -23q8 -18 14 -76l21 -147
l4 -68q2 -26 6 -26q6 0 19 28z" />
    <glyph glyph-name="x" unicode="x" horiz-adv-x="389" 
d="M383 477q30 0 30 -31q0 -27 -27 -44t-56 -54l-38 -42l-25 -26q-14 -15 -14 -32q1 -14 11 -28t16 -24l71 -118q12 -22 12 -40q0 -26 -26 -35l-10 -2q-15 0 -31 18l-44 75l-48 77l-3 5q-2 5 -6 5l-3 -1l-7 -7l-124 -152q-10 -11 -22 -11q-10 0 -20.5 8.5t-10.5 20.5
q0 19 23 48t59.5 77.5t53.5 65t19 29.5v1q0 11 -8.5 23t-13.5 21l-63 128l-1 8q0 14 11.5 22t25.5 8q16 0 25 -8l6 -6l53 -96l3 -7l12 -19q3 -4 7 -4q9 3 28 27l75 81q22 26 31.5 31.5t22.5 7.5h6z" />
    <glyph glyph-name="y" unicode="y" horiz-adv-x="402" 
d="M83 475l19 2q16 0 23 -8l5 -7l4 -16l16 -52l33 -163l17 -54l1 -9q0 -8 4 -8t7 7l3 7l25 52l103 210l10 17q5 9 17.5 16.5t25.5 7.5q14 0 23 -10q6 -9 6 -18q0 -17 -15 -44l-150 -318l-52 -103l-12 -19q-52 -82 -114 -124l-30 -16l-66 -30q-20 -11 -54 -11q-15 0 -28 12
t-13 27q0 12 8 20q9 8 25.5 9.5t26.5 5.5l42 13l14 7l45 32l36 30l39 49q17 23 26 55v3l-21 83l-10 52l-11 40q-5 12 -6.5 29t-6.5 28l-24 87l-5 20q-15 34 -15 54t13 28z" />
    <glyph glyph-name="z" unicode="z" horiz-adv-x="381" 
d="M279 472q39 0 64 -5l24 -5q14 -2 17 -14l1 -9q0 -23 -34 -61l-13 -15l-150 -209l-42 -53l-11 -17l-2 -8l1 -5q1 -4 5 -5l7 -2h10l29 2l60 1l72 9q27 -4 27 -35q0 -24 -21 -34l-9 -3l-27 -2l-33 -4l-26 -1l-62 -2l-21 1l-67 -1l-15 2l-15 3q-8 1 -13 7q-3 2 -9 18l-2 12
q0 19 14.5 33.5t38.5 50t83 109.5l107 144l12 16l2 6v1q0 7 -12 7l-13 1l-27 -1l-64 -6l-50 -10l-6 1q-11 2 -19.5 13t-8.5 25q3 23 35 28l25 5q81 12 138 12z" />
    <glyph glyph-name="braceleft" unicode="{" horiz-adv-x="229" 
d="M263 726q14 0 25 -8.5t11 -21.5q0 -10 -5 -16q-8 -13 -20 -16t-22 -7q-13 -5 -17.5 -14.5t-8.5 -23.5l-6 -29l-14 -168q-10 -76 -62 -128q-3 -4 -14 -10t-11 -11t9.5 -10.5t12.5 -9.5q19 -24 24 -45l1 -9l-1 -15l-19 -83l-15 -49l-14 -91l-2 -30l1 -15q5 -33 21 -45
l10 -4l30 -5q30 -7 30 -32q0 -28 -25 -39q-3 -2 -13 -2l-11 1q-41 7 -59 18q-49 28 -49 117l5 86l1 12l37 155l2 19q0 9 -2 12q-8 15 -26 20t-22 8l-4 3q-17 14 -17 34q0 29 27.5 37t33.5 12q16 8 30 36q22 34 27 185q2 70 17 106q13 28 42 51t58 25h4z" />
    <glyph glyph-name="bar" unicode="|" horiz-adv-x="219" 
d="M162 268q-2 -7 -2 -30l-16 -154l-6 -27l-9 -76l-6 -45l-17 -79q-11 -65 -46 -69h-3q-14 0 -23.5 10t-9.5 25l2 12l11 34q14 63 20 122l8 60l12 62l1 33l26 196l11 56l12 94l1 47l9 68l2 65l3 18q6 20 13 27q5 4 16 4q13 0 25 -7.5t16 -17.5l2 -9l-8 -40l-2 -29l-10 -66
l-1 -62l-5 -65l-18 -83q-3 -55 -8 -74z" />
    <glyph glyph-name="braceright" unicode="}" horiz-adv-x="229" 
d="M137 59l1 -57l-2 -18v-32l-5 -18q-15 -78 -46.5 -112t-66.5 -42q-5 -2 -18 -2q-27 0 -30 29v4q0 22 35 43t43.5 53t10.5 44l1 30l3 113l8 74q11 46 44 75l19 12q13 8 13 13q0 4 -7 8t-9 7l-28 34l-1 3l-3 29l3 39l14 72l15 76l6 49l2 26q-5 25 -48 54q-6 4 -9 12
q-3 7 -3 14q0 14 10.5 23t24.5 9l16 -3l14 -5q69 -24 69 -117q0 -38 -13 -111l-13 -53q-12 -54 -12 -72q0 -41 25 -57l32 -18q16 -7 16 -26l-1 -11q-5 -24 -30.5 -27.5t-30.5 -5.5q-28 -14 -36 -46q-13 -35 -13 -73v-39z" />
    <glyph glyph-name="asciitilde" unicode="~" horiz-adv-x="416" 
d="M174 351q19 0 84 -40q29 -16 42 -16q21 0 33 15l25 25q9 7 21 7q11 0 19 -6q11 -7 11 -19q0 -25 -33 -54t-81 -34h-8q-31 0 -51 12q-17 9 -30.5 22t-31.5 20l-33 3q-22 -3 -32 -11q-10 -14 -13 -15q-7 -7 -19 -7q-9 0 -16 5q-11 7 -11 21q0 17 14 34l21 18q19 14 42 16
l44 4h3z" />
    <glyph glyph-name="uni00A0" unicode="&#xa0;" horiz-adv-x="180" 
 />
    <glyph glyph-name="exclamdown" unicode="&#xa1;" horiz-adv-x="209" 
d="M140 474q38 0 38 -42q0 -17 -9.5 -32t-28.5 -17l-9 -1q-45 0 -47 37v4q0 5 6 23q6 16 8 17q7 8 18 9l20 2h4zM126 325q26 -3 26 -31l-6 -48l-10 -63l-5 -43q-9 -137 -17 -181l-4 -26q-15 -69 -48 -72h-2q-11 0 -24 8t-16 18l-2 13l1 13l10 43l5 36l15 67l20 130l9 39
l5 47l9 32q3 9 16 12z" />
    <glyph glyph-name="cent" unicode="&#xa2;" horiz-adv-x="371" 
d="M285 545l8 1l5 -1l10 -4q10 -9 10 -22l-4 -31q0 -6 3 -10q5 -6 20 -9l18 -3q17 -3 32.5 -14.5t15.5 -25.5l-2 -10q-15 -24 -31 -24q-9 0 -29.5 8.5t-41.5 8.5q-23 0 -44 -7l-26 -8l-24 -18q-26 -20 -35 -31q-26 -36 -34 -62l-13 -86v-10q0 -30 11 -65q7 -26 36 -45
t63 -19q15 0 38 8.5t35 8.5q20 0 28 -19l2 -12q0 -17 -13 -30q-16 -18 -62 -26q-10 -2 -14 -6q-5 -6 -5 -15l1 -16q0 -41 -32 -44l-8 -1q-26 0 -26 31l2 24l1 11q0 8 -6 14q-9 10 -22 13q-54 12 -79 57q-23 46 -23 94q6 108 16 149q33 112 111 149l62 22l6 7l4 17l6 23
q4 18 12 24q8 4 18 4z" />
    <glyph glyph-name="sterling" unicode="&#xa3;" horiz-adv-x="380" 
d="M282 609l16 1q29 0 56 -9l31 -12q27 -10 27 -39l-1 -9q-3 -21 -23 -21q-12 0 -38.5 10.5t-51.5 10.5q-28 0 -51 -17q-25 -15 -31 -21q-21 -24 -23 -34q-10 -30 -10 -57q0 -28 12 -59l6 -22q3 -9 13 -11l33 -4l62 3q33 -3 33 -37q0 -32 -46 -36l-66 -2l-5 -2q-8 -5 -8 -17
l-1 -20q-1 -21 -18 -69q-10 -26 -26 -48q-6 -6 -6 -13q0 -8 15 -8l30 3l99 1q41 0 41 -31q0 -12 -8.5 -23.5t-19.5 -15.5q-23 -6 -47 -6l-82 3l-94 -4h-13q-16 0 -27 4t-11 20q2 20 17 37l32 35q33 37 46 102l5 32l-1 11q-2 9 -10.5 11t-34.5 2l-7 2l-18 -1l-13 2
q-23 8 -23 33q2 20 12 26.5t35 6.5l11 -1l12 -1q9 0 13 5l1 4l-5 24q-7 47 -7 78q0 49 27 93.5t48 56.5l17 11q30 17 76 22z" />
    <glyph glyph-name="currency" unicode="&#xa4;" horiz-adv-x="458" 
d="M95 492q20 0 28 -22l2 -5q11 -24 25 -24l10 3l29 18q27 11 70 11q12 0 38.5 -13t38.5 -13q10 1 27 18l29 29q8 8 25 8l9 -1q12 -3 15 -6q4 -5 4 -15q-1 -9 -19 -32t-19 -31v-3q0 -6 5 -11l9 -10q19 -31 19 -61l-1 -7q-9 -65 -24 -95l-23 -33l-4 -11v-3q1 -9 10 -12.5
t14 -6.5q26 -14 34 -35v-10q-4 -27 -35 -38l-12 -2q-13 0 -23 8l-20 15q-34 21 -43 23l-6 1l-23 -5q-48 -6 -73 -6l-11 1l-22 4q-19 2 -28 10l-16 11l-10 2q-6 -1 -11 -8t-9 -12q-30 -35 -53 -48q-8 -4 -17 -4q-14 0 -21 12q-3 7 -3 20q3 33 57 67l15 10l4 5l3 8v2l-1 8
l-10 26q-6 39 -6 66l1 9l2 11l18 55v10l-10 19l-20 34q-7 13 -7 30q1 12 13 22q6 4 16 6zM224 397q-63 -15 -75 -82v-10l1 -13q8 -67 27 -81l24 -13q30 -16 57 -16l29 4q9 2 26 13t25 21.5t23 54.5l5 18v7q0 13 -4 22l-8 23q-4 10 -16 17l-36 25l-10 4q-21 8 -57 8z" />
    <glyph glyph-name="yen" unicode="&#xa5;" horiz-adv-x="423" 
d="M92 616q15 0 24.5 -9t37 -72t54.5 -114l20 -39l7 -13l3 -2h1q4 0 6 4.5t4 6.5l33 44q51 85 85 127l13 16q36 48 63 48l10 -1q9 -2 15 -9q5 -7 5 -14q0 -9 -5 -17l-10 -16l-49 -53l-46 -70l-16 -19l-21 -39l-27 -43l-10 -16l-2 -7v-3q0 -12 17 -12l24 2l16 -2l34 2
q39 0 39 -31l-1 -8q-2 -15 -15 -24t-27 -9l-33 1l-37 -2l-25 -3l-7 -4q-14 -11 -16 -27l-5 -31l-18 -81v-27q-2 -21 -15 -40t-39 -19q-29 0 -29 36q1 15 18 92l7 49l9 29l1 10q0 16 -21 16l-14 2q-21 3 -76 3q-12 1 -23 10t-11 25q6 34 37 34l57 -2l36 -4h4q7 0 8 4v2
q0 6 -7 16l-23 46q-58 124 -81 190q-11 29 -11 41q0 19 18 24z" />
    <glyph glyph-name="brokenbar" unicode="&#xa6;" horiz-adv-x="219" 
d="M114 146q26 -3 26 -33l-3 -39l-3 -33l-20 -113l-17 -66l-3 -20q-4 -44 -32 -48h-5q-14 0 -22.5 12t-8.5 30q3 26 11.5 50t11.5 50l14 92l9 53q0 65 42 65zM188 718q33 0 33 -24l-8 -26l-1 -29l-13 -82l-19 -106l-3 -18q-7 -53 -36 -58l-6 -1q-23 0 -23 34l3 21l2 6l1 39
q15 62 19 108t12 72l4 19q4 41 30 45h5z" />
    <glyph glyph-name="section" unicode="&#xa7;" horiz-adv-x="348" 
d="M260 618l41 -6q29 -4 43 -12q16 -8 16 -28q0 -14 -9.5 -22.5t-20.5 -8.5l-37 7l-45 2q-25 -2 -45 -10q-23 -15 -28.5 -22t-5.5 -20q2 -18 15 -27t26 -16l59 -30q65 -34 65 -106q0 -51 -30 -86q-13 -15 -16 -31v-4q0 -7 9 -26.5t9 -64.5q-2 -50 -41 -81t-94 -36h-16
q-40 0 -76 15q-29 13 -29 38q2 29 35 29l11 -2l38 -13q18 -5 31 -5q24 0 47 17q21 19 24 34v7q0 39 -54 69l-32 21q-77 46 -77 99q0 39 36 94l16 20l3 8v2q0 6 -6.5 11t-8.5 10q-15 32 -16 49v7q0 37 36.5 71.5t116.5 45.5zM173 390q-7 -2 -11 -9.5t-9 -12.5
q-21 -29 -21 -56q0 -13 5 -21q9 -16 26 -24t31 -16l23 -16q9 -6 20 -6q15 2 23 37l3 11l7 28q0 39 -64 75l-21 9z" />
    <glyph glyph-name="dieresis" unicode="&#xa8;" horiz-adv-x="453" 
d="M215 627q29 0 37 -13q3 -4 3 -21t-8.5 -34.5t-27.5 -20.5l-6 -1q-12 0 -27 6.5t-19 14.5q-6 10 -6 22q0 17 11.5 30t27.5 16zM366 625q32 -4 32 -33q0 -17 -11 -33t-28 -20l-19 -2l-8 1q-13 5 -16 25q-4 12 -4 21q0 32 35 40z" />
    <glyph glyph-name="copyright" unicode="&#xa9;" horiz-adv-x="682" 
d="M423 493q13 0 24 -4l20 -3l7 -4q7 -7 7 -14q0 -13 -17 -25t-48 -12l-32 1l-15 -1q-43 -5 -73 -51t-30 -110q0 -20 4 -29q8 -23 31.5 -43t48.5 -20l12 2l34 13l11 1q12 0 21 -8q9 -7 12 -15l1 -6q0 -11 -19 -27q-6 -4 -35 -14l-42 -4l-9 -1q-19 0 -53.5 14.5t-43.5 21.5
q-41 35 -43 94v13q0 42 14 87l15 46l22 25q58 65 126 68zM146 519l28 24q18 20 29 26l12 8l48 20q52 23 89 24h6q25 0 70 -10q59 -8 82 -21q60 -30 95 -82l31 -46l28 -66q14 -44 14 -88q0 -102 -61 -181q-25 -30 -84 -69q-86 -63 -146 -75l-24 -3q-16 0 -53 8l-76 15l-29 12
l-18 13l-61 61l-38 64l-9 15q-21 31 -24 111l-2 45q0 20 12 53q27 86 51 107l15 14zM130 397l-17 -57l-1 -11l-3 -38q0 -107 82 -184l22 -25q12 -13 48 -21l23 -7q48 -14 68 -14l23 3q22 4 66 29l68 43l34 25q38 32 61 80q20 47 20 92q0 44 -25 98q-58 112 -149 137l-28 7
l-57 8l-11 -1q-23 -1 -68 -21q-25 -8 -45 -21l-25 -23l-11 -7l-11 -13q-5 -8 -13 -10q-9 -4 -15.5 -15.5t-14.5 -17.5q-10 -10 -15 -25z" />
    <glyph glyph-name="ordfeminine" unicode="&#xaa;" horiz-adv-x="330" 
d="M218 609q5 2 20 2l62 -4l17 1q11 0 16 -9q4 -7 4 -16l-5 -59l-16 -94l-9 -105l-1 -17q-3 -12 -29 -25h-2q-20 0 -22 25l2 15q0 7 -6 7q-4 0 -12 -8l-29 -15q-26 -12 -44 -12l-33 3q-16 0 -30 14q-17 13 -21.5 36.5t-4.5 68.5l2 27q21 132 141 165zM138 437q-4 -12 -4 -35
q0 -47 25 -47l7 1l35 9l8 4l29 24q24 16 30 75l4 41l4 23q0 9 -4 14q-5 8 -24 8q-30 0 -62.5 -26.5t-42.5 -67.5zM132 234l21 1l66 -5l24 -1q47 0 47 -27q0 -26 -27 -33l-11 -1l-60 11l-71 1l-34 -3q-30 0 -30 26q0 29 35 30z" />
    <glyph glyph-name="guillemotleft" unicode="&#xab;" horiz-adv-x="362" 
d="M203 488q10 0 18 -8.5t8 -19.5l-1 -7q-2 -9 -9.5 -16t-12.5 -15q-50 -69 -66 -85t-18 -26v-4q0 -14 19 -48q5 -7 24 -48l19 -32l3 -20q0 -40 -31 -40q-18 0 -33 32q-15 35 -28 53l-28 53q-14 31 -14 42l1 12q3 8 18 29l62 76l48 61q6 8 16 10zM344 463q25 0 25 -25
q0 -9 -5 -16q-13 -20 -49.5 -61t-37.5 -57v-2q0 -11 7 -22t11 -18l14 -31l20 -39l2 -13q0 -29 -23 -39l-9 -2q-16 0 -30.5 26t-34.5 73l-15 33q-10 19 -10 41q3 18 25 40q41 56 69 85l15 16q7 8 18 10z" />
    <glyph glyph-name="logicalnot" unicode="&#xac;" horiz-adv-x="416" 
d="M261 336l18 -1l111 1q33 0 33 -37l-8 -55l-1 -45l-5 -20q-11 -28 -28 -29h-4q-31 0 -31 40l4 42l1 15q0 17 -14 20q-5 2 -19 2l-134 -2l-130 -6q-30 0 -30 27q0 12 8 23.5t19 14.5l22 3l43 -2l51 3l9 2h45z" />
    <glyph glyph-name="uni00AD" unicode="&#xad;" horiz-adv-x="287" 
d="M166 325q35 0 70 -6l13 -1q32 0 32 -24q0 -37 -52 -37l-74 5l-71 -3q-32 0 -32 32q0 14 10 22q8 6 20 7z" />
    <glyph glyph-name="registered" unicode="&#xae;" horiz-adv-x="682" 
d="M318 607l50 6q14 0 23 -3q6 -2 29 -3t41 -11q10 -5 23 -7q21 -2 49 -20l25 -23q69 -61 97 -118l14 -44q3 -6 3 -13t3 -15q9 -26 9 -59q0 -44 -20.5 -100t-56.5 -94l-28 -24l-18 -19q-17 -17 -82 -49l-15 -6q-41 -18 -117 -18q-55 0 -135 20l-19 5l-8 5q-55 31 -91.5 95
t-43.5 155v10l4 64q4 55 25 100l8 15l53 71l14 14q51 38 92 52zM300 546l-36 -7q-19 -3 -34 -14q-41 -23 -79 -74q-34 -43 -39 -88l-6 -76q0 -34 11 -65q16 -57 30 -79q26 -43 65.5 -68.5t122.5 -25.5h29l63 5q97 25 172 130q20 31 26 72l2 20l-5 39l-4 19q-10 56 -21 71
l-12 18l-67 78l-11 9l-13 11q-8 7 -17 8q-10 0 -14 3.5t-12 7.5l-52 10q-8 2 -47 2zM358 501q25 0 69 -18q23 -13 33 -31q12 -24 12 -40l-7 -33q-6 -19 -19 -35l-18 -16q-12 -9 -12 -20q0 -4 8 -18q45 -77 53 -113l1 -11q0 -35 -25 -37q-9 0 -23.5 7.5t-19.5 20.5t-14 30
l-19 42l-19 45q-4 6 -20 6q-13 0 -20 -4.5t-7 -25.5l1 -27l-6 -40l-3 -29q-9 -26 -34 -26q-12 0 -22 9q-7 7 -7 30l1 7l23 174l8 59l2 32q3 41 18 52q8 7 20.5 8.5t45.5 1.5zM344 440q-10 -6 -12 -26l-3 -30q-7 -28 -7 -40q0 -22 11 -22l7 2q30 9 43 19q11 8 19.5 27t8.5 36
l-1 11q-3 12 -19 19.5t-31 7.5q-8 0 -16 -4z" />
    <glyph glyph-name="macron" unicode="&#xaf;" horiz-adv-x="453" 
d="M403 612q25 0 25 -26q0 -27 -21 -38q-7 -4 -14 -4l-17 2h-49l-23 -2h-11l-52 3l-36 1l-32 -3q-11 0 -19 4q-19 12 -19 31q0 9 8 19q6 6 25 9h7l114 -1l14 -1l52 2l23 2z" />
    <glyph glyph-name="degree" unicode="&#xb0;" horiz-adv-x="335" 
d="M225 613q37 0 78 -39l20 -15q11 -7 16 -20q8 -14 8 -39q0 -24 -9 -53q-6 -23 -10 -29q-11 -17 -36 -40q-20 -20 -29 -24q-13 -7 -46 -10l-14 -1q-44 0 -80 22.5t-48 59.5l-3 24l4 44l5 28q20 80 133 91zM204 553q-33 -6 -43 -15q-13 -14 -16.5 -30.5t-3.5 -54.5
q0 -10 3 -16q14 -31 59 -31l11 1q30 5 49.5 30t19.5 60q-4 23 -24 40t-45 17z" />
    <glyph glyph-name="plusminus" unicode="&#xb1;" horiz-adv-x="416" 
d="M264 577q28 0 28 -38l-8 -39l-5 -46l-3 -13l-1 -15q0 -9 3 -13q5 -5 13.5 -5t14.5 -1l49 -3l31 2l19 -3q23 -6 28 -20l1 -8q0 -26 -33 -32l-23 -3l-6 -2h-61l-15 1l-14 2q-10 0 -17 -7q-9 -11 -13 -73l-3 -18l-2 -19q-6 -57 -41 -59h-2q-24 0 -24 35l10 76l4 47
q0 12 -2 14q-5 6 -21 6l-20 -1l-56 4q-28 0 -33 2q-13 4 -19 18l-2 11q0 24 34 29l31 1l32 -2l24 -1l12 2l23 2q6 1 10 7q6 8 6 18.5t2 20.5l13 72q0 28 3 35.5t16 12.5l13 3h4zM84 123l14 1l29 -2l107 -3l23 -1l46 1q67 0 84 -15q10 -7 10 -17q0 -16 -16 -25.5t-34 -9.5
l-45 4l-59 -2l-30 3h-102l-18 1l-31 -2l-18 -3q-7 0 -13 3q-15 9 -15 28t14 30l7 4l20 4z" />
    <glyph glyph-name="uni00B2" unicode="&#xb2;" 
d="M228 619q11 0 40 -8q43 -13 43 -88q-3 -33 -18 -64q-14 -28 -37 -54.5t-40 -52.5l-46 -55q-2 -5 -9 -8.5t-7 -9.5q2 -10 19 -10l14 1l60 4l18 2q14 0 22 -10t8 -20q0 -19 -29 -30q-24 -7 -31 -7l-33 1l-66 -2l-57 4q-9 0 -16 6q-12 9 -12 20q0 12 12 24t21 24l50 59
l36 42l18 18l3 5l32 44l9 16q20 40 20 60q0 23 -33 23l-14 -1q-21 -6 -34 -17q-13 -10 -32 -10l-12 2l-11 8q-5 7 -5 17q0 11 8 19l19 19q28 27 90 29z" />
    <glyph glyph-name="uni00B3" unicode="&#xb3;" 
d="M255 419q0 -7 9.5 -21t14.5 -25q6 -20 6 -41q0 -35 -16 -65l-16 -19q-42 -42 -108 -42q-61 0 -73 27q-3 6 -3 11q0 11 10.5 19t28.5 8l46 -2q73 0 73 68q0 23 -19 36.5t-52 13.5l-21 -1q-19 0 -22 13l-1 6l1 7q0 28 46.5 28t67.5 27q13 13 16 31l1 8q0 19 -17.5 32.5
t-35.5 13.5q-8 0 -14 -3l-29 -16l-10 -3l-7 -1q-23 0 -23 22q0 27 47 51l24 11l25 3q36 0 67 -21.5t36 -49.5q2 -5 2 -20q0 -42 -43 -90q-9 -10 -10 -14z" />
    <glyph glyph-name="acute" unicode="&#xb4;" horiz-adv-x="453" 
d="M373 665l6 1q14 0 24 -10.5t10 -23.5q0 -12 -8 -20q-9 -10 -25 -15.5t-27 -10.5l-90 -57l-9 -2h-3q-14 0 -24 9.5t-10 22.5t9 21l10 8l21 10l83 52q19 12 33 15z" />
    <glyph glyph-name="uni00B5" unicode="&#xb5;" horiz-adv-x="473" 
d="M342 42l-3 12l-2 2h-2q-4 0 -11.5 -7.5t-13.5 -9.5l-13 -8l-29 -21q-45 -20 -83 -20q-20 0 -43 9l-7 1l-3 -1q-5 -3 -5 -18.5t-2 -23.5l-19 -94l-1 -32q-2 -47 -40 -47q-31 2 -31 49l5 37l13 77l1 32l12 93l8 97l18 119l9 115l4 15l6 35q8 28 39 31h2q19 0 27 -23l3 -31
l-2 -45q-1 -19 -8.5 -42.5t-14.5 -76.5t-7 -107l1 -13l3 -44l6 -18q6 -18 14 -22q9 -4 20 -4l13 1q46 7 86 54q19 19 36 49l8 33l3 26l3 80q2 23 9 46t8 46q0 82 47 82l16 -4q13 -8 13 -40l-3 -39l-23 -145l-8 -112l1 -15l9 -53l8 -11q5 0 8.5 -2.5t8.5 -2.5l9 1
q19 0 23 -19v-4q0 -20 -18.5 -30.5t-38.5 -10.5l-15 2q-33 10 -54 52z" />
    <glyph glyph-name="paragraph" unicode="&#xb6;" horiz-adv-x="527" 
d="M321 608l8 -1q15 -2 22 -13q7 -12 7 -29l-6 -16l-9 -57l-2 -84l-8 -39l-2 -29l-14 -81l-1 -17l-6 -21l-1 -33l-14 -104l-3 -49l-7 -46l-3 -50q-2 -58 -17 -72.5t-32 -17.5h-2q-25 0 -30 28l-1 8l10 51l19 168l1 29l11 64l1 25q0 17 -13 21l-33 6q-63 20 -90 49
q-13 13 -26 42q-13 32 -16 49l-1 16l2 27q1 21 8 46q9 30 40 58q44 44 121 55l66 15zM465 602l18 -1l29 -1l26 3l7 -1q14 -4 19 -21v-4q0 -25 -25 -33l-33 -10q-15 -5 -21 -20l-15 -95l-14 -96l-9 -105l-8 -52l-4 -43l-9 -80q-5 -46 -35 -49h-3q-14 0 -23.5 11.5t-9.5 25.5
l4 61q9 28 9 50t8 59l5 29l1 59l20 162l10 59l1 46q1 39 27 44z" />
    <glyph glyph-name="periodcentered" unicode="&#xb7;" horiz-adv-x="205" 
d="M113 344l11 2q18 0 32.5 -14.5t15.5 -33.5q0 -44 -44 -55l-8 -1l-10 1q-17 3 -22 7q-8 7 -13 28l-1 26q2 12 14 24.5t25 15.5z" />
    <glyph glyph-name="cedilla" unicode="&#xb8;" horiz-adv-x="453" 
d="M188 -45l13 2q15 0 31 -9q15 -6 20 -10q13 -11 13 -35l-1 -10q-2 -17 -10 -27l-17 -21q-46 -51 -92 -54h-2q-9 0 -15.5 7t-6.5 16q0 7 4 11q6 8 30 17q26 14 40 30l10 11q5 5 5 12q-2 9 -14 9q-10 -1 -18 -5t-17 -4l-6 1q-15 4 -15 18q0 13 10 21l15 9z" />
    <glyph glyph-name="uni00B9" unicode="&#xb9;" horiz-adv-x="227" 
d="M165 613l9 1q23 0 34 -20l2 -5l2 -17v-6l-10 -92l-2 -35l-12 -67l-9 -92l-3 -26q-3 -47 -27 -51h-5l-12 2q-18 7 -21 11q-6 6 -6 21l9 50l10 97l8 37l3 13l8 105q0 7 -10 7l-22 -4l-27 -6q-12 -6 -24 -6l-6 1q-12 4 -12 16q0 14 16 25q7 6 38 17q47 19 69 24z" />
    <glyph glyph-name="ordmasculine" unicode="&#xba;" horiz-adv-x="332" 
d="M215 612q22 0 62 -10q12 -5 32 -28l5 -8l5 -18l16 -45l1 -45l-1 -10l-8 -30q-13 -43 -23 -61q-41 -59 -109 -61h-16q-35 0 -65 33t-34 75l-1 25q0 49 17 87l27 40q31 44 65 53zM200 552q-24 -9 -39 -40q-20 -38 -20 -76q0 -21 5 -36q13 -34 29 -44q6 -3 14 -3q13 0 30 5
q30 10 44.5 43t14.5 68l-1 16q-3 23 -17 42q-17 20 -29 22q-10 4 -22 4zM164 240l7 1l22 -2q75 -1 89 -9q16 -10 16 -28q0 -21 -18 -25q-5 -2 -21 -2l-64 6l-61 1l-13 -1l-44 -7q-9 0 -16 4q-11 7 -11 22q0 17 14 27l17 7l43 5z" />
    <glyph glyph-name="guillemotright" unicode="&#xbb;" horiz-adv-x="362" 
d="M255 484q16 0 25.5 -24t12.5 -28l51 -92l11 -23l1 -13q-2 -19 -44 -66.5t-48 -58.5q-21 -37 -43 -39h-5q-24 0 -24 25l1 8q5 25 45.5 67.5t44.5 64.5v4l-1 8l-33 78l-14 24l-6 21q-2 4 -2 14q0 25 20 29zM107 452q18 0 29 -15l20 -28q41 -66 44 -86l1 -9q0 -32 -45 -81
l-18 -23l-28 -38l-14 -15q-9 -10 -23 -10q-25 0 -25 26q0 21 40 65l31 37l12 16q7 9 7 17l-1 8l-11 21l-23 41l-25 33q-2 3 -2 11q0 25 24 29z" />
    <glyph glyph-name="onequarter" unicode="&#xbc;" horiz-adv-x="697" 
d="M662 177l6 -1l6 -4q17 -14 17 -31q0 -14 -13 -21q-6 -3 -14 -3l-33 1q-20 0 -22 -14.5t-3 -16.5q-2 -6 -3 -34.5t-7.5 -42t-22.5 -14.5l-6 -1l-9 2q-14 5 -14 26l3 24l8 55q0 12 -10 14l-22 1l-45 -1q-64 0 -67 26v6q0 19 26 51t52.5 72t53.5 70q15 18 41 35t41 17
q23 -2 23 -30l-1 -15l-9 -53l-11 -100l1 -12q1 -7 13 -7zM531 616q12 0 22 -6.5t10 -17.5l-1 -5q-2 -9 -9 -15.5t-13 -15.5l-169 -266l-78 -113l-99 -172q-6 -15 -24 -20l-8 -1q-14 0 -22 10.5t-8 24.5l1 10q3 8 26 41l69 121l73 106l32 54l95 138l16 28q17 37 37 57
q20 32 38 40zM173 607l13 1q14 -3 19 -10t7 -27v-1l-8 -53l1 -11l-3 -29l-1 -9l-5 -16l-4 -42q-5 -89 -19 -139l-2 -7l-1 -29q-6 -37 -30 -41h-6q-27 0 -27 38l2 21q13 59 13 111l7 30l4 64l11 73q-1 14 -3 15.5t-10 1.5l-5 -1l-25 -3q-14 0 -23 9q-6 7 -6 14q0 9 16 19.5
t40 14.5zM575 297q-9 -2 -35 -33t-43 -59l-14 -21l-1 -5l1 -4q2 -4 11 -4l35 -1q25 0 31 6q6 7 9 33l11 82q0 6 -5 6z" />
    <glyph glyph-name="onehalf" unicode="&#xbd;" horiz-adv-x="731" 
d="M607 413q10 0 20 -4q34 -8 48 -19q33 -29 33 -86l-1 -16q-9 -56 -59 -113l-35 -38l-44 -55q-14 -9 -14 -20q0 -6 11 -6l104 9q18 0 26 -8q6 -8 6 -15q0 -21 -28 -34q-20 -9 -51 -10t-61 -6l-45 -3l-11 -1q-18 0 -25.5 5.5t-9.5 6.5l-16 13q-3 4 -3 9q0 13 13 27l21 23
q21 30 71 84.5t65 83.5l17 35q7 21 7 26q0 18 -17.5 33.5t-36.5 15.5l-8 -1q-11 -3 -32 -14t-34 -11q-22 0 -22 26q0 21 23 31l15 8q36 20 70 24h3zM505 485l-19 -28l-42 -65q-16 -20 -28 -43t-28 -43l-24 -29l-80 -119l-31 -47l-31 -61q-31 -62 -51 -67l-11 -1
q-30 0 -30 25l1 9l5 18l46 80l43 66l42 73l71 92l97 153l67 98q14 21 36 21q21 0 27 -15l2 -10q0 -9 -16 -31l-31 -50zM125 544l-36 -6q-28 0 -28 26q2 22 25 29l46 10l57 5q13 0 17 -12l3 -24l-5 -59l-9 -40l-4 -77l-3 -17l-1 -16l-4 -40l-6 -42l-3 -36q-1 -16 -12.5 -30
t-27.5 -14q-10 0 -17 5q-14 9 -14 27l4 28l6 43l4 59l5 33l7 49l9 86q0 10 -3 12z" />
    <glyph glyph-name="threequarters" unicode="&#xbe;" horiz-adv-x="739" 
d="M637 396q4 2 17 2q31 0 35 -23v-6l-5 -37l-4 -22l-11 -95l1 -15q3 -14 22 -14l18 1q24 0 27 -18v-3q0 -24 -18 -35l-6 -2l-23 -1q-24 -2 -30 -11l-2 -5l-2 -19l-2 -36q-4 -54 -37 -63l-9 -1q-16 0 -21 22l-1 7l2 16l5 46l2 17q0 11 -6 16q-5 3 -13 3l-31 -3l-53 -4
q-25 0 -38 18q-6 7 -6 19l1 10q7 34 164 219q11 13 24 17zM572 612q11 0 21.5 -6t10.5 -18l-1 -5q-2 -12 -11 -22t-16 -20l-25 -50l-61 -92l-36 -54l-22 -44l-19 -27l-43 -71l-52 -77l-44 -73l-8 -20q-14 -44 -45 -46h-3q-14 0 -23.5 12t-9.5 28l3 9l12 21l35 59l50 87
l27 34l24 40l35 49l24 47l63 108q13 25 69 99l14 17q13 15 31 15zM135 604q11 4 26 4l13 -1q62 -6 84 -32q13 -13 13 -44l-6 -46q-4 -14 -14.5 -25t-18.5 -22q-2 -5 -11.5 -9.5t-9.5 -9.5t18.5 -22t24.5 -38l3 -21q0 -41 -27 -79t-62 -45q-16 -4 -78 -7q-21 0 -43 10
q-19 9 -19 33q0 14 10 23q5 5 13 5q9 0 17.5 -5.5t18.5 -6.5h6l30 2q43 2 55.5 18t12.5 50q-5 44 -45 45l-43 7q-26 5 -26 24l1 7q5 13 19 15l54 12q29 7 37 13.5t19 23.5q5 10 5 21l-1 10q-6 34 -57 34l-18 -2l-31 -17l-10 -3l-7 -1q-10 0 -20 8t-10 20q0 15 19 27
q31 18 58 24zM616 291q-13 0 -54 -56l-14 -21q-17 -21 -17 -33q2 -6 17 -9h6q44 0 49 13q6 12 8 50l9 49q0 5 -3 7h-1z" />
    <glyph glyph-name="questiondown" unicode="&#xbf;" horiz-adv-x="319" 
d="M213 324q31 0 44 -32q18 -58 18 -77l-3 -21q-15 -38 -67 -76l-53 -34l-45 -30q-33 -24 -35 -63q0 -9 11 -31q6 -14 18 -21q20 -14 40 -14q19 0 63 18q14 7 29 7q29 0 36 -22l2 -13q0 -27 -45 -42l-17 -6l-33 -7q-28 -7 -50 -7q-17 0 -32 4q-60 21 -91 84l-10 27v6l1 22
l3 30q7 41 65 77.5t83 55.5t42 38q15 20 15 41q-1 13 -9.5 30t-8.5 31q0 13 13 20l13 5h3zM221 477q30 0 51 -19q8 -8 8 -41q-2 -26 -37 -39l-17 -3q-19 0 -30.5 15t-13.5 35l-1 13q0 28 22 36z" />
    <glyph glyph-name="Agrave" unicode="&#xc0;" horiz-adv-x="486" 
d="M288 604q6 3 17 3q39 0 50 -20l4 -12l5 -42l10 -82l19 -85l30 -136l13 -66l6 -32q13 -42 13 -83q0 -65 -37 -65q-18 0 -30 23l-5 16l-30 150l-2 17q-4 28 -17 30l-6 1l-27 -3l-51 1l-26 -4l-31 -2q-13 -1 -21 -10q-17 -16 -26 -42l-16 -43q-4 -11 -25 -47l-13 -28
q-27 -40 -53 -40l-9 2q-20 8 -20 35l2 13l4 13l28 47l37 87l8 14l21 34l12 34l77 161l27 62q36 85 62 99zM294 498q-6 -3 -9 -13.5t-4 -13.5l-31 -70l-29 -55l-10 -28q-9 -18 -9 -27q1 -5 10 -5l19 2l52 2l10 -1h16q13 0 21 3q7 3 7 13q0 13 -6 25l-24 122l-4 39l-6 7h-3z
M241 773q12 0 36 -15l59 -38l22 -21q10 -10 10 -26t-15 -23l-8 -1q-13 0 -28 10q-8 4 -12 10.5t-10 11.5q-16 12 -36 20.5t-34 22.5q-9 10 -9 25q0 18 14 22z" />
    <glyph glyph-name="Aacute" unicode="&#xc1;" horiz-adv-x="486" 
d="M290 598l20 -3l20 -4l6 -3q17 -9 22 -36l33 -190l12 -52l13 -59l40 -157l7 -37q6 -15 6 -26q-4 -28 -35 -33h-3q-39 0 -50 62l-25 100l-6 23q-5 23 -28 23l-46 -7l-41 -1l-13 1l-27 3q-13 0 -22 -5q-12 -7 -18 -24.5t-11 -30.5l-33 -75l-16 -43q-14 -34 -47 -34
q-15 0 -25 11t-10 25q0 13 12 37l37 84l37 91l40 75l45 105l39 86l21 45q23 46 43 49h3zM214 321l-11 -31q-5 -10 -5 -14l1 -4q4 -5 14 -5l21 1l19 -1q29 0 57 7l13 2q9 0 13 6l1 4l-3 14l-11 35l-19 103l-3 30q-1 16 -7 16t-23 -42zM398 760l6 1q12 0 20.5 -9t8.5 -20
t-7 -20q-3 -4 -16 -12l-54 -29l-14 -11q-29 -25 -61 -30h-3q-10 0 -18 7.5t-8 17.5q0 14 20 24l9 7l32 21l42 27l30 22z" />
    <glyph glyph-name="Acircumflex" unicode="&#xc2;" horiz-adv-x="486" 
d="M314 606q16 0 27.5 -15.5t21.5 -61.5q5 -17 5 -26l14 -88l5 -24l16 -74l9 -31q19 -58 29 -124l22 -97l2 -25q0 -39 -30 -48l-13 -2q-30 0 -42 59l-14 96q-9 58 -21 76q-6 7 -23 7l-34 -4l-39 -3l-17 -2l-32 -5l-21 -2l-6 -3q-9 -5 -14 -19l-9 -23l-12 -29l-4 -19l-25 -44
l-15 -38q-15 -47 -55 -47q-34 0 -34 37l3 11l15 29l59 140l44 81l17 42l18 29l16 46l37 71l19 42q9 20 32.5 51t38.5 36zM324 748q12 0 21 -7l23 -21q44 -34 53 -47q6 -6 6 -16q0 -20 -17 -26l-7 -1q-10 0 -18 7l-18 16l-26 22l-8 10q-5 7 -11 8h-1q-7 0 -14 -6l-11 -9
l-29 -15l-18 -17q-11 -13 -26 -13q-21 2 -21 26q0 10 6 18l20 16q28 22 55 36q18 13 30 17zM289 467q-16 0 -69 -128l-15 -28l-2 -10q0 -6 2 -9q3 -4 10 -4q29 0 80 9l18 2l5 4q3 4 3 11l-19 88l-8 56q-2 9 -5 9z" />
    <glyph glyph-name="Atilde" unicode="&#xc3;" horiz-adv-x="486" 
d="M300 607q45 0 60 -69l64 -322l16 -62l10 -54l11 -33l8 -46q0 -23 -25 -30l-12 -1q-34 0 -49 36l-25 101l-3 25q-3 25 -28 28l-51 2l-38 3l-42 -2l-25 -3l-7 -4q-14 -10 -20 -26l-11 -28q-13 -39 -31 -71l-9 -19q-18 -39 -42 -39q-7 0 -14 3q-13 6 -14 9q-11 10 -11 25
l1 9l3 9l16 26q24 40 86 203l16 36l28 49l11 25l44 111q17 47 43 84q11 18 33 24zM293 484q-11 0 -36 -66l-34 -90l-15 -43q-5 -10 -5 -16l1 -5q2 -3 10 -3l33 -1l66 3l15 -2q5 0 8 4l1 4l-3 13l-4 36l-29 157q-1 9 -8 9zM277 723q27 0 54 -20l10 -10q7 -9 14 -10q15 0 23 8
q17 14 27 14l8 -1q16 -6 16 -22t-26 -33t-42 -20l-8 -1q-20 0 -47 22l-14 13q-6 6 -16 6q-11 0 -21.5 -17t-16 -20t-14.5 -3q-19 3 -19 34l9 17q22 38 56 42z" />
    <glyph glyph-name="Adieresis" unicode="&#xc4;" horiz-adv-x="486" 
d="M300 615q7 3 15 3q37 0 47 -72l26 -141l7 -23l4 -42l48 -229l4 -35l12 -37l2 -16q0 -28 -25 -40l-16 -3q-26 0 -32 18l-5 27l-32 138l-6 24q-3 13 -16 16l-15 2l-34 -3l-12 -1l-45 2q-15 0 -24 -3l-27 -4q-21 -4 -40 -55l-13 -35l-10 -18l-15 -48q-4 -12 -19.5 -24
t-31.5 -12q-29 0 -29 38l14 39l9 30l9 24l8 19l15 29l20 54l45 85l61 135l26 45l37 76q13 25 38 37zM262 432q-62 -107 -62 -158q1 -5 14 -5l79 11h20q13 0 18 7q2 3 2 8l-7 30l-15 80l-15 67q-2 2 -2 5.5t-3 3.5q-4 0 -5.5 -4.5t-3.5 -7.5zM235 731q7 3 15 3q17 0 32 -16
t15 -28q-2 -13 -11 -24q-7 -11 -16 -15q-3 -2 -13 -2q-15 0 -29 10t-19 24l-1 9q0 13 8 24.5t19 14.5zM387 729q36 0 36 -36q0 -15 -10 -28.5t-28 -15.5h-2q-17 0 -27 12.5t-10 28.5q0 9 5 19q8 17 34 20h2z" />
    <glyph glyph-name="Aring" unicode="&#xc5;" horiz-adv-x="486" 
d="M301 601q22 0 35 -13l13 -22q4 -6 9 -28l6 -20l8 -30q8 -20 14 -71l15 -69l13 -56l34 -180l7 -33l4 -24l5 -28q0 -23 -28 -37l-14 -4h-4q-17 0 -22.5 13.5t-8.5 30.5l-17 67q-4 69 -29 72l-15 1l-26 2l-40 -2q-54 0 -82 -4l-28 -5q-8 -5 -12 -15.5t-9 -18.5
q-26 -63 -32 -101l-2 -15q-6 -20 -40 -20q-12 0 -17 5q-13 15 -13 50q4 37 34 105l50 120l23 42q42 106 87 184l40 75q5 10 17 19.5t25 9.5zM288 489q-5 -1 -6.5 -5.5t-3.5 -7.5l-18 -35l-58 -141l-15 -34l-2 -13l1 -6q3 -8 33 -8l105 3q14 3 14 18l-4 29l-9 59
q-15 67 -17 87l-12 41q-4 13 -8 13zM322 783q41 0 53 -21l6 -8l14 -17l4 -10l2 -11l-2 -16q-5 -32 -27 -57t-50 -27h-5l-29 7q-40 19 -51 45q-5 11 -5 27q0 31 20.5 57t52.5 30zM317 738q-27 -6 -32 -24l-3 -15q0 -13 8.5 -22t22.5 -9l12 2q28 5 32 29l1 11q0 31 -28 31z
" />
    <glyph glyph-name="AE" unicode="&#xc6;" horiz-adv-x="701" 
d="M597 600l12 1l24 -2h34q50 0 50 -40q0 -12 -25 -22l-31 -4l-53 2l-34 -2l-22 1q-27 0 -35 -10q-4 -4 -4.5 -10t-2.5 -11l-8 -41l-10 -54l-4 -44q0 -11 3 -18q2 -6 13 -6l34 6l78 6q20 0 37 -5q26 -7 26 -27v-7q-2 -18 -15 -23.5t-27 -7.5l-75 -6l-51 -3l-24 -5
q-11 -3 -16 -11l-3 -8l-1 -25l-12 -105l-3 -13l-1 -15q0 -12 8 -16q7 -3 19 -3l30 3l29 2l49 -1q45 0 45 -35q0 -30 -28 -40l-3 -1l-13 4h-36l-116 -5q-48 0 -56 25l-2 15l2 24l8 75l3 24q0 18 -16 19h-37l-65 5l-22 1l-46 -2l-8 -5l-19 -21l-42 -52l-72 -101l-7 -7
q-10 -10 -25 -10q-17 0 -25.5 11t-8.5 24l2 10q4 8 11 14t37.5 57.5t97.5 123.5q25 27 45.5 62.5t37.5 57.5l60 71l10 20l71 82l13 22l21 18q24 27 33 32l14 5l36 2l15 1l86 -3zM411 455q-10 -3 -19 -16l-107 -128q-26 -30 -26 -48q1 -5 8 -6t24 -1l75 -6l18 -1q8 0 10 2
q4 2 5 8t1 31l5 36l6 60l6 33l2 20l-1 9q-2 7 -7 7z" />
    <glyph glyph-name="Ccedilla" unicode="&#xc7;" horiz-adv-x="476" 
d="M414 618l67 -6l18 -6q13 -4 13 -36l-2 -17q-8 -16 -29 -16l-27 3h-8q-180 0 -224 -55q-39 -46 -55 -84l-15 -38l-8 -33l-8 -66l-1 -38l4 -35q5 -53 31 -79q12 -17 47 -31t67 -14q18 0 38 5q51 16 102 16l9 -1q19 -8 19 -29q0 -7 -5 -14q-7 -11 -28 -24l-18 -7l-86 -19
l-35 -2l-41 2q-16 1 -64 16q-68 23 -93 75q-10 19 -22 76q-6 37 -6 76l4 53l13 61l7 31l15 41q31 85 73 119.5t127 56.5l65 15zM338 -124q-11 -38 -53 -72q-18 -18 -47 -18q-9 1 -15.5 9t-6.5 17q0 13 12.5 16t18.5 6l10 8q26 17 29 35v2q0 15 -9 22q-7 4 -20 3.5t-21 2.5
q-14 8 -14 22q0 16 16 22q12 5 38 5t44.5 -20.5t18.5 -52.5z" />
    <glyph glyph-name="Egrave" unicode="&#xc8;" horiz-adv-x="392" 
d="M296 611l21 -1l45 2q22 0 34 -6q15 -7 15 -23q0 -24 -22 -35q-24 -13 -57 -13l-38 2h-6q-68 0 -79 -9q-12 -11 -12 -25.5t-2 -28.5l-6 -33l-6 -63q0 -9 3 -16q3 -8 34 -8h54l51 3l14 -2q29 -5 29 -30q-6 -40 -91 -40l-53 2h-19q-27 0 -31 -7q-5 -5 -6 -19l-8 -41l-6 -59
l-5 -48l-3 -24q0 -17 8 -22q3 -2 21 -2l40 2l23 2l28 -1l17 1l34 3l19 -3q16 -7 16 -26q0 -35 -40 -43l-31 -4l-67 -3l-17 1l-68 1l-36 -4q-20 0 -30 17q-4 8 -4 17l4 27l4 52l11 52l7 87l7 42l6 44l3 26l23 187q0 45 9 54q7 8 18.5 7t21.5 2t19 3l21 -1l27 2l50 2h6z
M203 764q15 0 50 -22l37 -20l23 -19l19 -12q6 -8 6 -15q0 -11 -10 -20.5t-21 -11.5h-3q-10 0 -17 6.5t-19 13.5l-67 38l-22 11l-5 5q-7 8 -7 18q0 11 9 19t22 9h5z" />
    <glyph glyph-name="Eacute" unicode="&#xc9;" horiz-adv-x="392" 
d="M242 606l85 6l38 -4l27 -2q20 -4 20 -21q0 -13 -13 -26q-23 -21 -61 -21l-18 2l-30 2l-28 2l-45 -1q-19 0 -24 -7l-2 -8l1 -14l-2 -72l-2 -27q-5 -17 -5 -29l1 -10q4 -9 23 -9l25 1l29 -3l36 1l46 -3l15 -4q17 -8 17 -28l-2 -12q-12 -28 -43 -28l-33 3l-34 2l-15 1
l-20 -1l-21 1q-22 0 -32 -13q-7 -8 -7 -34t-3 -33q-5 -14 -5.5 -28.5t-4.5 -28.5l-6 -59l-1 -16q0 -19 27 -19l26 1l68 -4l11 1l42 5q12 0 27 -6q17 -8 17 -25q0 -30 -31 -43l-8 -1l-16 1l-14 -1l-28 1l-31 -3l-54 3l-44 -1l-11 2l-34 2q-21 0 -31 15q-6 10 -6 25l15 124
l26 174l5 29l2 28l9 44l6 92q3 46 15 65q8 15 29 15zM374 777l8 1q12 0 19.5 -9.5t7.5 -21.5t-7 -20l-8 -8l-68 -38l-29 -13q-23 -13 -40 -16l-14 -2q-9 0 -13 3q-14 6 -14 23q0 12 9 21l23 12l46 21l52 30z" />
    <glyph glyph-name="Ecircumflex" unicode="&#xca;" horiz-adv-x="392" 
d="M205 606l33 -1l67 -2l16 1l52 4l7 -1q24 -7 24 -30q0 -13 -7 -21q-15 -21 -39 -21l-51 1l-62 -3l-23 3l-9 -2q-8 -3 -10 -15l-12 -82l-6 -44l1 -12q2 -21 19 -22l20 -1l45 -3l58 1q17 0 28.5 -4t13.5 -23l-1 -13q-5 -17 -35 -28q-18 -6 -80 -6l-9 1l-54 2q-11 0 -18 -8
q-8 -10 -8.5 -23t-2.5 -24q-12 -81 -13 -108l-1 -19q0 -23 14 -29l18 -3l35 4h11l51 -1l10 1l34 3q12 0 20 -4q16 -7 16 -25q0 -29 -23 -41q-15 -7 -69 -7l-142 -6l-25 2q-49 3 -49 28l1 12l9 31l22 135l16 162l12 57l6 26l5 67l12 65q8 28 43 28zM300 760q8 0 26 -10
q18 -11 49 -42l12 -13l12 -14q4 -5 4 -14q0 -19 -19 -25l-8 -1q-13 0 -27 14q-18 23 -39 38q-8 8 -15 10h-2q-8 0 -15 -7.5t-12 -11.5l-28 -21l-18 -14l-16 -2l-10 1q-16 2 -16 19q0 18 39 41l35 22q28 24 40 29z" />
    <glyph glyph-name="Edieresis" unicode="&#xcb;" horiz-adv-x="392" 
d="M228 608l52 -4l63 3q26 0 46 -7q19 -8 19 -29q0 -18 -12 -28q-14 -11 -30 -11l-18 2l-37 3l-35 -3l-38 3q-19 0 -27 -8q-11 -10 -13 -24l-10 -65l-6 -91l1 -6q3 -11 16 -11t23 -2l55 -3l11 1l43 1q29 -4 29 -30l-3 -18q-8 -23 -41 -23l-43 2l-43 -1l-9 1l-31 5
q-14 0 -19 -8l-3 -6l-10 -66l-7 -37l-2 -71q0 -14 22 -14l17 -1h10q36 0 83 7l32 4q13 0 21 -4q16 -9 16 -24q0 -13 -10 -25.5t-23 -17.5l-23 -3l-36 1l-148 -7l-22 1q-31 3 -31 36l1 13l18 132l13 65l12 113l8 44l4 66l8 36l1 13l-7 54q0 9 3 15q8 19 41 22l22 3zM222 735
q16 0 27.5 -12.5t11.5 -33.5q-2 -26 -45 -41l-7 -1q-16 0 -24 26q-3 7 -3 17q0 33 28 43zM359 727l10 1q25 0 29 -23l3 -15l-1 -5l-6 -17q-7 -9 -41 -16h-3q-29 0 -29 37q0 27 20 33z" />
    <glyph glyph-name="Igrave" unicode="&#xcc;" horiz-adv-x="222" 
d="M168 617q14 0 25.5 -11t15.5 -22l3 -22q0 -14 -7 -37l-6 -30l-3 -46l-12 -71l-12 -92l-26 -179l-13 -81q-3 -12 -20.5 -22t-27.5 -10q-29 0 -33 29v6l1 18l12 56l23 130l19 130l13 112l10 100l3 13q11 24 30 28zM107 770q18 0 34 -11l33 -23l28 -14q39 -17 39 -44
q0 -24 -29 -24q-16 0 -35 12l-72 49q-12 5 -16 10q-10 10 -10 23q0 14 14 20z" />
    <glyph glyph-name="Iacute" unicode="&#xcd;" horiz-adv-x="222" 
d="M215 563l-1 -11l-9 -54l-27 -162l-6 -40l-7 -52l-13 -111l-7 -70l-6 -29q-7 -26 -43 -37l-7 -1q-25 0 -30 29l-1 11l6 36l7 109l22 143l18 105l7 43l8 34l8 56q4 34 15 43t25 9t27.5 -8t13.5 -22v-21zM266 771q25 0 29 -21v-2q0 -10 -11 -24q-10 -11 -23.5 -16.5
t-24.5 -12.5l-37 -25q-22 -17 -43 -21h-4q-12 0 -20.5 9t-8.5 20q0 9 7 16q11 12 34.5 24.5t47.5 29.5t45 22z" />
    <glyph glyph-name="Icircumflex" unicode="&#xce;" horiz-adv-x="222" 
d="M177 613q14 0 23.5 -9.5t9.5 -23.5l-6 -28l-2 -29l-3 -10l-7 -41l-3 -27l-5 -63l-4 -28l-16 -86l-4 -69l-11 -73l-9 -77l-7 -28q-12 -29 -44 -34h-2q-11 0 -20.5 8.5t-11.5 19.5l-1 8q0 10 11 50l4 45l11 65l13 131l11 57l9 85l1 28q3 19 9 29q4 8 4 20.5t8 45.5
q7 29 37 34h5zM192 755q11 0 26 -15q49 -37 60 -60l3 -16q0 -22 -16 -26l-8 -1q-17 0 -28 14.5t-22 25.5q-8 13 -18 15h-1q-6 0 -19 -10l-52 -36q-13 -13 -25 -13q-5 0 -9 3q-12 7 -12 22q0 8 5 16q15 19 40.5 33.5t44.5 28.5q16 16 28 19h3z" />
    <glyph glyph-name="Idieresis" unicode="&#xcf;" horiz-adv-x="222" 
d="M176 608q9 0 18.5 -5.5t11.5 -13.5l1 -9l-4 -27l-4 -59l-7 -66l-11 -98l-7 -49l-22 -137l-5 -18l-8 -68l-2 -18q0 -20 -12.5 -31.5t-23.5 -14.5l-6 -1q-11 0 -22 8t-13 18l-1 13l1 17l11 52l22 139l6 73l15 109v25l6 49l5 63q2 37 45 48zM131 727q12 0 21.5 -9t11.5 -22
v-2q0 -14 -13 -31.5t-27 -21.5h-5q-17 0 -29.5 15t-12.5 32l2 11q9 22 46 27zM244 720l22 -5q23 -7 23 -25q0 -16 -25 -41l-13 -9l-9 -1q-13 0 -25 13.5t-14 25.5v2q0 11 12 24t23 15z" />
    <glyph glyph-name="Eth" unicode="&#xd0;" horiz-adv-x="570" 
d="M170 612l27 -3l65 -1q69 0 103 -11q88 -25 142.5 -85t54.5 -134v-16l-3 -36q-10 -97 -68 -173t-137 -102q-8 -2 -16 -8t-16 -8l-80 -25l-66 -12l-16 -2l-55 5q-25 6 -30 12t-5 27l11 60l7 73l11 62l1 21l4 48q-1 9 -29.5 9t-39.5 4.5t-11 28.5q1 13 3 15.5t6 2.5l47 -2
l8 1l19 2q6 2 10 9q2 4 3.5 27t2.5 25l7 35l6 90l3 36q3 16 19 23zM251 541l-24 -3q-19 -3 -19 -21l-2 -14l-4 -68l-3 -17l-4 -30q0 -13 5 -17q4 -4 10 -4.5t31 -0.5q57 0 57 -30q-3 -25 -50 -25l-38 2q-18 0 -25 -15q-9 -23 -8.5 -55.5t-12.5 -90.5l-4 -29l-1 -14
q0 -39 23 -39l70 19l30 12l33 12q163 53 163 261l-2 18l-6 29q-12 35 -25 47l-21 20q-54 41 -116 51l-37 4z" />
    <glyph glyph-name="Ntilde" unicode="&#xd1;" horiz-adv-x="557" 
d="M152 613q7 5 15 5q28 0 41 -18q7 -10 8 -23.5t4 -24.5l24 -68q20 -72 72 -182l43 -84q35 -66 44 -66q7 2 7 10.5t2 15.5l3 30l25 183l5 23l20 125q8 56 41 70q10 5 17 5q6 0 9 -2q15 -8 15 -25l-3 -21l-9 -65l-6 -27l-40 -251q-5 -29 -4.5 -56.5t-7.5 -57.5l-3 -32
q-3 -42 -11 -59q-15 -27 -43 -27q-8 0 -15 4q-6 4 -18 25q-34 49 -46 75l-18 33l-26 56l-59 115l-25 62l-8 20q-16 46 -21 46q-8 0 -10.5 -52.5t-5.5 -65.5l-9 -63q-4 -11 -3.5 -21.5t-2.5 -21.5l-7 -46q-6 -82 -19 -127l-3 -12q-6 -33 -33 -33q-12 0 -22 8t-11 22v3
q0 8 6 26l18 140l7 40l17 181l12 64l1 33l3 18q10 31 12 69q0 9 18 24zM298 731q29 0 55 -21l17 -14q10 -10 24 -11q11 0 18 4l16 16q9 11 21 11q6 0 12 -3q11 -7 11 -19q0 -11 -7 -23q-23 -43 -77 -48h-5q-25 0 -47 20l-18 19q-10 11 -23 11q-6 0 -15 -13q-16 -22 -31 -22
q-6 0 -11 4q-13 9 -13 22q0 28 46 59q10 7 20 8h7z" />
    <glyph glyph-name="Ograve" unicode="&#xd2;" horiz-adv-x="594" 
d="M396 610q39 -3 57 -15l57 -31q12 -8 14 -16t12.5 -18.5t22.5 -43.5q12 -29 18 -66l2 -16l-1 -23l3 -26l-5 -30q-14 -84 -23 -106l-35 -83l-16 -28q-17 -24 -63 -58.5t-64 -42.5q-21 -10 -76 -16l-14 -1q-41 0 -104 30l-37 22q-71 45 -92 148l-6 33l5 37q7 82 14 98
q26 89 100 174q27 34 51 48t77.5 23t70.5 9zM294 530q-47 -12 -78 -55l-19 -25q-69 -97 -69 -219q2 -42 25 -80.5t60 -58.5l27 -11q24 -9 46 -9l15 1l34 6l27 7q18 8 44.5 32.5t30.5 30.5q22 33 38 67q20 52 24 129l-3 27q-3 62 -18 88l-7 17l-3 4q-4 8 -9 12l-25 22
q-37 24 -84 24zM280 765l12 -2l25 -14l61 -39l26 -16l7 -7q12 -12 12 -25q0 -22 -29 -22q-21 0 -37.5 15t-33.5 25l-41 24q-30 12 -30 33q0 23 25 28h3z" />
    <glyph glyph-name="Oacute" unicode="&#xd3;" horiz-adv-x="594" 
d="M376 610l32 -2l16 -4q52 -17 84 -40q28 -17 49 -64q27 -51 29 -96l2 -42l-2 -19q-5 -79 -36.5 -144t-58.5 -98q-32 -42 -88 -76l-43 -19l-33 -9q-15 -5 -82 -5l-10 1q-12 2 -40 15q-59 21 -78 42q-26 26 -45.5 80t-19.5 95q0 28 13 112t38 133q23 43 82 89t111 50z
M156 383l-10 -51q-10 -57 -10 -93q0 -93 51 -140l34 -20q31 -14 88 -14l9 1q9 2 33 14q45 19 66 46q31 39 44 68q25 52 40 120l3 35l1 15q0 56 -19 94l-17 34q-22 28 -52 38q-35 9 -77 9q-40 0 -66 -7.5t-51 -31.5q-40 -39 -60 -99zM444 761l8 1q13 0 22 -7.5t9 -18.5
q0 -16 -25 -28l-12 -7l-112 -61q-9 -5 -20 -5t-17.5 9t-6.5 20q0 12 7 18t19 13t72 37l39 24z" />
    <glyph glyph-name="Ocircumflex" unicode="&#xd4;" horiz-adv-x="594" 
d="M351 617q41 0 104 -29l40 -19l13 -11l27 -34l20 -31l9 -21l13 -57q3 -12 7 -62v-8q0 -53 -20 -122l-14 -39q-32 -80 -94.5 -134.5t-166.5 -63.5h-6l-36 4q-47 7 -89.5 34t-65.5 69q-17 26 -22 59q-12 50 -14 82l-2 45l1 9l2 41q5 65 33 123l19 34q17 29 46 58
q26 24 86 48.5t110 24.5zM316 540l-28 -8q-55 -18 -75 -37q-22 -22 -30 -40q-20 -31 -25 -48l-19 -75l-4 -64l2 -31q9 -67 35 -114q14 -23 42 -39.5t56 -18.5l10 -1l39 5q117 12 161 139l14 59q9 36 9 67l-3 33l-16 65q-7 31 -27 60l-25 27q-40 24 -89 24zM358 746l7 1
q27 0 70 -48l13 -14q9 -11 9 -22q0 -13 -14 -17l-12 -2q-13 0 -20.5 9t-21 22t-21.5 14h-2q-5 0 -20 -9l-27 -20l-18 -17q-6 -5 -20 -5q-17 4 -17 21q0 9 7 20q7 9 49 40l26 21z" />
    <glyph glyph-name="Otilde" unicode="&#xd5;" horiz-adv-x="594" 
d="M301 -13q-66 0 -112 21l-26 16q-48 22 -77 79t-29 148l2 52l9 53q6 32 35 88l17 34q29 55 103 109l11 6l32 10l37 11l45 4l14 -1q85 -9 142 -58q37 -37 48 -74.5t19 -78t8 -76.5l-3 -37l-5 -56l-18 -52q-17 -59 -35 -83l-25 -30q-41 -46 -79 -64q-28 -15 -64 -19zM335 66
q64 3 106.5 68t50.5 146l5 46l-1 14q-3 51 -11 76l-5 27q-4 24 -22 41l-10 11l-9 12l-5 3q-35 31 -89 31q-57 -3 -75 -14q-89 -62 -119 -187l-3 -43q-4 -28 -4 -60l1 -11q6 -65 25 -95l18 -26l12 -11l28 -18l29 -7l36 -4zM323 744q29 0 54 -20l21 -15q9 -6 30 -9
q13 2 23 10.5t22 8.5l10 -2q11 -7 11 -20q0 -12 -7 -25.5t-41 -29.5q-9 -4 -22 -4q-36 0 -65 22l-11 12l-5 3q-17 12 -32 12q-8 0 -15 -7l-12 -11q-10 -10 -23 -10q-10 0 -17 6q-9 6 -9 19q0 23 24 41.5t64 18.5z" />
    <glyph glyph-name="Odieresis" unicode="&#xd6;" horiz-adv-x="594" 
d="M354 616q48 0 113 -29l29 -15q10 -5 29 -27l19 -33q36 -65 36 -179q0 -31 -4 -47l-10 -39l-1 -4q-40 -180 -182 -237q-36 -14 -61 -14h-56q-28 0 -43 5l-44 18q-7 2 -25 14l-28 24q-18 15 -40 53q-7 16 -15 52q-16 52 -16 110q0 26 11 89q47 210 255 256zM327 542
q-75 -15 -121.5 -64.5t-66.5 -179.5l-2 -38q0 -80 33 -133.5t94 -62.5l15 -1l41 4q31 6 40 12q21 8 62 40.5t68 144.5q9 38 9 74l-5 56l-5 37l-18 49q-14 35 -54 50l-30 10l-34 4zM300 735q18 0 27 -12.5t9 -27.5q0 -36 -33 -44l-10 -1l-9 1q-33 5 -33 40q7 38 42 44h7z
M440 733q12 0 28 -20q8 -13 8 -18l-1 -5q-4 -16 -19 -25q-17 -12 -31 -12q-25 0 -30 31l-3 19q5 23 37 28z" />
    <glyph glyph-name="multiply" unicode="&#xd7;" horiz-adv-x="416" 
d="M106 445l15 4q25 0 65 -50l26 -26l10 -11q6 -5 13 -7h2q10 0 20.5 11.5t15.5 16.5l17 17q40 46 69 50h4q12 0 19.5 -9t7.5 -21l-1 -8q-5 -17 -48 -54t-52 -47q-15 -15 -15 -21q1 -11 25 -31q10 -10 14.5 -18.5t29.5 -31.5l11 -13q9 -16 9 -27q0 -26 -27 -26q-15 0 -26 8
l-18 12l-15 16q-19 16 -38 46q-7 11 -15 13h-2q-7 0 -12.5 -9.5t-10.5 -13.5l-75 -67q-12 -11 -25 -14l-6 -1q-13 0 -23.5 9t-10.5 23l2 11q3 7 27 28l48 44q37 35 38 51v3q0 17 -20 34l-29 27l-16 14q-21 17 -21 38q0 20 18 30z" />
    <glyph glyph-name="Oslash" unicode="&#xd8;" horiz-adv-x="594" 
d="M538 654q25 -2 25 -26l-2 -10l-17 -21l-16 -25q-13 -22 -13 -29t6.5 -15t8.5 -13l21 -27l9 -17l15 -42q10 -22 10 -68q0 -49 -8 -86l-19 -65q-27 -74 -82 -131.5t-128 -78.5q-30 -11 -48 -11l-30 -1q-39 2 -63 8l-30 15l-10 2l-4 -1q-8 -3 -13 -13l-33 -61
q-14 -22 -34 -22q-28 4 -28 29q0 12 6 24l18 32l17 31l15 26l2 8v3q0 8 -5 14.5t-8 13.5q-21 35 -31 72q-7 18 -7 52q0 91 7 119q28 151 144 239l15 9q38 19 118 25h5q21 0 69 -14l25 -13l10 -1q9 2 15 11l31 46q10 12 37 12zM461 473q-8 -3 -24 -29l-37 -50l-17 -30
l-17 -21l-38 -55l-40 -78l-24 -38l-35 -62q-9 -15 -9 -27q3 -10 22 -15l56 -7l22 3l29 9q49 16 90 66t68 172l3 30q0 63 -24 102l-4 6q-13 25 -19 25zM139 265q0 -40 10 -73.5t14 -40.5t11 -7q8 0 18 24l54 84l15 32l44 65l11 20l16 36l12 17l18 24l30 47l10 11q6 6 6 13
q0 15 -26 20l-25 2h-9q-89 0 -149 -81.5t-60 -192.5z" />
    <glyph glyph-name="Ugrave" unicode="&#xd9;" horiz-adv-x="570" 
d="M170 628q29 0 34 -40l1 -18l-9 -109l-5 -46l-17 -144l-4 -53v-6l6 -50l8 -27q16 -55 57 -71q11 -4 25 -4q19 0 52 11q30 12 37 19l23 22q16 18 47 112l7 25l11 46l12 83l6 62l2 27l11 96q2 15 15.5 34t28.5 19q25 -4 29.5 -12.5t4.5 -45.5l-2 -23l-8 -54
q-2 -139 -29 -245q-40 -140 -94.5 -193t-155.5 -62l-11 -1q-65 0 -110 47q-20 26 -34 65q-22 57 -22 117l2 60l22 162q13 104 13 162q2 25 39 34zM286 761q9 0 30 -15q67 -45 88 -68q11 -11 11 -22t-15 -16l-13 -2q-12 0 -22 5l-39 28l-40 30l-20 10l-7 6q-7 7 -7 15
q0 17 27 28z" />
    <glyph glyph-name="Uacute" unicode="&#xda;" horiz-adv-x="570" 
d="M161 605q29 0 33 -27l3 -30q0 -34 -17 -130l-14 -145l-1 -35q0 -148 62 -167q18 -5 36 -5q71 0 108 45l9 10q61 88 71 169l10 74l9 47l2 47l10 94q0 39 6 48q6 11 30 11l12 -1q30 -4 30 -46l-17 -155l-25 -156l-11 -39l-20 -48q-45 -90 -81 -123.5t-124 -48.5l-13 -1
l-37 3q-66 0 -101 45l-15 19q-30 44 -30 147l12 190l8 41q8 27 10.5 77t9 66.5t22.5 21.5zM478 763q17 0 17 -26q0 -24 -11 -35q-9 -10 -30.5 -19.5t-77.5 -39.5q-24 -12 -32 -13h-3q-31 0 -31 27q0 23 22 30l14 7l30 20q70 49 102 49z" />
    <glyph glyph-name="Ucircumflex" unicode="&#xdb;" horiz-adv-x="570" 
d="M161 602q37 0 41 -22l1 -9l-6 -31l-6 -62l-3 -43l-20 -144l-1 -6l2 -20l-5 -44l2 -32l-1 -18q0 -39 19 -64.5t32 -28.5q31 -7 50 -7q77 6 117 64.5t58 131.5l15 76l5 49l10 53l3 72l-1 48l2 11q5 19 41 23q12 0 23.5 -7t13.5 -19q2 -5 2 -18l-2 -38l-5 -98l-14 -94
l-10 -54l-21 -79q-31 -105 -85 -148l-39 -25q-32 -17 -52 -20q-19 -4 -80 -8l-11 -1q-24 0 -45 8q-29 8 -45 22q-26 19 -38 42q-13 30 -15 38q-10 44 -10 94q0 52 9 110l12 105l4 36l7 43l5 62l7 27q7 25 34 25zM360 759l12 2q14 0 22.5 -9t17.5 -18q33 -29 53 -63
q3 -6 3 -13q0 -26 -23 -32l-8 -1q-14 0 -22 13q-14 22 -33 41q-11 15 -17 16h-1q-5 0 -10.5 -5t-10.5 -7q-26 -14 -51 -41l-15 -15q-7 -7 -21 -7q-25 4 -25 27q0 14 9 23q20 23 84 67l25 18z" />
    <glyph glyph-name="Udieresis" unicode="&#xdc;" horiz-adv-x="570" 
d="M181 612q26 0 26 -38l-6 -55l-2 -32l-17 -88l-6 -77l-11 -71l-1 -22q0 -37 13 -100q3 -15 18 -31q25 -25 34 -29q12 -6 46 -9h9q44 0 85 36t53 94t15 70l22 96l1 27l11 76l9 85l-4 33l1 9q8 18 37 18q20 0 29 -11t11 -44l-3 -24l1 -6l-2 -23l-11 -93l-4 -29l-8 -56
l-34 -158l-17 -44q-37 -70 -98 -108q-28 -20 -92 -25l-15 -1q-69 0 -123 47t-59 117l-3 51l-1 27l3 49l13 106l7 38l19 118q6 43 18 64q6 10 26 12zM411 731q17 0 35 -14.5t20 -31.5v-2q0 -11 -14 -25q-6 -10 -17 -11q-8 -3 -19 -3q-42 0 -42 42q0 15 8 28t22 16zM274 730
q14 0 28 -19.5t17 -26.5l1 -7q0 -24 -30 -35l-10 -1q-18 0 -35 13t-17 32l1 7q4 26 36 35z" />
    <glyph glyph-name="Yacute" unicode="&#xdd;" horiz-adv-x="423" 
d="M85 618q24 0 41 -12q6 -4 9.5 -13t17.5 -33.5t27.5 -65.5t26.5 -61.5t19 -36.5l5 -10l4 -3l3 -1q6 0 13 11l40 56l25 42l48 63l41 51q13 11 34 11q26 0 39 -17q5 -7 5 -15t-5 -16q-7 -10 -20 -20t-28 -31.5t-22 -28.5q-47 -48 -97 -131q-33 -50 -39 -70l-6 -32l-4 -77
l-10 -69l-10 -87q-3 -25 -32 -29l-9 -1q-31 0 -31 49l4 43l12 81l8 108l-2 14l-17 37l-34 85l-36 72q-7 24 -32 59l-16 36q-3 7 -3 15q0 22 22 26zM382 767q12 0 21 -13.5t9 -27.5q0 -12 -7 -19q-13 -16 -63 -38l-11 -5q-22 -10 -48 -33q-7 -6 -17 -7h-1q-11 0 -19.5 9
t-8.5 20q0 22 50 52l30 18l52 40l10 4h3z" />
    <glyph glyph-name="Thorn" unicode="&#xde;" horiz-adv-x="419" 
d="M150 606q5 2 26 2q29 -2 29 -31l-1 -18l-5 -37q0 -11 4 -12l7 -2l19 3l42 2l10 -1q101 -12 139 -76q12 -19 12 -67l-1 -10q-10 -90 -84 -155q-31 -29 -59 -38l-33 -13l-41 -4l-14 -4l-26 -1q-14 0 -20 -5q-7 -8 -7 -39l-1 -15q-6 -91 -54 -91q-28 0 -33 27l-1 14
q0 20 6 41t7 47t16 115l20 164l9 65q5 55 17 111q6 22 17 28zM249 448l-35 -2q-12 -1 -21 -10q-8 -9 -12 -45l-10 -88q-9 -42 -9 -78q0 -11 12 -11l36 2l39 6q48 15 76.5 55.5t28.5 79.5q0 38 -26.5 65t-64.5 27z" />
    <glyph glyph-name="germandbls" unicode="&#xdf;" horiz-adv-x="522" 
d="M79 401q-30 6 -30 39l1 9q2 12 9.5 15t33 3t29.5 23l4 41q5 33 13 56q13 33 32 47l52 33l23 11q15 6 50 9l35 -4l34 -7q13 -2 20.5 -11.5t15.5 -14.5q12 -8 17 -23t12 -28q8 -16 8 -37l-2 -31q-2 -35 -39.5 -81.5t-53.5 -62.5q-23 -23 -23 -39l2 -11q7 -18 24 -28l30 -20
l56 -36q51 -43 64.5 -67t13.5 -59q-4 -64 -45 -99l-14 -9l-33 -11q-44 -18 -93 -18l-31 2l-47 10l-19 3l-6 4q-10 9 -10 21q0 14 10.5 26t24.5 14l9 1l50 -9l23 -1q48 0 78 15t31 37v4q0 41 -62 82t-80 51q-23 12 -36 37q-13 22 -13 51q0 34 19 61l8 10l61 58l28 51
q5 8 5 22q0 25 -15.5 49t-52.5 24l-38 -2q-16 -2 -39.5 -25.5t-26.5 -79.5l-13 -133l-9 -62l-22 -180l-4 -59q0 -70 -47 -70q-20 0 -28 15q-4 8 -4 22l6 86l8 46l16 128q0 22 2 25l4 23l3 35q0 18 -11.5 17.5t-17.5 1.5z" />
    <glyph glyph-name="agrave" unicode="&#xe0;" horiz-adv-x="455" 
d="M332 485l54 -2q23 0 30 -7q6 -7 6 -22l-1 -12l-11 -112l-7 -129l-8 -50v-92l2 -30q0 -11 -4 -19q-8 -20 -39 -25h-4q-36 0 -36 37l3 26q0 13 -8 15q-4 0 -14 -10l-32 -23q-70 -41 -116 -41q-44 0 -70 36t-27 80l-5 57q0 88 51 183t129 118l56 15l38 7h13zM220 381
l-16 -11l-27 -34q-42 -57 -55 -145l-2 -21q0 -25 11 -69l3 -9q9 -25 37 -25l30 6l43 22l40 22l14 11q21 21 24 37l2 22l9 74l1 35l12 97q0 6 -3 9q-4 6 -18 6q-33 0 -62 -11zM332 517q-11 0 -17 5l-40 22l-21 15l-18 14q-31 25 -31 44q0 9 8 16q5 4 13 6l10 1q14 0 35 -16
l34 -27l27 -24q22 -30 22 -43q0 -9 -11 -12z" />
    <glyph glyph-name="aacute" unicode="&#xe1;" horiz-adv-x="455" 
d="M361 -33q-51 0 -52 63q0 16 -1.5 18.5t-5.5 2.5t-24 -16l-53 -35q-24 -14 -62 -14l-25 2q-19 3 -46.5 24.5t-37 55t-9.5 68.5q0 106 38 184t102 118l12 7q72 34 129 34q49 0 73 -13l20 -10q13 -6 17 -17l1 -5q0 -8 -9 -22.5t-17 -60.5l-6 -86l-10 -62l-7 -92l-1 -12
l2 -35l-1 -15v-5l4 -31l-1 -9l-4 -20q-3 -15 -20 -17h-6zM297 407q-68 -10 -120 -68.5t-52 -131.5l-2 -59q0 -50 23 -68q12 -9 25 -10q9 -3 27 -3l38 9q12 6 57 41q9 8 24 41l3 37l5 43l5 51l4 28l7 53l2 20q0 6 -2 9q-9 10 -26 10zM389 650l5 1q14 0 31 -34q5 -7 5 -15
q0 -5 -2 -7q-6 -8 -15.5 -10.5t-17.5 -5.5l-86 -47l-30 -19l-12 -4l-5 -1q-11 0 -20.5 11t-9.5 22q0 10 7 16q6 6 14.5 8t15.5 7l23 17l33 22z" />
    <glyph glyph-name="acircumflex" unicode="&#xe2;" horiz-adv-x="455" 
d="M313 66q-9 0 -38 -13q-64 -29 -88 -31l-34 -3l-31 8q-55 17 -69 86q-5 18 -5 43l6 74q11 88 43 131q33 51 75 80l24 12q43 26 98 26l29 -1l48 -6h21q17 -1 28 -17q8 -12 8 -22l-2 -21l-4 -42l-2 -41l-12 -54l-7 -62l-14 -114l-1 -16l2 -51l-1 -10q-2 -14 -13 -24t-24 -10
t-22 12q-8 12 -8 21l2 33q0 8 -5 11zM132 129q8 -19 12.5 -23.5t12.5 -6.5l28 -3q25 0 63 12l30 12l29 20q6 5 12 30l5 22l1 2l1 15l7 71l2 31l6 22l2 32l3 20q0 10 -8 17q-8 6 -33 6l-56 -6q-39 -9 -69 -47q-41 -65 -48 -101l-4 -33l-3 -39l1 -12zM327 642q14 0 24 -8
q27 -31 29 -37l5 -12l7 -8q25 -25 25 -45q0 -8 -10 -16q-11 -6 -18 -6q-12 0 -21 11q-46 55 -54 57h-1q-7 0 -14 -5l-62 -44q-13 -10 -26 -10q-27 5 -27 26q0 19 59 53l34 20q31 20 43 23z" />
    <glyph glyph-name="atilde" unicode="&#xe3;" horiz-adv-x="455" 
d="M319 84q-9 0 -27 -15q-50 -41 -107 -49l-36 -2l-23 5q-83 20 -83 164l1 12l7 45q6 68 21 96l3 5l12 12l16 23q31 42 89 67t122 25l46 -3l9 -1l27 2q22 0 30 -13q5 -6 5 -17l-13 -74l-6 -50l-3 -68l-9 -67l-5 -87q0 -76 -9 -92q-9 -18 -29 -18q-15 0 -24.5 10.5t-9.5 21.5
l4 46q0 18 -5 21zM298 400l-47 -8l-35 -17l-20 -12q-49 -35 -63 -115q-5 -19 -5 -61q0 -40 9 -58q18 -33 47 -33q24 3 40 11l62 35q12 6 18 15l15 27q3 4 6 24l5 50q0 65 11 99q3 7 3 21q0 25 -24 25zM214 607q11 8 39 8q26 0 54 -21q8 -5 12.5 -12t12.5 -12q7 -6 20 -6
q15 0 21 9l14 17q7 9 19 9l12 -2q2 0 3 -2t3 -3q7 -4 7 -13l-3 -14q-18 -41 -45 -50l-24 -4h-6l-14 1q-16 0 -44 19l-27 23l-14 6l-6 1q-8 0 -12 -4.5t-12 -16.5t-14 -15l-8 -2q-9 0 -16 7t-7 17q0 14 5 24l10 18l11 10z" />
    <glyph glyph-name="adieresis" unicode="&#xe4;" horiz-adv-x="455" 
d="M253 607q12 0 18 -6q11 -10 11 -26q0 -19 -12.5 -36.5t-29.5 -18.5h-4q-8 0 -16 4q-21 9 -24 19q-3 7 -3 14q0 17 13.5 32t30.5 17zM376 602q52 0 52 -32q0 -12 -12.5 -28t-29.5 -17h-5l-12 1q-29 10 -29 35q0 14 10 26.5t26 14.5zM319 25l-6 35q-3 12 -8 12q-4 0 -16 -8
q-88 -57 -137 -57q-39 0 -67.5 31t-37.5 89l-3 70q2 40 19 95.5t36 83.5q51 72 145 95l19 4l52 2h10l22 -2q63 -12 77 -38l2 -10l-5 -25l-9 -82l-16 -115q-5 -45 -5 -135l3 -40q0 -15 -5 -25q-12 -26 -35 -26q-19 0 -27 22zM313 407q-76 -6 -104 -22q-11 -6 -24 -21
q-24 -26 -35 -58l-20 -61q-6 -21 -6 -49q0 -38 9.5 -73t36.5 -37h9q30 0 40 6l41 18l17 10l19 18q16 10 20.5 42.5t6.5 38.5l6 73l10 76l3 19l-2 9q-6 11 -27 11z" />
    <glyph glyph-name="aring" unicode="&#xe5;" horiz-adv-x="455" 
d="M305 476l20 -2l52 -10q30 -6 44 -28q4 -8 4 -20l-5 -46l-6 -49l-13 -105l-8 -42l-10 -83v-41l-3 -20q-5 -36 -32 -38h-4q-19 0 -24 12.5t-6 27.5q0 28 -6 28t-17 -11q-11 -7 -20 -17.5t-20 -16.5q-8 -6 -29 -11q-15 -7 -46 -12l-12 -1l-12 1q-44 4 -69.5 34.5
t-31.5 104.5l-4 52l3 33l9 40q41 214 220 219zM344 388q-5 12 -56 12q-53 0 -93 -30q-35 -28 -52 -99q-20 -65 -20 -108l1 -8q8 -64 26 -79q9 -9 25 -9l22 3q18 3 23 6l22 8l8 5q32 25 50 44q6 5 9 19t6 22l5 21q2 24 9 46l5 23l12 113zM308 658q5 0 30 -7l12 -4
q36 -11 36 -56l-3 -21l-11 -19l-14 -25q-8 -13 -21 -16l-7 -1l-16 2l-31 2l-11 4q-39 21 -39 68q0 25 13 44t56 29h6zM287 605q-6 -3 -6 -19l1 -10l2 -11q1 -4 5 -6l2 -2l7 -2q3 -2 13 -2q20 0 28 18l5 6l1 3l3 14l-3 9q-1 5 -10 9l-13 7h-6q-13 0 -25 -10z" />
    <glyph glyph-name="ae" unicode="&#xe6;" horiz-adv-x="651" 
d="M545 479q40 0 78.5 -29t38.5 -77q0 -50 -28 -80l-17 -22l-32 -24l-27 -12q-44 -18 -74 -23l-10 -1l-41 4q-11 0 -23 -5q-6 -3 -9 -16q-4 -11 -4 -28q0 -32 16.5 -65t44.5 -43q9 -4 21 -4q30 0 54 10.5t37 10.5q16 0 27 -15q4 -5 4 -13q0 -12 -9 -23q-34 -37 -111 -37
l-27 1q-49 5 -88 53l-5 7q-5 9 -10 10q-5 0 -10 -5t-9 -7l-20 -12q-51 -34 -80 -40q-8 -2 -66 -2q-31 0 -56 16q-37 21 -46 59q-17 69 -17 96l2 38q5 75 31.5 139t79.5 99.5t190 35.5l24 -1q19 0 24 -2q9 -2 9.5 -8.5t3.5 -13t3 -14.5t4 -10h1q4 0 21.5 13.5t20.5 14.5
q47 22 76 25h8zM295 402l-52 -12q-25 -6 -49 -23q-24 -14 -38 -55l-11 -24l-15 -44q-5 -20 -5 -64l2 -17l5 -39q3 -25 20.5 -43.5t43.5 -18.5q12 0 26 4q83 17 104 65q4 8 4 23l-4 52l14 146l3 26q0 7 -3 13q-5 12 -32 12zM547 410q-35 0 -72 -25.5t-51 -57.5l-12 -29l-1 -9
q0 -6 3 -9q11 -8 17 -8l61 3q33 3 67 34t34 59q0 11 -6 19l-17 13q-13 9 -23 10z" />
    <glyph glyph-name="ccedilla" unicode="&#xe7;" horiz-adv-x="371" 
d="M303 479q41 0 55 -7l15 -8q19 -7 19 -27q0 -16 -10 -27t-24 -11l-32 4h-15q-42 0 -74 -13q-77 -29 -106 -128l-3 -18l3 -67q3 -59 18 -85q25 -37 64 -37q19 0 60 10.5t52 10.5q16 0 25 -10q4 -4 4 -10q0 -12 -22 -30t-33 -23l-25 -7l-18 -7q-11 -4 -22 -4l-44 6
q-81 8 -109 50q-20 29 -28 89l-3 33l-2 33q0 17 12 68l16 59q19 49 47 78q6 8 28 22l17 17q33 25 102 36zM220 -39q21 0 36 -15.5t15 -32.5q0 -39 -39 -75q-14 -17 -26 -18l-5 -1q-9 0 -15 6.5t-6 15.5l1 8q3 10 20 24.5t18 25.5v3q0 12 -15 12t-19 4q-4 3 -5 11l-2 13
q2 10 31 18z" />
    <glyph glyph-name="egrave" unicode="&#xe8;" horiz-adv-x="380" 
d="M258 484q62 0 101 -36q30 -24 30 -66q0 -36 -22 -74.5t-60.5 -56t-76 -20.5t-71.5 -10l-26 -2l-8 -4q-8 -7 -8 -19l3 -24q4 -56 36 -91q18 -23 36 -26q20 -5 39 -5l16 2l43 11l14 1q14 0 24 -5q12 -5 12 -19q0 -6 -3 -12q-8 -21 -42 -34q-16 -9 -48 -12h-23l-32 1
q-104 0 -145 166l-3 39q0 48 17 104l18 58q20 61 70.5 93.5t65.5 34.5zM233 411q-47 -12 -79 -61l-10 -26l-8 -28l-2 -6q0 -4 2 -5q2 -2 9 -2l23 3q62 5 88.5 12t43.5 29t17 48l-3 15q-7 23 -58 23zM212 631q27 0 36 -9l10 -3q10 -2 12 -6l31 -22l39 -32q8 -10 8 -22
q0 -14 -14 -20l-6 -1q-19 0 -45 13q-7 3 -22 16t-48 27.5t-33 36.5q0 15 15 20z" />
    <glyph glyph-name="eacute" unicode="&#xe9;" horiz-adv-x="380" 
d="M269 478q57 0 90 -26t33 -69q0 -47 -35 -84l-22 -21q-38 -35 -118 -45l-54 -4l-17 1l-12 -2q-14 -5 -14 -43q0 -20 3 -29q12 -42 45.5 -73t77.5 -31q8 0 39.5 13t42.5 13q16 0 24.5 -11t8.5 -21q0 -27 -69 -50l-25 -7q-15 -4 -37 -4q-46 0 -91 28q-86 48 -89 183v30
q0 35 10 63q13 52 61 118q50 59 123 69zM239 407q-44 -10 -85 -70q-14 -23 -14 -30l2 -6q3 -8 11 -8l14 -1l18 -1l36 4l54 18q15 8 29 28q7 7 10 18q4 8 4 17q0 34 -55 34zM368 641q9 0 16 -4q7 -3 7 -23q0 -28 -14 -35l-90 -46q-27 -17 -38 -18h-2q-11 0 -17.5 10t-6.5 21
q0 8 5 15q5 6 17 11l25 15l59 39l10 6q14 9 29 9z" />
    <glyph glyph-name="ecircumflex" unicode="&#xea;" horiz-adv-x="380" 
d="M273 478q67 0 102 -41l5 -7l4 -14l3 -28q0 -104 -127 -138q-70 -19 -92 -17.5t-37 -6.5q-10 -8 -10 -25l3 -27q0 -25 2 -31q15 -42 21 -51q24 -33 78 -33l36 4q16 3 31 11t31 8q11 0 20 -5q14 -7 14 -19q0 -17 -25.5 -37.5t-103.5 -29.5l-27 -2l-14 1l-45 10
q-23 8 -49 34q-17 19 -30.5 58.5t-13.5 85.5l-1 50l2 15l7 30q7 45 32 95.5t67 75.5t91 32zM256 416l-31 -5l-12 -5q-29 -13 -53 -50l-15 -40q-6 -9 -6 -14q3 -8 13 -8q25 0 42 5l61 13q28 7 49 27q7 5 14 17q5 9 5 19q0 20 -19.5 31t-38.5 11zM287 640l10 2q21 0 50 -38
l12 -13l14 -13q11 -9 14 -19v-5q0 -10 -6.5 -19.5t-14.5 -12.5l-7 -1q-12 0 -22 10l-21 24q-18 23 -26 23q-6 0 -15.5 -8t-14.5 -10l-27 -19l-21 -19q-7 -6 -26 -6q-15 3 -15 20q0 15 9 26l14 13l41 27l38 29z" />
    <glyph glyph-name="edieresis" unicode="&#xeb;" horiz-adv-x="380" 
d="M228 618q32 0 32 -42q0 -35 -25 -41h-5q-15 0 -33 9t-23 22l-1 8q0 15 13 27.5t26 14.5zM365 618q17 0 25 -7q5 -4 6 -9l2 -15l3 -21q-1 -12 -14.5 -23t-31.5 -11q-22 0 -36 30l-5 14q0 13 10.5 24.5t23.5 15.5zM391 372q-10 -61 -47 -92q-41 -32 -122 -50l-19 -4l-60 -5
q-22 0 -22 -26l5 -38q11 -61 50 -82q20 -13 31 -15q11 -5 43 -5q14 0 30 4.5t30 4.5l7 -1q31 -6 31 -30q0 -19 -26 -30.5t-51 -11.5l-41 -2l-27 2q-9 1 -45.5 15t-49.5 25q-33 40 -36 47l-8 18l-10 42q-8 42 -8 79l2 35l4 28l10 32l12 36q28 66 91 104l24 15q34 15 73 15
l41 -5q55 -18 72 -43t17 -51zM139 283q3 -3 21 -3q40 0 79.5 12t57.5 36.5t18 44.5q0 19 -16.5 30t-41.5 11q-18 0 -30 -4q-46 -14 -79 -77q-12 -22 -12 -41q0 -8 3 -9z" />
    <glyph glyph-name="igrave" unicode="&#xec;" horiz-adv-x="214" 
d="M142 469l6 -1q32 -6 32 -58l-2 -38l-5 -64l-4 -28l-10 -66l-5 -47l-4 -35l-5 -36l-6 -27q-13 -69 -50 -71h-2q-11 0 -19.5 8t-10.5 18l-1 8l1 14l22 103l9 101l17 119q0 57 5.5 76.5t24.5 22.5zM68 638q10 7 24 7l10 -2l29 -23l73 -47q12 -9 12 -22q0 -11 -12 -18
q-11 -7 -24 -7q-37 0 -102 58l-10 8q-13 9 -13 23q0 15 13 23z" />
    <glyph glyph-name="iacute" unicode="&#xed;" horiz-adv-x="214" 
d="M128 464q7 3 15 3q16 0 30 -9.5t15 -25.5v-6q0 -8 -6 -32l-4 -12l-4 -36l-8 -69l-10 -83l-4 -38l-3 -52l-2 -6q-8 -56 -22 -79q-15 -21 -27 -23l-6 -1q-12 0 -23.5 8.5t-11.5 26.5l9 51l6 62l14 72l3 41q6 89 11 117l2 46q3 36 26 45zM270 640q26 0 26 -27q0 -13 -10 -22
l-8 -6l-25 -12l-77 -39l-18 -13q-11 -10 -25 -11q-10 0 -19.5 7.5t-9.5 18.5l1 5q2 7 16 21q14 12 31 20l33 17l40 21l29 17l11 3h5z" />
    <glyph glyph-name="icircumflex" unicode="&#xee;" horiz-adv-x="214" 
d="M143 476q22 0 34 -26q4 -11 4 -26l-4 -99l-13 -103l-12 -79l-10 -55l-3 -30q-8 -63 -50 -63q-18 0 -27.5 12t-9.5 27l1 8l36 178l2 17l7 44l7 85v36l-1 21v12q0 31 26 39zM173 635l4 1q12 0 27 -18l29 -33l17 -18l7 -13l2 -13q0 -29 -17 -33l-9 -1q-17 0 -34.5 29.5
t-32.5 31.5h-1q-11 0 -40 -21l-24 -19q-17 -13 -27 -13q-28 0 -28 25q0 16 19 24l14 9l72 51z" />
    <glyph glyph-name="idieresis" unicode="&#xef;" horiz-adv-x="214" 
d="M147 475q13 0 25.5 -11t12.5 -27l-5 -36l-4 -36l-15 -79l-8 -78l-7 -69l-6 -47l-2 -11l-1 -40q-3 -43 -32 -48h-1q-5 0 -12 4l-11 5q-21 9 -21 34q0 8 7 40l2 20l18 190l13 71l2 36l5 35l1 16q0 12 11.5 20.5t24.5 10.5h3zM236 620q13 0 28.5 -6.5t16.5 -17.5l1 -12
l-1 -9l-10 -21q-10 -15 -28 -19l-9 -1q-30 0 -34 23l-4 22l1 6q11 28 32 34zM105 622q11 0 21 -10q10 -6 14 -25l1 -7q0 -15 -13 -29t-27 -16h-5q-30 0 -35 35v2q0 26 27 43l12 7h5z" />
    <glyph glyph-name="eth" unicode="&#xf0;" horiz-adv-x="453" 
d="M367 690q11 0 20.5 -7t9.5 -19q0 -16 -23 -31t-27 -27v-2q0 -7 7 -15l10 -12q25 -38 33 -70l21 -65l11 -58l1 -22l-4 -53q-6 -66 -11 -85q-6 -28 -29.5 -89t-48.5 -87q-29 -29 -76 -43l-39 -11q-7 -2 -25 -2q-45 0 -81.5 26t-54.5 68q-4 8 -10 41l-5 24v32l-1 32
q0 41 8 68q7 35 29 66l26 33l31 27l40 26l44 19l65 13q43 0 46 3l1 3q0 12 -6 21q-11 30 -27 47q-11 15 -19 15q-6 -2 -18 -14q-27 -19 -41 -19q-9 0 -16 6q-7 7 -7 17q0 15 12 24l12 11q11 8 11 14q-1 7 -20 18l-15 8q-46 19 -46 38q0 21 25 26q10 4 21 4q37 0 81 -30
q9 -6 18 -6q20 6 33.5 19.5t25.5 16.5zM292 400q-22 0 -37 -6l-47 -17q-33 -13 -60 -62t-27 -108q0 -63 16.5 -101.5t41.5 -42.5q4 -2 28 -2q19 2 38 8q17 5 35 23q22 20 34 56q27 69 32 94l6 52l4 45l2 34l-5 17q-3 9 -12 9z" />
    <glyph glyph-name="ntilde" unicode="&#xf1;" horiz-adv-x="471" 
d="M333 109l8 59l5 52l9 90q0 93 -88 93q-29 0 -50 -16l-16 -13l-13 -12l-13 -20q-8 -15 -8.5 -37t-4.5 -38l-5 -47l-7 -29l-4 -32l-5 -27l-5 -40l-6 -36l-1 -28q0 -14 -8 -28q-14 -22 -41 -22l-10 2q-22 8 -22 33l2 27l5 36l39 242l3 42l2 91q1 19 11 25q9 6 23 6
q17 0 28.5 -8t11.5 -19l-1 -9l-1 -5q0 -9 5 -9l10 3l53 31q26 10 57 10q72 0 110 -48q18 -21 21 -48.5t3 -62.5l-3 -74l-21 -158q-7 -76 -41 -88l-16 -1q-26 3 -26 47l3 18l-1 6zM238 625q16 0 39 -11.5t32 -20.5l20 -11l11 -1q10 1 26 14t26 13l11 -2q12 -6 12 -20
q0 -7 -4 -17q-9 -16 -30 -31.5t-36 -17.5h-3q-5 0 -45 15l-19 9l-17 12q-11 10 -21 10l-5 -1q-8 -2 -19.5 -14t-17 -15.5t-11.5 -3.5l-8 1q-16 6 -16 27q0 8 5 16q31 42 69 49h1z" />
    <glyph glyph-name="ograve" unicode="&#xf2;" horiz-adv-x="448" 
d="M273 480l13 -1q55 -6 81 -27l14 -12q21 -26 28 -38q16 -32 17 -38l4 -13l3 -38l2 -34q0 -102 -63 -193q-34 -52 -66 -71q-24 -13 -53 -20l-55 -5q-17 0 -53 12q-45 10 -73.5 50t-28.5 106l5 61l1 31l4 13l7 39l4 11l7 16l28 46q26 42 69.5 73.5t77.5 31.5h27zM246 408
q-24 -4 -41 -20l-34 -39l-31 -54q-20 -48 -20 -103q0 -32 5 -52q5 -32 19 -50q10 -13 17 -16.5t23 -6.5l25 -2l11 1q56 6 91 63q38 65 45 145q0 47 -8 66l-5 17l-11 26l-9 9q-15 12 -50 17l-13 1zM224 631q10 0 28 -13l74 -50l13 -14q11 -14 11 -22q0 -9 -12 -13l-15 -3
q-30 0 -78 40l-14 11l-18 10q-11 5 -16 14q-4 5 -4 12q0 14 22 26z" />
    <glyph glyph-name="oacute" unicode="&#xf3;" horiz-adv-x="448" 
d="M287 478q23 0 59 -19q24 -12 28 -16l18 -22l19 -36q7 -14 11 -39l4 -34l1 -45q0 -48 -7 -68l-21 -72l-13 -31q-21 -46 -86 -87q-20 -11 -60 -16l-25 -1q-142 0 -167 163l-6 45l1 9q3 62 28 121.5t75 97.5l56 35q19 9 75 14zM287 401q-45 -2 -61 -11l-25 -14
q-76 -63 -76 -166l5 -76l4 -16q22 -52 93 -52q51 2 79 53l32 70q6 14 8 42q2 8 2 53l-1 21q0 41 -11 60l-13 21q-9 15 -36 15zM359 637l8 1q14 0 23.5 -12t9.5 -25q0 -6 -3 -12q-6 -11 -16.5 -14t-24 -11.5t-47 -25t-40.5 -17.5l-5 -1q-11 0 -21.5 8.5t-10.5 19.5
q0 16 39 35l8 6l59 35z" />
    <glyph glyph-name="ocircumflex" unicode="&#xf4;" horiz-adv-x="448" 
d="M264 478q70 0 107 -37q16 -14 20 -28q3 -5 2.5 -10.5t3.5 -10.5q5 -9 13 -15t11 -18l5 -19l5 -84l-2 -28q-13 -59 -33.5 -110t-55.5 -81l-11 -9l-27 -15q-41 -23 -71 -26l-22 -2q-81 0 -126 65q-16 22 -28 63t-12 75q0 38 9 81q6 40 11 54q7 16 35.5 57t57.5 65.5
t69 29.5zM190 385q-11 -8 -16.5 -19.5t-12.5 -23.5l-21 -41q-13 -33 -13 -90l2 -42q15 -113 103 -113l10 2q71 16 99 139l11 44v13l-9 94l-5 21q-21 41 -77 41q-12 0 -35 -6.5t-36 -18.5zM376 544q0 -26 -29 -26q-16 0 -32 30l-8 13l-8 8q-6 7 -11 7q-14 -5 -36 -27l-43 -29
l-21 -8q-10 -4 -16 -4q-4 0 -8 3q-9 5 -9 17q0 17 14 31l29 23q77 57 98 57q18 0 33 -19l15 -18q32 -36 32 -58z" />
    <glyph glyph-name="otilde" unicode="&#xf5;" horiz-adv-x="448" 
d="M261 481l18 1q34 0 76 -23q18 -9 29 -24l17 -20l3 -6l12 -35l14 -55l3 -42q0 -66 -27.5 -134.5t-78 -110t-99.5 -47.5l-21 -1q-31 0 -50 7l-29 12l-28 18q-41 31 -54 110v34l-1 17q0 36 18 98l5 31q24 68 72.5 115.5t97.5 51.5zM256 414q-41 -7 -63 -33.5t-38 -63.5
l-14 -33q-16 -52 -16 -128q2 -39 28 -69.5t60 -30.5l10 1q55 7 94 63t41 125v6l-1 18q-7 71 -21 90q-5 5 -7 11.5t-7 11.5l-20 19q-9 13 -46 13zM251 633q7 0 15 -6l11 -5l19 -20q27 -24 46 -24q14 4 26 24l11 13q6 8 13 8l4 -1q11 -6 11 -19l-6 -25q-17 -41 -53 -50l-26 -5
l-15 2l-9 4l-9 6l-16 18q-20 21 -36 21q-8 0 -14.5 -8.5t-10.5 -13.5q-16 -23 -25 -23l-7 2q-11 7 -11 20q0 10 7 24q22 48 69 57z" />
    <glyph glyph-name="odieresis" unicode="&#xf6;" horiz-adv-x="448" 
d="M213 -12q-70 0 -107 37l-12 10q-9 7 -11 15l-14 22q-8 14 -13 35l-5 19l-5 84l2 28q32 143 92 194l11 9l27 15q41 23 71 26l22 2q81 0 126 -65q16 -22 27.5 -61t11.5 -70q0 -33 -11 -91q-6 -40 -11 -54q-7 -16 -35.5 -57t-57.5 -65.5t-69 -29.5zM281 85q22 16 35 39
l24 44q13 33 13 90l-2 42q-15 110 -97 110l-10 -2q-38 -9 -66.5 -46t-41.5 -93l-11 -44v-13l9 -94l5 -21q20 -37 68 -37q47 0 74 25zM354 618q16 0 31.5 -9t16.5 -26q0 -15 -17.5 -31t-29.5 -18l-5 -1q-13 0 -24.5 10.5t-14.5 21.5l-1 6q0 14 10 28t24 18zM215 614
q31 0 44 -26l2 -8q0 -7 -8 -20q-18 -24 -47 -26h-3q-29 0 -29 42q0 17 8 28q5 6 24 9z" />
    <glyph glyph-name="divide" unicode="&#xf7;" horiz-adv-x="416" 
d="M218 326q5 2 19 2l55 -4l89 4l15 -1q24 -8 24 -39q-3 -15 -28 -26q-11 -4 -25 -4l-31 2l-49 -1q-24 -3 -73 -3l-132 11q-41 1 -41 34q0 16 11 24q7 7 21 7l33 -4l64 -4l8 1h5l21 -1zM229 199q35 0 35 -29l-2 -13q-11 -39 -46 -47l-9 -1q-41 0 -41 39q0 6 6 21l4 11l4 5
q8 9 27 12zM255 463q15 0 28.5 -12t13.5 -27l-1 -6q-5 -26 -44 -39l-16 -3q-36 0 -36 34q0 35 45 51z" />
    <glyph glyph-name="oslash" unicode="&#xf8;" horiz-adv-x="448" 
d="M133 2q-9 -8 -16 -24l-12 -28q-6 -17 -20 -28q-6 -4 -9 -4q-5 0 -19 12q-12 9 -12 22q0 14 16 35.5t20 29.5l8 10q5 6 5 16q-1 3 -9 11q-30 42 -36 78l-4 43l1 23q13 183 115 253l14 8l39 12q26 7 47 7t38 -6q28 -8 44 -8q18 2 43 56l7 15q6 6 17 6q12 0 20 -9
q5 -5 5 -11q0 -7 -5 -20q-7 -23 -21 -43l-11 -15q-6 -7 -6 -21l3 -15l16 -29q17 -34 25 -113v-18q0 -83 -31 -135q-19 -34 -35 -50l-23 -26q-52 -43 -136 -50h-2q-14 0 -41 8.5t-33 8.5zM214 394q-18 -5 -28.5 -17.5t-21.5 -27.5q-22 -34 -30 -71.5t-14 -80.5l-1 -13
q0 -24 11 -50l5 -13q3 -7 9 -7q8 0 16 17l51 81l60 115l28 44l1 8q-1 6 -9 9l-10 4q-18 5 -38 5zM333 317q-5 -2 -12 -20l-24 -46l-70 -120l-16 -24q-7 -11 -7 -24q2 -12 20 -12q13 0 27 6l27 12q79 39 84 154q0 35 -14 61l-4 9q-2 5 -7 5z" />
    <glyph glyph-name="ugrave" unicode="&#xf9;" horiz-adv-x="471" 
d="M190 630q14 0 23.5 -7.5t22.5 -15.5l35 -22q23 -11 46 -31q7 -7 7 -17q0 -11 -8.5 -19.5t-20.5 -8.5t-36 12l-25 14l-24 14l-37 26l-5 5q-7 9 -7 20q0 23 21 29zM400 470q11 0 21.5 -7.5t13.5 -18.5l1 -10l-3 -26l-1 -30q-11 -92 -14.5 -162.5t-10.5 -111.5l-2 -19l1 -30
q0 -47 -25 -54q-10 -5 -22 -5t-21.5 4t-9.5 24l1 18q0 9 -3 9l-5 -1l-29 -18l-30 -18q-28 -14 -58 -21l-52 -7q-23 0 -54 29.5t-31 94.5q0 88 21 223l1 10l10 59q0 46 17 58q6 3 18 3l28 4l9 -2q11 -6 11 -30q0 -25 -7 -53l-22 -166l-3 -74q0 -42 26 -66q4 -4 15 -4
q21 0 36 6q29 7 40 13.5t36 25.5q18 16 30 40q9 16 9 51l26 223q0 31 25 38z" />
    <glyph glyph-name="uacute" unicode="&#xfa;" horiz-adv-x="471" 
d="M152 471q33 0 33 -27l-6 -30l-15 -82l-5 -59l-10 -105l-3 -61v-1q0 -8 6.5 -16t14.5 -10h5q24 0 48 9q24 6 62 28.5t55 53.5q2 3 2 20l4 49l3 43l8 27l1 14l-1 22l12 75l3 22l3 7q5 8 18.5 13.5t24.5 5.5l9 -1q20 -8 20 -32l-9 -51l-1 -26l-11 -92l-12 -102v-41l-2 -51
l-1 -37q-1 -42 -26 -47l-14 -2q-37 0 -37 40l1 9q0 29 -7 30h-2q-5 0 -13 -5l-18 -12q-31 -26 -123 -43l-13 -1q-22 0 -45.5 11t-33.5 27q-12 22 -12 55l12 146l8 52l2 21l10 55l12 74q3 11 15.5 17.5t22.5 7.5h5zM366 639q14 0 27.5 -9.5t13.5 -23.5q0 -10 -8 -17
q-8 -8 -24.5 -13.5t-31.5 -14.5l-60 -38l-21 -8l-8 -1q-11 0 -22 13t-11 26q0 8 5 13q7 6 16.5 8t17.5 7l75 46q18 12 31 12z" />
    <glyph glyph-name="ucircumflex" unicode="&#xfb;" horiz-adv-x="471" 
d="M327 68q-2 1 -8 -6l-12 -13q-18 -21 -39 -33q-47 -26 -91 -26q-37 0 -69 28t-36 73l-1 48l6 57l5 34q20 155 22 197l2 25q2 9 11 16q8 5 22 5q27 0 33 -15q2 -5 2 -73l-9 -62l-18 -141l-1 -34l1 -10l3 -26q8 -51 53 -51q25 0 43 13q11 9 22 13.5t21 15.5l30 35
q7 5 6.5 17t3.5 20q5 11 4.5 24.5t1.5 24.5l8 36l5 43l22 134l2 20q0 11 9 18q10 7 23 7q14 0 27 -8.5t15 -23.5v-6q0 -20 -4 -30t-3.5 -18t-1.5 -18l-7 -27l-7 -96l-20 -107v-14l1 -69l-5 -48l-4 -11q-13 -24 -40 -24q-20 0 -26 17q-2 3 -2 21l1 8l2 29q0 9 -3 11zM282 632
l8 1q22 0 61.5 -37t39.5 -57q0 -18 -16 -23l-7 -1q-9 0 -22 8q-11 7 -37 36l-12 11l-7 3h-2q-7 0 -23 -12l-30 -26q-13 -10 -25 -10q-21 2 -21 18q0 11 9 22l28 23l36 33z" />
    <glyph glyph-name="udieresis" unicode="&#xfc;" horiz-adv-x="471" 
d="M417 483q27 -2 27 -32q0 -20 -5 -40l-18 -128l-7 -62l-5 -112l-1 -9l7 -56l-1 -11q-4 -20 -31 -32l-9 -2q-16 0 -20 4q-17 8 -21 18t-4 38t-5 30h-1l-4 -1l-13 -8l-49 -37l-33 -15q-40 -19 -77 -19q-39 0 -62 23q-25 26 -28 103l-1 27l3 58l22 144l21 82q4 14 32 28
q10 4 19 4q17 0 24 -12q3 -6 3 -16l-1 -14l-8 -29l-16 -68l-4 -33l-9 -53l-4 -74q0 -83 38 -83l8 1q76 13 123 75l20 26q4 6 3.5 14t1.5 15l12 69l10 56l10 69q0 48 37 60zM220 617q14 0 27.5 -15t13.5 -35q-2 -16 -15.5 -25.5t-28.5 -10.5q-15 0 -29.5 13.5t-14.5 32.5
q3 15 16 27t29 13h2zM347 611q37 0 41 -24l4 -21l-5 -17q-3 -7 -12 -10q-10 -4 -24 -4q-24 0 -37 15q-7 7 -7 18q0 14 9 26.5t20 15.5z" />
    <glyph glyph-name="yacute" unicode="&#xfd;" horiz-adv-x="402" 
d="M95 477q25 0 36 -34l6 -18l10 -30l26 -121l12 -37l15 -50l2 -11q1 -4 4 -6l3 -1q5 0 9 7l34 57l47 111l38 88l15 28q10 16 30 16q18 0 31.5 -11t13.5 -26q0 -12 -21 -39q-5 -7 -24 -51l-101 -217l-71 -139l-43 -66q-13 -21 -43 -48l-58 -38l-17 -11l-43 -20
q-41 -18 -67 -22l-36 -4l-12 1q-11 3 -18 14.5t-7 23.5q0 18 15 24q12 6 34 6.5t70 24t96 59.5l34 31l26 39l12 25l1 5q0 6 -5 19l-17 69l-23 80l-34 144l-15 51q-6 24 -6 35q0 34 31 41zM343 646q12 0 26 -7.5t17 -17.5l1 -5q0 -11 -11 -25q-8 -11 -41 -31l-50 -34l-23 -11
l-32 -8l-8 1q-9 2 -16 13t-7 22q0 8 4 12q12 14 32.5 22t37.5 18q43 31 51 41t19 10z" />
    <glyph glyph-name="thorn" unicode="&#xfe;" horiz-adv-x="458" 
d="M143 672q20 10 41 10q28 0 28 -20l-6 -52l-7 -35l-2 -24l-5 -59l-2 -25q0 -12 4 -15l2 -1q6 0 15 9q25 12 43 15q33 7 55 7q37 0 68 -18q24 -15 33 -27q19 -24 22.5 -56.5t5.5 -60.5l3 -37l-5 -42l-4 -26q-21 -156 -188 -208l-32 -7l-33 -1l-34 3l-11 3q-4 0 -6 -2
q-3 -2 -3 -6t-1 -7l-1 -33l-11 -68l-1 -20q-2 -30 -7 -42q-16 -36 -30 -42q-10 -4 -17 -4q-27 0 -29 28l4 25l4 48l13 143l16 103l6 50l2 33l13 82l14 76l3 39l7 68l5 67l6 76l5 29q3 16 17 24zM279 413l-29 -2l-10 -4q-27 -12 -35 -20l-17 -16q-9 -15 -17 -70l-13 -92
l-6 -22l-5 -31l-11 -69q0 -9 2 -11q3 -5 27 -5l33 -2q21 0 37 4q67 13 98 80q16 31 21 87l7 34l1 21l-6 64l-6 19q-8 16 -26.5 26t-35.5 10z" />
    <glyph glyph-name="ydieresis" unicode="&#xff;" horiz-adv-x="402" 
d="M88 514q34 0 42 -61l5 -25l41 -174l8 -36l11 -44l4 -13q3 -16 11 -16q5 0 8 6.5t5 10.5l22 44l18 41l40 82l33 79q20 41 28 48.5t23 7.5t25 -8q8 -7 8 -18q0 -14 -16 -43l-41 -102l-57 -122l-59 -115l-39 -71l-15 -20q-49 -63 -92.5 -94.5t-128.5 -63.5l-42 -14l-23 -2
q-20 0 -36 13t-16 29q0 10 9 21q5 8 16.5 12.5t19.5 8.5q15 6 29.5 7.5t70.5 23.5t101 67q35 32 42 54q4 8 4 24q0 21 -6 45q-4 8 -4.5 18t-4.5 19t-4 15t-4 16l-22 77l-7 22l-13 57l-20 78q-6 33 -11 44q-7 21 -7 29q1 14 12 27t25 15zM323 616q20 0 30.5 -13.5t10.5 -30.5
t-10.5 -32t-32.5 -17h-5l-15 2q-26 9 -26 36q0 18 12 35.5t31 19.5h5zM177 610q30 0 44 -25q5 -10 5 -20q0 -23 -20 -31q-8 -3 -19 -3q-36 0 -48 16q-6 7 -6 17q0 14 10.5 27.5t23.5 17.5z" />
    <glyph glyph-name="dotlessi" unicode="&#x131;" horiz-adv-x="214" 
d="M121 11q-8 -15 -25 -15q-13 0 -24.5 8.5t-12.5 22.5v2l8 34l1 40l10 55l10 106l18 115l8 44l4 28q12 22 35 22q29 -5 29 -53l-1 -24l-33 -259q-10 -111 -27 -126z" />
    <glyph glyph-name="IJ" unicode="&#x132;" horiz-adv-x="456" 
d="M413 605q29 0 33 -25l1 -7l-6 -39l-4 -39l-13 -74v-46l-2 -9l-22 -139l-5 -65l-7 -26l-22 -114l-17 -52q-19 -43 -46 -70q-10 -11 -44 -32.5t-87 -21.5q-58 0 -58 29l2 12q8 26 42 26.5t63 18t39 39.5q15 30 36 131l20 90l2 43l10 35l11 96q18 94 20 121l10 61
q9 49 37 56zM147 605q7 3 17 3q15 0 29 -7t14 -21q0 -32 -4 -48l-11 -62l-6 -64q-12 -65 -19.5 -156t-20.5 -179q-11 -71 -40 -77l-7 -1q-14 0 -26.5 10.5t-14.5 21.5v8q0 17 8.5 48.5t16.5 99.5l14 162l12 79l5 49l8 35l6 61l4 22q2 11 15 16z" />
    <glyph glyph-name="ij" unicode="&#x133;" horiz-adv-x="428" 
d="M386 630q19 0 29.5 -13t10.5 -30q0 -43 -48 -50h-5q-17 0 -30.5 14t-13.5 31l1 8q3 15 18 26t30 13zM167 627q15 0 29.5 -9.5t14.5 -25.5q0 -17 -12 -33q-13 -20 -47 -22q-17 0 -27 11t-10 26l2 11q11 39 50 42zM354 485q13 0 26 -6.5t15 -18.5l1 -11l-6 -49l-3 -65
l-17 -171l-11 -86l-7 -31l-2 -30l-9 -36l-35 -87l-23 -30q-24 -26 -80 -55l-25 -9q-26 -12 -45 -12t-28.5 10t-9.5 23q0 12 9 21t23 9t48 16t51 36.5t39 70.5l6 18l10 58l14 104l22 199l1 70l6 42q3 14 20 19zM148 474q37 -2 37 -39l-4 -31q-13 -68 -20 -174l-22 -165
l-10 -37q-8 -21 -13.5 -26.5t-14.5 -6.5l-8 -1l-8 1q-28 5 -28 32l8 40l7 24l3 49l9 55l10 119l6 30l1 17l11 67q0 25 3 33t17 12z" />
    <glyph glyph-name="Lslash" unicode="&#x141;" horiz-adv-x="376" 
d="M92 290q-7 0 -26 -8l-15 -3q-11 0 -19.5 5.5t-8.5 14.5q0 7 4 12l3 5l20 13l20 5l19 6q14 4 18 13l5 17l16 147q0 32 15.5 63.5t39.5 36.5l8 1q28 0 28 -27l-5 -40l-12 -72l-10 -82l2 -9q2 -5 9 -5q9 0 16 5q22 12 34 12t18 -13q3 -6 3 -13q0 -23 -15.5 -28.5t-42 -13.5
t-33.5 -16q-5 -5 -5 -17t-1 -18l-5 -56l-2 -26l-8 -53l-3 -48q0 -15 6 -21.5t25 -6.5l20 1l86 -3l26 1q22 0 32 -7q7 -4 7 -16t-4 -22q-7 -24 -48 -29h-6l-92 6h-10l-48 -1l-8 1l-28 3l-19 -1q-12 0 -20 8q-8 9 -8 26l1 13l12 57l9 109l3 26l1 41q0 7 -4 7z" />
    <glyph glyph-name="lslash" unicode="&#x142;" horiz-adv-x="231" 
d="M182 670q37 0 37 -34l-15 -98l-4 -43l-6 -26l-1 -26l-7 -45l1 -11q1 -8 7 -8q4 0 16 6q16 7 31 7q22 0 25 -18q0 -10 -59 -39l-20 -10l-6 -7q-8 -13 -7 -28.5t-1 -29.5l-16 -126q-6 -24 -6 -33l-3 -37q-7 -53 -32 -64l-11 -2q-12 0 -23 6.5t-13 17.5l-1 7l2 16l6 54l6 17
l2 34l6 37l2 55l7 39q0 7 -3 10l-6 1l-12 -1q-28 -7 -36 -7q-15 0 -18 12l-1 6l1 7q1 6 4 9t15 8q56 19 64 34l3 26l8 53l1 30l10 73q2 5 2 22t2 23q8 37 17 60t32 23z" />
    <glyph glyph-name="OE" unicode="&#x152;" horiz-adv-x="696" 
d="M363 619l9 1q22 0 39.5 -9t40.5 -11h10l59 3l58 -2l71 3l14 -2q30 -5 30 -32q0 -7 -3 -13q-11 -24 -32 -24l-36 2l-8 1l-26 -2l-37 3q-13 0 -24 -4q-13 -4 -16.5 -14t-6.5 -27l-6 -55l-5 -42l2 -22q4 -16 28 -16l11 1l104 4q39 0 39 -43l-2 -6q-5 -13 -21 -20t-31 -7
l-8 1l-58 3h-34l-14 -2l-14 -3q-27 -6 -28.5 -34.5t-8.5 -87.5l-7 -47l-7 -42q0 -12 7 -15l11 -2l40 6l126 4l8 -2q18 -8 18 -28q0 -26 -22 -38q-14 -7 -42 -7l-8 1q-8 2 -76 2q-20 0 -40 -6t-40 -6q-32 0 -41 15q-4 5 -5.5 13t-10.5 9h-4l-16 -2l-20 -5q-37 -14 -92 -14
q-31 0 -43 6q-22 8 -49 32l-21 19q-19 20 -37.5 62.5t-20.5 49t-7 37.5t-5 44q0 78 10 116l18 51q42 103 100 149q35 29 119 48zM349 544l-47 -6q-22 -3 -44 -16l-16 -10l-28 -29q-44 -48 -61 -110l-6 -40l-6 -32l-4 -55l1 -8l8 -36q4 -9 8.5 -31.5t32 -62t83.5 -39.5
q44 0 64 11l21 12q15 6 19 17.5t4 36.5l5 69q7 73 10 84l17 77l3 43q5 16 11 70l3 22q0 8 -3 14q-3 7 -23.5 13.5t-41.5 6.5z" />
    <glyph glyph-name="oe" unicode="&#x153;" horiz-adv-x="681" 
d="M354 57q-7 -10 -34 -34q-23 -18 -45 -25q-35 -15 -70 -15l-17 2q-58 17 -72 26q-33 26 -55 77q-9 17 -12 73l-2 63q0 36 6 55q12 53 43.5 100t73.5 72q22 14 39 19q25 6 48 6q62 0 97 -27l26 -22l5 -8q11 -22 17 -22q5 0 12 9.5t21.5 22t28.5 21.5q49 34 111 34t88 -32
q14 -21 22 -61q2 -5 2 -23q0 -51 -26 -77q-27 -30 -124 -52l-39 -7q-36 0 -46.5 -4t-11.5 -19v-7q0 -66 26.5 -107t73.5 -51l11 -1q20 0 53 9q10 2 19.5 8t23.5 6q33 -2 33 -35q0 -7 -3 -14q-4 -13 -42 -30t-65 -17l-56 5l-13 4q-81 25 -100 94l-6 18q-3 14 -7 14t-8.5 -5.5
t-25.5 -42.5zM237 405q-50 -8 -85 -76q-26 -54 -26 -131q0 -84 26.5 -113t69.5 -29q40 6 75 35.5t46 68.5l14 56l8 56l1 13q0 20 -10 49.5t-25 42.5q-18 22 -59 27l-21 3zM457 341q-8 -16 -8 -25q0 -4 2 -6q3 -4 14 -4q61 0 99.5 11.5t45.5 24.5q8 13 8 28l-1 8
q-6 22 -12 27q-10 12 -40 12q-37 0 -66 -21t-42 -55z" />
    <glyph glyph-name="Scaron" unicode="&#x160;" horiz-adv-x="410" 
d="M300 615q37 0 80 -17q33 -15 33 -32l-1 -6l-8 -14q-13 -14 -27 -14q-12 0 -24 5t-26 6l-51 1l-9 -1l-40 -9l-33 -14l-7 -4l-20 -22q-8 -10 -11 -34l-1 -14q0 -52 107 -111q24 -13 76 -56q6 -5 33 -46q15 -27 15 -64q0 -44 -19.5 -84.5t-40.5 -52.5q-51 -28 -86 -36
q-16 -4 -36 -4l-57 1l-43 6l-28 7l-6 2l-18 12q-16 11 -16 29q0 14 11 24.5t26 10.5l46 -5l48 -17l9 -1q77 0 100 26q18 18 21 33l6 40l-3 20q-6 21 -28 39l-39 31l-59 35l-27 20q-43 40 -58 71q-12 23 -12 35v21q0 36 5 51q43 120 203 131zM378 770q27 0 27 -26
q0 -23 -35 -36l-24 -11l-60 -40l-9 -3l-7 -1q-10 0 -23 10l-36 31l-14 10q-15 14 -15 29q0 8 7 14q10 7 21 7q23 0 52 -35q4 -5 14 -5q9 1 16.5 7.5t15.5 11.5l32 18l24 16l9 3h5z" />
    <glyph glyph-name="scaron" unicode="&#x161;" horiz-adv-x="357" 
d="M201 482q6 2 26 2q35 0 79 -13l31 -14q10 -6 10 -19q0 -14 -8.5 -24.5t-22.5 -10.5q-5 0 -37 8l-37 4q-40 0 -68 -19q-29 -18 -29 -47q0 -14 12 -24l20 -17q15 -13 31 -20t30 -17q31 -19 52 -45q35 -37 35 -90q0 -124 -155 -145l-10 -2l-46 -2q-79 0 -79 45q0 14 10 21
q13 10 44 10l22 -1l43 -2q60 0 80 45l7 28v2q0 34 -42 61l-29 18l-50 38q-59 45 -59 90l1 9q5 37 22 65q16 22 45 39q37 20 72 27zM174 628q9 0 16 -8l36 -34q9 -9 16 -12h1q19 0 46 27l19 15l17 15q8 7 18 7l6 -1q18 -4 18 -22q0 -12 -8 -22l-18 -13l-43 -33
q-34 -26 -56 -33h-5q-9 0 -15 6l-13 12q-48 39 -60 59q-3 6 -3 11q0 20 21 25z" />
    <glyph glyph-name="Ydieresis" unicode="&#x178;" horiz-adv-x="423" 
d="M110 612q25 -4 33 -39l6 -17q5 -17 13 -27l4 -7l20 -72l19 -48l16 -39q2 -9 7 -11l3 -1q7 0 14 11l61 85l82 123q23 35 43 35q8 0 16 -4q17 -11 17 -37q0 -9 -3 -15l-11 -17l-48 -60l-27 -50l-26 -29l-26 -36l-35 -49l-6 -12l-19 -62l-4 -10l-7 -76l-11 -58l-3 -30
q0 -32 -2 -37q-2 -8 -13 -18t-20 -13l-5 -1l-11 2l-12 2l-5 4q-7 7 -7 21l20 164l4 66l-1 6q-5 22 -31 90l-50 124q-6 16 -26 51t-20 61q0 19 14 24zM203 711q9 3 25 3q18 0 26 -6q9 -8 9 -22q0 -17 -11.5 -33t-25.5 -20l-14 -2q-27 0 -36 17q-5 10 -5 20q0 14 9 26.5
t23 16.5zM340 715q6 0 27 -9q9 -4 12 -12l2 -16l-1 -10q-8 -20 -14 -26.5t-17 -9.5l-9 -1q-17 0 -26 14t-9 31q0 20 11 31l19 8h5z" />
    <glyph glyph-name="Zcaron" unicode="&#x17d;" horiz-adv-x="485" 
d="M88 -6q-26 0 -51 14q-22 14 -25 26v3q0 10 6 19l14 20l74 94l50 73l89 104l58 83l47 57q21 26 21 39l-1 5q-3 5 -11 5l-85 -5l-37 3l-63 -6l-31 -2q-50 0 -50 30t26 44q6 3 14 3l151 -3l163 3q40 0 48 -17q3 -6 3 -12q0 -38 -86 -133l-25 -28l-69 -96l-115 -145l-45 -64
l-18 -19l-4 -9v-3q0 -8 16 -8l86 6l41 -2l26 4l83 -2l27 1q42 0 42 -38q0 -14 -8 -26t-23 -13h-4l-37 3l-124 -5h-12l-59 1l-12 -1l-82 -3h-8zM259 742q15 0 23.5 -11t20.5 -22q8 -10 17 -14l4 -1q7 0 18 9q54 43 77 43l6 -1q15 -5 15 -21q0 -11 -8.5 -19.5t-46.5 -33.5
l-31 -21q-18 -14 -38 -16h-4q-13 0 -26 16l-32 33l-18 23q-3 6 -3 12q0 20 20 24h6z" />
    <glyph glyph-name="zcaron" unicode="&#x17e;" horiz-adv-x="381" 
d="M142 79q0 -11 14 -12.5t39.5 -1.5t36.5 -2q8 -2 56 -2l29 1q28 0 33 -21l1 -11q0 -32 -20 -37q-5 -2 -17 -2l-29 3l-40 2l-33 3l-9 1l-21 -2l-75 3h-5l-39 -3q-16 0 -29 9q-11 11 -11 20q0 8 6 23q8 16 20.5 29t21.5 28l63 92l27 35l82 102l20 30q16 19 17 27q0 6 -9 6
l-43 3l-66 3l-35 -2q-36 0 -42 25l-1 6q0 15 13.5 24t27.5 10l75 -3l48 2l18 -1l40 1l37 -1q32 0 39 -20l1 -10q0 -21 -21 -47l-27 -39l-109 -150l-53 -65l-29 -46zM189 627q18 0 39 -24.5t30 -27.5l3 -1h1q7 0 16 7q60 47 90 47q19 -4 19 -25q0 -23 -31 -33l-66 -40
l-20 -16l-7 -3l-5 -1q-8 0 -15 7l-12 11l-56 53q-7 8 -7 20q0 18 12 24z" />
    <glyph glyph-name="longs" unicode="&#x17f;" horiz-adv-x="219" 
d="M332 686q14 -1 22 -13.5t8 -27.5q0 -36 -36 -36l-21 1q-90 0 -108 -96l-8 -54l-1 -34l-7 -64l-8 -28q-3 -20 -10 -122l-1 -47l-9 -38l-9 -84q-7 -48 -40 -48q-35 0 -35 53l2 29q21 107 21 146.5t14 134.5l6 33q0 8 -4 12q-5 3 -12 3l-24 -2q-18 0 -28 19q-3 6 -3 17
q1 15 35 24.5t41 19.5l4 8l18 73l8 21l16 33q35 67 169 67z" />
    <glyph glyph-name="florin" unicode="&#x192;" horiz-adv-x="321" 
d="M264 613l22 2q76 0 76 -41q0 -24 -14 -34q-8 -6 -15 -6l-29 8l-13 1q-28 0 -47.5 -13t-34.5 -51l-7 -33l-7 -46l-3 -18l1 -1q2 -8 9.5 -9.5t20.5 -1.5l31 2q27 0 41 -7q21 -12 21 -30l-1 -8q-10 -28 -76 -28l-14 -2h-3l-19 2q-12 0 -16 -10q-3 -6 -3 -27l-8 -36l-14 -180
q0 -10 -4 -20t-4 -20l-15 -92l-12 -36q-7 -15 -26 -39q-19 -25 -25 -29q-18 -13 -56 -16h-3l-20 2l-25 -1q-26 0 -39 24l-3 14l1 6q8 22 31 22l28 -2l9 1l16 3q37 5 53 67l10 56l20 186l3 68l7 29l1 16q-1 10 -14 10l-17 -2h-5q-15 0 -28 9.5t-13 25.5l1 10q6 23 61 23
q14 0 19 7q3 6 3 23l7 39l8 36l5 19q26 105 128 128z" />
    <glyph glyph-name="uni02BB" unicode="&#x2bb;" horiz-adv-x="205" 
d="M196 604q26 0 26 -21q0 -6 -5 -14q-5 -7 -11.5 -9t-13.5 -6q-13 -5 -24.5 -21t-11.5 -39q1 -15 20 -27.5t21 -24.5v-6q0 -31 -26 -43l-14 -2l-10 1q-55 3 -55 77q0 54 40.5 94.5t63.5 40.5z" />
    <glyph glyph-name="afii57929" unicode="&#x2bc;" horiz-adv-x="205" 
d="M144 607l7 1q21 0 39 -21t18 -44l-2 -26q-3 -34 -53 -87q-28 -32 -51 -32q-22 2 -25 21v1q0 11 14.5 20t18 12.5t13.5 17.5t13 26l1 8q0 7 -5 11q-27 19 -27 47t23 40z" />
    <glyph glyph-name="circumflex" unicode="&#x2c6;" horiz-adv-x="453" 
d="M302 669q17 0 35 -27l8 -10l23 -23q14 -12 19 -30l2 -14q0 -30 -22 -34l-7 -1q-17 0 -34 29t-31 33l-6 1q-20 0 -57 -44l-15 -24q-7 -15 -23 -15t-24 8q-12 9 -12 22t20 42q29 39 56 49q8 2 15.5 12.5t15.5 12.5l33 13h4z" />
    <glyph glyph-name="caron" unicode="&#x2c7;" horiz-adv-x="453" 
d="M182 665l28 2l8 -2q11 -5 15.5 -16t8.5 -19q15 -23 33 -36q4 -4 9 -4q6 0 11 5t12 8.5t19 15.5l30 25q10 9 23 9l8 -1q18 -4 18 -25q0 -10 -6 -17q-15 -20 -38 -33t-42 -27l-18 -16q-9 -8 -23 -8q-10 1 -26 15q-38 29 -58 62l-15 28l-2 12q0 10 5 22z" />
    <glyph glyph-name="breve" unicode="&#x2d8;" horiz-adv-x="453" 
d="M364 651l10 2q28 0 28 -33q0 -13 -6 -23q-8 -14 -39 -34l-39 -23l-17 -6q-18 -5 -34 -5q-58 0 -79 52q-9 24 -9 35q0 16 11 25q6 6 18 6q24 0 35 -24.5t16 -28t16 -3.5q14 1 31.5 10t26.5 19q9 9 13 18t18 13z" />
    <glyph glyph-name="dotaccent" unicode="&#x2d9;" horiz-adv-x="453" 
d="M279 642q18 0 31 -8l17 -19q8 -8 10 -31v-2q0 -19 -17.5 -29.5t-32.5 -12.5h-5l-12 2l-11 6q-26 17 -26 49l2 9q12 32 41 36h3z" />
    <glyph glyph-name="ring" unicode="&#x2da;" horiz-adv-x="453" 
d="M290 532q-5 0 -30 7l-12 4q-36 11 -36 56l3 21l11 19l14 25q8 13 21 16l7 1l16 -2l31 -2l11 -4q39 -21 39 -68q0 -25 -13 -44t-56 -29h-6zM311 585q6 3 6 19l-1 10l-2 11q-1 4 -5 6l-2 2l-7 2q-3 2 -13 2q-20 0 -28 -18l-5 -6l-1 -3l-3 -14l3 -9q1 -5 10 -10l13 -6h6
q13 0 25 10z" />
    <glyph glyph-name="ogonek" unicode="&#x2db;" horiz-adv-x="453" 
d="M248 33q21 0 25 -2.5t4 -7.5q0 -6 -4 -13q-7 -14 -19.5 -19t-26.5 -12q-39 -19 -59 -68q-6 -21 -6 -34q0 -11 3 -18q8 -14 24 -14l19 1q27 0 28 -15v-6q0 -15 -6 -20.5t-18 -11.5q-11 -6 -43 -9h-5q-28 0 -47.5 29t-19.5 72l9 30q14 50 69 86l33 22q25 10 40 10z" />
    <glyph glyph-name="tilde" unicode="&#x2dc;" horiz-adv-x="453" 
d="M238 632q28 0 64 -29l18 -10l10 -1q9 1 22.5 13t23.5 12l10 -2q11 -6 11 -19q0 -8 -3 -15q-7 -13 -25.5 -27t-34.5 -17h-2q-8 0 -41 14l-17 8l-22 15q-7 4 -17 4q-9 -3 -21 -16.5t-22 -13.5l-7 1q-15 4 -15 24q0 13 20.5 33.5t46.5 25.5h1z" />
    <glyph glyph-name="hungarumlaut" unicode="&#x2dd;" horiz-adv-x="453" 
d="M311 682q12 0 20.5 -9t8.5 -20q0 -8 -5 -16l-11 -11l-34 -20l-13 -10l-28 -31l-14 -16q-9 -11 -20 -13h-3q-25 0 -25 29q1 6 11 23q20 29 71 70q24 21 35 23zM454 674q30 0 30 -24q0 -7 -5 -15l-24 -23l-36 -27l-26 -26q-23 -23 -41 -25h-1q-11 0 -18 8.5t-7 19.5
q0 15 16 24l13 9l24 26l28 23q27 27 42 30h5z" />
    <glyph glyph-name="Delta" unicode="&#x394;" horiz-adv-x="494" 
d="M309 610q34 0 40 -18l4 -13l17 -65q10 -66 29 -141l26 -129l37 -140l4 -34v-4q0 -55 -20 -67q-12 -6 -35 -6l-47 5l-36 2h-8l-38 -1l-86 6l-69 -5l-22 2l-20 -3l-19 1q-10 0 -13 -2l-11 -2q-15 0 -26 11.5t-11 24.5l1 9l9 22l19 37q43 70 75 150l43 93l47 91l20 52l22 41
l17 46q15 37 51 37zM97 74q1 -1 15 -1l128 2l44 -6l19 3l51 -6l18 -3q5 0 8 3q3 2 3 8l-4 43l-15 52l-48 243l-11 68q-3 15 -9 15q-18 0 -57 -100t-60 -144l-28 -51l-25 -45l-17 -50q-13 -17 -13 -29z" />
    <glyph glyph-name="Omega" unicode="&#x3a9;" horiz-adv-x="621" 
d="M450 69q2 -5 18 -5l46 4l27 3q36 0 36 -32q0 -22 -19 -35l-10 -4l-33 -5l-32 -2l-88 3l-10 -1l-27 -2q-21 0 -27 14l-2 12q0 18 18 38q16 23 43.5 47.5t57 63t39.5 56.5l13 26q30 60 30 95l-4 52q0 19 -4 27q-3 15 -13 25l-21 27q-54 65 -143 65q-79 0 -134 -63t-61 -126
l-2 -47l1 -12l19 -71q1 -8 18 -48l15 -34q24 -51 40 -71t17 -26l1 -7q0 -14 -10 -26.5t-24 -15.5l-5 -1l-19 4h-5l-19 -1l-24 6h-5l-22 -1l-52 8h-5l-24 -1l-16 2q-18 8 -18 29q0 12 7 22q8 14 27 14l73 -2l18 -1q15 0 15 7l-2 8l-12 20l-17 46q-11 19 -12 28l-13 37l-14 56
v6l9 102l7 27l22 44q15 33 22 41q27 36 75 68l55 32q18 8 53 13q32 7 43 7q46 0 109 -30t102 -90l13 -27q9 -17 12 -48l1 -18q0 -68 -29 -134l-20 -48q-33 -54 -69.5 -94.5t-36.5 -51.5z" />
    <glyph glyph-name="mu" unicode="&#x3bc;" horiz-adv-x="473" 
d="M342 42l-3 12l-2 2h-2q-4 0 -11.5 -7.5t-13.5 -9.5l-13 -8l-29 -21q-45 -20 -83 -20q-20 0 -43 9l-7 1l-3 -1q-5 -3 -5 -18.5t-2 -23.5l-19 -94l-1 -32q-2 -47 -40 -47q-31 2 -31 49l5 37l13 77l1 32l12 93l8 97l18 119l9 115l4 15l6 35q8 28 39 31h2q19 0 27 -23l3 -31
l-2 -45q-1 -19 -8.5 -42.5t-14.5 -76.5t-7 -107l1 -13l3 -44l6 -18q6 -18 14 -22q9 -4 20 -4l13 1q46 7 86 54q19 19 36 49l8 33l3 26l3 80q2 23 9 46t8 46q0 82 47 82l16 -4q13 -8 13 -40l-3 -39l-23 -145l-8 -112l1 -15l9 -53l8 -11q5 0 8.5 -2.5t8.5 -2.5l9 1
q19 0 23 -19v-4q0 -20 -18.5 -30.5t-38.5 -10.5l-15 2q-33 10 -54 52z" />
    <glyph glyph-name="pi" unicode="&#x3c0;" horiz-adv-x="522" 
d="M500 472l15 2l9 -2q27 -9 27 -24l-1 -4q-7 -25 -39 -39q-7 -4 -34 -7l-25 -3q-10 -1 -16 -8l-3 -4l-4 -15l-8 -42l-7 -69l-13 -112l-5 -40q0 -15 7 -23q20 -25 47 -25l20 -2q12 -1 17 -12l2 -8q0 -31 -62 -40l-11 -1q-16 0 -43 15.5t-32 22.5q-10 11 -17 44l-2 23l1 23
l13 76l22 178l1 9q0 10 -9 13l-12 2l-37 -5l-14 1q-17 0 -19 -13t-3 -15l-12 -49q-12 -43 -18 -89l-4 -23l-20 -59l-18 -49l-50 -74q-22 -30 -41 -30l-8 1q-13 2 -20 12.5t-7 21.5q0 10 5 18l20 24q31 41 46 80l25 72l15 72l15 71l3 16q0 6 -2 8q-5 6 -33 6q-39 -2 -55 -10
l-24 -13l-10 -1q-15 0 -24 10q-5 7 -5 16q0 13 16 27q31 28 75 36l43 3h7l194 -4l71 2z" />
    <glyph glyph-name="uni2007" unicode="&#x2007;" horiz-adv-x="473" 
 />
    <glyph glyph-name="uni2008" unicode="&#x2008;" horiz-adv-x="205" 
 />
    <glyph glyph-name="uni200B" unicode="&#x200b;" horiz-adv-x="0" 
 />
    <glyph glyph-name="endash" unicode="&#x2013;" horiz-adv-x="416" 
d="M188 327l20 2l49 -3l23 -1l90 2l19 -2l20 -1q24 -5 24 -25q0 -8 -8 -18q-17 -23 -121 -23l-21 1l-62 2l-50 2l-97 -4q-23 0 -32 8q-9 7 -9 20q0 29 23 37q12 4 28 4l70 -2l14 1h20z" />
    <glyph glyph-name="emdash" unicode="&#x2014;" horiz-adv-x="607" 
d="M66 327l11 1l36 -3l59 3l87 -3h20l77 1l111 -3l88 -4l22 1q10 0 18 -3q18 -6 18 -23q0 -11 -7.5 -23t-16.5 -17l-9 -3l-24 -2h-10l-83 6h-8l-63 -1l-58 6l-103 -1l-65 6h-6l-65 -4q-24 0 -38 6q-24 9 -24 31q0 9 6 17q9 9 27 12z" />
    <glyph glyph-name="quoteleft" unicode="&#x2018;" horiz-adv-x="205" 
d="M196 604q26 0 26 -21q0 -6 -5 -14q-5 -7 -11.5 -9t-13.5 -6q-13 -5 -24.5 -21t-11.5 -39q1 -15 20 -27.5t21 -24.5v-6q0 -31 -26 -43l-14 -2l-10 1q-55 3 -55 77q0 54 40.5 94.5t63.5 40.5z" />
    <glyph glyph-name="quoteright" unicode="&#x2019;" horiz-adv-x="205" 
d="M144 607l7 1q21 0 39 -21t18 -44l-2 -26q-3 -34 -53 -87q-28 -32 -51 -32q-22 2 -25 21v1q0 11 14.5 20t18 12.5t13.5 17.5t13 26l1 8q0 7 -5 11q-27 19 -27 47t23 40z" />
    <glyph glyph-name="quotesinglbase" unicode="&#x201a;" horiz-adv-x="205" 
d="M96 101q28 0 40 -23q10 -22 12 -33v-4q0 -14 -14 -56q-7 -27 -53 -73q-19 -22 -34 -22q-22 0 -22 25q2 8 9 12l12 7q25 25 37 55v2q0 10 -12 18t-17 14q-11 17 -11 32l2 13q13 31 49 33h2z" />
    <glyph glyph-name="quotedblleft" unicode="&#x201c;" horiz-adv-x="362" 
d="M182 595q7 3 21 3q13 0 18 -4q8 -4 8 -12q0 -5 -4 -11q-5 -9 -16.5 -10t-26.5 -16t-17 -27l-1 -7q0 -13 8 -21t16 -18q9 -12 9 -25q0 -17 -12.5 -32t-27.5 -19l-7 -1q-30 0 -48 29q-10 20 -10 44q0 20 16 52l18 34q14 29 56 41zM332 599q27 0 27 -18l-3 -10l-4 -5l-13 -8
q-10 -6 -22 -28l-6 -10q-3 -6 -3 -12q0 -22 37 -53q6 -6 6 -15q0 -13 -9.5 -27.5t-21.5 -18.5l-20 -3q-43 0 -50 58l-1 11q0 35 28 91q4 9 11 16l12 14l17 14l10 4h5z" />
    <glyph glyph-name="quotedblright" unicode="&#x201d;" horiz-adv-x="362" 
d="M317 602q6 0 9 -2q23 -11 32 -28t9 -35q0 -48 -44 -98q-29 -44 -61 -44q-20 5 -20 23q1 7 23 27.5t25 30.5l3 16q0 8 -4 14l-14 20q-12 19 -12 37q0 32 34 36zM149 605l7 1q20 0 34.5 -18t17.5 -35l1 -12l-2 -26q-3 -38 -49 -87q-28 -32 -51 -32q-18 1 -20 17v1
q0 7 4 11.5t21.5 15t28.5 53.5l1 8q0 7 -5 11q-27 19 -27 47t23 40z" />
    <glyph glyph-name="quotedblbase" unicode="&#x201e;" horiz-adv-x="362" 
d="M90 103q39 0 51 -40l3 -31q0 -80 -60 -128q-21 -16 -41 -16q-22 4 -26 22v1q0 8 21 23.5t31 28t10 29.5q0 13 -13 22t-16 15q-7 12 -7 24q0 38 35 48zM254 98q34 0 46 -36q6 -21 6 -28l-5 -34q-12 -32 -43 -70.5t-54 -40.5h-13q-13 4 -13 17q0 4 3 9l5 7l18 13l4 5l19 21
q7 19 7 24q0 11 -16 37q-8 10 -8 38q0 33 20 36z" />
    <glyph glyph-name="dagger" unicode="&#x2020;" horiz-adv-x="412" 
d="M281 454q6 -9 66 -9l38 3q13 0 21 -5q25 -11 25 -38q0 -13 -12 -20q-16 -10 -36 -10l-13 1l-19 2l-52 -3l-18 1q-8 0 -11 -2q-5 -3 -6 -11.5t-3 -14.5q-4 -17 -20 -207l-12 -110l-9 -81l-4 -45l-11 -82l-3 -10q-4 -8 -17 -16t-22 -10l-8 -1q-25 0 -30 30v3l5 26l18 123
l11 119l9 63l8 118l10 79l1 17q0 16 -18 16l-22 -3l-16 -1l-36 1l-17 -1q-27 0 -27 27l2 17q6 17 29 22l12 1l31 -1l39 2q27 0 32 4q6 6 7 16q7 102 17 128l9 22q11 15 38 15q12 0 17 -4q7 -7 12 -25l1 -9l-13 -80q-5 -20 -5 -41z" />
    <glyph glyph-name="daggerdbl" unicode="&#x2021;" horiz-adv-x="444" 
d="M259 605q8 4 19 4q36 0 40 -25v-6l-9 -54l-6 -62l-3 -29q0 -9 2 -11q4 -5 17 -5l38 2q69 0 86 -6q29 -12 29 -38l-2 -11q-6 -17 -32 -17l-25 2l-38 2l-24 1l-22 1l-22 -3q-22 -4 -25 -29l-3 -17l-7 -89l-3 -23q0 -21 22 -21l60 1l23 -2q15 -6 27.5 -20.5t12.5 -28.5
q0 -11 -9 -18q-10 -6 -34 -6l-52 5l-37 -3l-19 -1q-11 -3 -12 -16l-8 -42l-12 -174q0 -27 -12 -53t-31 -29l-9 -1q-29 0 -33 24v5l6 39l3 42l12 130l7 55l1 9q0 6 -4 9q-5 3 -14 3l-27 -3l-46 -1l-13 1h-14q-34 0 -41 30v4q0 14 8 25t20 13l9 1l27 -3l57 -4l16 1l22 2
q14 1 17 11q8 29 8 74l7 52l1 5l-2 12l1 5l2 12q0 6 -3 12q-3 5 -29 10l-78 2l-18 4q-16 6 -16 26q0 14 9 25q12 13 30 13l82 -2l22 -3q8 0 12 4q6 7 6.5 20t2.5 21l10 91l3 26q1 13 17 20z" />
    <glyph glyph-name="bullet" unicode="&#x2022;" horiz-adv-x="324" 
d="M171 413l13 1q40 0 67.5 -17t29.5 -33l4 -15l11 -19q8 -22 8 -42q0 -23 -9 -44q-31 -61 -121 -72h-8q-55 0 -83 49q-5 11 -8 40l-1 23q0 87 64 118q16 9 33 11z" />
    <glyph glyph-name="ellipsis" unicode="&#x2026;" horiz-adv-x="632" 
d="M97 102q16 0 32.5 -12.5t16.5 -24.5v-10q0 -8 -5 -17l-18 -30q-8 -12 -30 -12q-20 0 -35.5 15t-15.5 35l1 8q11 46 52 48h2zM521 102q15 0 33.5 -11t21.5 -28v-6q0 -20 -15 -35.5t-32 -19.5l-10 -1q-24 0 -33 9q-18 15 -18 39q0 28 21 44q2 2 27 9h5zM306 99q36 0 49 -22
l3 -17l-2 -15q-10 -35 -39 -45l-13 -2q-21 0 -34.5 18.5t-13.5 38.5q0 33 31 42z" />
    <glyph glyph-name="perthousand" unicode="&#x2030;" horiz-adv-x="1105" 
d="M220 613l31 -4q29 0 37 -3q31 -16 47 -54.5t16 -76.5q0 -64 -34.5 -112t-88.5 -59q-14 -4 -35 -4q-51 7 -84 34q-20 16 -28.5 44.5t-8.5 50.5q0 63 39 120q16 26 28 37q17 13 68 26zM973 304q40 0 69 -41.5t29 -90.5q0 -63 -23 -107q-16 -29 -28 -40q-18 -14 -64 -27
q-27 -9 -44 -9q-22 0 -53.5 19.5t-39.5 30.5l-7 12q-25 51 -25 72l1 9q12 75 58.5 123.5t126.5 48.5zM609 304q27 0 60 -21q11 -8 15.5 -15t15.5 -17q9 -7 17 -35q6 -16 6 -55q-5 -81 -52 -134q-33 -36 -65 -39l-21 -1q-21 0 -34 5l-40 17q-35 15 -49 50l-8 17q-9 18 -9 42
q0 23 14 71q8 23 29 54q30 53 114 61h7zM584 612q32 0 32 -25q-1 -10 -15 -32l-26 -40l-17 -22l-66 -114l-34 -43l-32 -59l-23 -30l-97 -145q-33 -40 -47 -69l-12 -25q-6 -11 -22 -13h-1q-11 0 -20 9.5t-9 25.5q3 21 17 42l28 40l43 56l24 43l73 109l26 42l49 73l53 91
l20 27l14 28q13 31 42 31zM939 237q-33 -4 -58.5 -38.5t-25.5 -79.5q2 -26 24 -46t54 -20q46 8 55 29l7 14q15 28 15 56q0 20 -7 40l-7 22q-3 15 -16 22l-17 3zM136 432q0 -12 5 -24l16 -28l4 -4q21 -14 48 -14l10 1q23 5 45 32.5t22 76.5l-1 16l-1 22q0 39 -53 39
q-42 0 -66.5 -29t-26.5 -68zM598 240q-31 -6 -41 -16q-22 -16 -28 -33q-17 -42 -17 -60l3 -20q8 -21 29.5 -39.5t45.5 -18.5l8 1q21 4 41 43.5t20 76.5q0 22 -9 35l-6 12l-5 4q-15 15 -41 15z" />
    <glyph glyph-name="guilsinglleft" unicode="&#x2039;" horiz-adv-x="213" 
d="M201 478q10 0 17 -8t7 -18l-2 -9q-8 -20 -22 -33t-27 -27l-26 -29l-7 -12l-12 -16q-4 -6 -4 -18q0 -24 14 -46q30 -53 41 -79l2 -15q0 -36 -23 -40h-3q-10 0 -25 15l-14 19l-23 53l-12 20q-30 47 -30 72l2 9l61 88q3 8 38 43q26 31 48 31z" />
    <glyph glyph-name="guilsinglright" unicode="&#x203a;" horiz-adv-x="213" 
d="M88 464q3 2 12 2q18 0 27 -15l15 -26l37 -64l20 -33l5 -14v-4q0 -9 -14 -31l-11 -18l-57 -70l-20 -27q-12 -20 -31 -24l-6 -1q-11 0 -18.5 9t-7.5 20l2 11l13 20q15 22 30 35q11 9 29.5 38.5t18.5 37.5q0 24 -28 60q-18 27 -27 52q-5 8 -5 18q0 18 16 24z" />
    <glyph glyph-name="fraction" unicode="&#x2044;" horiz-adv-x="356" 
d="M383 609l6 1q12 0 21 -9.5t9 -21.5l-1 -7q-3 -10 -11 -16.5t-15 -14.5q-18 -18 -37 -51l-34 -68l-24 -39l-102 -142l-69 -118l-48 -67l-12 -22l-10 -26q-7 -17 -24 -19l-8 -1l-8 1q-25 4 -25 27q0 25 24.5 60t96.5 147.5t107 159t51 75.5l21 41l31 47q33 58 61 63z" />
    <glyph glyph-name="uni2070" unicode="&#x2070;" 
d="M219 611q34 0 68 -27q16 -12 24 -32l9 -30l4 -12l3 -30v-4l-2 -20q0 -49 -5 -63q-27 -112 -64.5 -146.5t-87.5 -38.5q-11 0 -23 5q-54 19 -59 110l-1 46q0 140 61 215q9 12 33 23l37 4h3zM205 548q-21 -8 -40 -53q-21 -65 -21 -147q0 -80 33 -80l13 2q21 7 31 26l17 35
q28 68 28 138l-9 48q-4 16 -24 27q-12 5 -21 5z" />
    <glyph glyph-name="uni2074" unicode="&#x2074;" 
d="M294 608q16 0 18 -12v-6q0 -25 -7 -53l-22 -142q1 -7 8 -7l15 1q25 -4 25 -22v-8q0 -21 -10 -26l-10 -4l-27 -5l-7 -5l-4 -8l-14 -69l-8 -17q-9 -14 -33 -20l-6 -1q-7 0 -9 6l-4 20v14q0 31 7 52q7 18 7 24q0 11 -12 11l-14 -2l-44 -1l-24 1l-12 -2l-16 -3q-11 0 -20 12
q-6 10 -6 19q0 28 57 85l35 42l53 69l28 32q15 17 35 22zM233 508q-10 -3 -35.5 -43.5t-30.5 -46.5l-9 -13q-9 -10 -9 -17q1 -6 25 -6l41 2q8 1 14 32l11 65l1 14q0 13 -8 13z" />
    <glyph glyph-name="uni2075" unicode="&#x2075;" 
d="M238 608l8 2l62 3q13 0 17 -11l1 -7q0 -12 -7 -24t-17 -14l-24 -8l-76 -7q-19 -4 -22 -7q-5 -3 -5.5 -12t-2.5 -15l-3 -21q0 -6 2 -8q6 -7 19.5 -6.5t21.5 -1.5q46 -10 61.5 -17.5t27.5 -21.5q16 -22 16 -65q-2 -54 -30 -96l-36 -37q-29 -29 -86 -29l-18 1q-81 6 -81 41
l1 7q3 13 22 18q7 3 30 3l39 -10l14 -1q41 8 55 27q23 34 27 72v2q0 14 -10.5 26.5t-23.5 16.5l-73 8l-22 3l-8 4q-15 14 -15 33l6 32l9 56l9 34q8 26 54.5 27t57.5 3z" />
    <glyph glyph-name="uni2076" unicode="&#x2076;" 
d="M305 608l14 3q20 0 20 -27q0 -9 -3 -16q-3 -8 -8.5 -9.5t-20.5 -1.5l-29 -10q-28 -6 -81 -59q-25 -30 -27 -39v-1q0 -15 28.5 -15t47 -3.5t30.5 -13.5q38 -32 38 -86q0 -68 -50 -106q-16 -15 -54 -20l-7 -1l-32 5q-29 6 -36 10q-53 26 -53 108q0 92 47 164l17 24
q43 61 114 86zM156 382q-14 -14 -14 -61q1 -13 7.5 -29t14.5 -21t29 -5q22 0 30 5q24 14 29 50v8q0 26 -13 38t-45 18l-17 1q-16 0 -21 -4z" />
    <glyph glyph-name="uni2077" unicode="&#x2077;" 
d="M172 602l37 -2l14 1l21 -2l15 -1l65 3q41 0 44 -20v-5q0 -15 -12 -27.5t-58.5 -80.5t-87 -140t-66.5 -106q-9 -11 -31 -11q-23 4 -23 30l2 11l5 12l20 28l62 99l47 78l29 46q7 11 7 22q-3 7 -15 7l-25 -2l-48 2l-34 -1q-19 3 -23 12q-2 3 -2 8l1 11q0 13 4 17q7 8 22 9
l24 2h6z" />
    <glyph glyph-name="uni2078" unicode="&#x2078;" 
d="M220 613q70 0 91 -42l9 -29l3 -19q0 -18 -9 -34l-12 -19l-34 -37l-10 -9q-6 -5 -6 -12q0 -8 5 -14t8 -11q24 -44 26 -55l3 -24q0 -57 -45 -82q-27 -19 -83 -19q-33 0 -53 13q-11 8 -23 33.5t-12 43.5q1 20 9 35l15 30l7 12l23 20l9 7q6 4 6 12q0 7 -5.5 12t-8.5 10
q-16 29 -21 53l-1 14l2 19q15 92 107 92zM207 560q-16 -2 -23 -16.5t-11 -25.5l-1 -10l2 -16q0 -11 12.5 -25.5t20.5 -14.5q5 1 20 10q41 27 41 65q0 16 -10 27q-6 7 -43 7zM188 377q-13 -3 -29.5 -31.5t-16.5 -47.5q0 -16 12 -23q12 -8 36 -8l14 2q27 8 27 43q0 23 -11 38
l-16 19q-7 8 -16 8z" />
    <glyph glyph-name="uni2079" unicode="&#x2079;" 
d="M217 610q71 0 103 -68q5 -13 9 -63l1 -37l1 -17q0 -11 -5 -21q-8 -15 -13 -39q-14 -65 -114 -132q-49 -31 -99 -31q-13 1 -21 9.5t-8 19.5q0 10 7 17q9 8 27 11t29 8q69 36 93 60l12 16q6 8 6 21q0 7 -15 7l-19 -1q-41 0 -66 20q-46 40 -46 97q0 32 16 66q9 20 50 44
q26 13 52 13zM193 544q-13 -2 -17 -10l-9 -16q-5 -13 -5 -29q0 -21 10 -41t38 -20l16 3q35 6 43 14q6 9 6 21q0 21 -13 45t-27.5 29t-32.5 5z" />
    <glyph glyph-name="uni207A" unicode="&#x207a;" horiz-adv-x="314" 
d="M204 533l8 1l8 -1q16 -3 16 -33l-2 -34l-2 -16q0 -10 6 -14q5 -4 16 -3.5t17 -0.5q55 0 55 -35q0 -9 -11 -14l-7 -3l-28 -3h-24q-26 0 -31 -10q-6 -10 -9 -41t-9 -46t-24 -19l-6 -1q-8 0 -11.5 6.5t-6.5 14.5q-3 7 -3 15q0 11 3.5 22t3.5 33q0 13 -5 17q-10 7 -26 7
l-22 -3l-17 1q-14 1 -23 8.5t-9 17.5t11 18.5t22 8.5l38 -2l14 1q11 1 21.5 10.5t12 46t14.5 46.5z" />
    <glyph glyph-name="uni207B" unicode="&#x207b;" horiz-adv-x="314" 
d="M153 438l25 -3l40 1l32 -6q35 0 44 -3q10 -4 18.5 -15t8.5 -22q0 -13 -16 -19l-18 -2l-40 3l-23 1l-26 5l-73 3l-8 -1l-12 -1l-17 3q-7 3 -12.5 12.5t-5.5 18.5q0 10 7 14l3 2l14 4l14 3l40 2h5z" />
    <glyph glyph-name="uni207D" unicode="&#x207d;" horiz-adv-x="175" 
d="M201 671q7 3 14 3q24 0 24 -21l-1 -7q-3 -11 -12.5 -23t-24 -40t-29.5 -61q-18 -36 -41 -126q-10 -44 -10 -91q0 -74 37 -159l8 -24l1 -5q0 -17 -19 -29l-13 -3q-14 0 -25 20q-6 9 -12 34q-24 68 -27 94q-4 18 -4 74q5 105 25 160q32 84 55 121l36 60q13 20 18 23z" />
    <glyph glyph-name="uni207E" unicode="&#x207e;" horiz-adv-x="175" 
d="M109 675q13 0 16 -10t13.5 -25t16 -32t15.5 -74q12 -84 12 -117l-5 -53l-7 -41q-37 -129 -99 -210q-20 -28 -42 -28t-22 22q0 15 8 26l44 62l13 24l21 46l19 62q14 55 15 83v6q0 111 -20 166l-27 56l-2 11q0 24 29 26h2z" />
    <glyph glyph-name="uni2080" unicode="&#x2080;" 
d="M172 219q34 0 68 -27q16 -12 24 -32l9 -30l4 -12l3 -30v-4l-2 -20q0 -49 -5 -63q-27 -112 -64.5 -146.5t-87.5 -38.5q-11 0 -23 5q-54 19 -59 110l-1 46q0 140 61 215q9 12 33 23l37 4h3zM158 156q-21 -8 -40 -53q-21 -65 -21 -147q0 -80 33 -80l13 2q21 7 31 26l17 35
q28 68 28 138l-9 48q-4 16 -24 27q-12 5 -21 5z" />
    <glyph glyph-name="uni2081" unicode="&#x2081;" horiz-adv-x="227" 
d="M118 221l9 1q23 0 34 -20l2 -5l2 -17v-6l-10 -92l-2 -35l-12 -67l-9 -92l-3 -26q-3 -47 -27 -51h-5l-12 2q-18 7 -21 11q-6 6 -6 21l9 50l10 97l8 37l3 13l8 105q0 7 -10 7l-22 -4l-27 -6q-12 -6 -24 -6l-6 1q-12 4 -12 16q0 14 16 25q7 6 38 17q47 19 69 24z" />
    <glyph glyph-name="uni2082" unicode="&#x2082;" 
d="M181 227q11 0 40 -8q43 -13 43 -88q-3 -33 -18 -64q-14 -28 -37 -54.5t-40 -52.5l-46 -55q-2 -5 -9 -8.5t-7 -9.5q2 -10 19 -10l14 1l60 4l18 2q14 0 22 -10t8 -20q0 -19 -29 -30q-24 -7 -31 -7l-33 1l-66 -2l-57 4q-9 0 -16 6q-12 9 -12 20q0 12 12 24t21 24l50 59
l36 42l18 18l3 5l32 44l9 16q20 40 20 60q0 23 -33 23l-14 -1q-21 -6 -34 -17q-13 -10 -32 -10l-12 2l-11 8q-5 7 -5 17q0 11 8 19l19 19q28 27 90 29z" />
    <glyph glyph-name="uni2083" unicode="&#x2083;" 
d="M208 27q0 -7 9.5 -21t14.5 -25q6 -20 6 -41q0 -35 -16 -65l-16 -19q-42 -42 -108 -42q-61 0 -73 27q-3 6 -3 11q0 11 10.5 19t28.5 8l46 -2q73 0 73 68q0 23 -19 36.5t-52 13.5l-21 -1q-19 0 -22 13l-1 6l1 7q0 28 46.5 28t67.5 27q13 13 16 31l1 8q0 19 -17.5 32.5
t-35.5 13.5q-8 0 -14 -3l-29 -16l-10 -3l-7 -1q-23 0 -23 22q0 27 47 51l24 11l25 3q36 0 67 -21.5t36 -49.5q2 -5 2 -20q0 -42 -43 -90q-9 -10 -10 -14z" />
    <glyph glyph-name="uni2084" unicode="&#x2084;" 
d="M247 216q16 0 18 -12v-6q0 -25 -7 -53l-22 -142q1 -7 8 -7l15 1q25 -4 25 -22v-8q0 -21 -10 -26l-10 -4l-27 -5l-7 -5l-4 -8l-14 -69l-8 -17q-9 -14 -33 -20l-6 -1q-7 0 -9 6l-4 20v14q0 31 7 52q7 18 7 24q0 11 -12 11l-14 -2l-44 -1l-24 1l-12 -2l-16 -3q-11 0 -20 12
q-6 10 -6 19q0 28 57 85l35 42l53 69l28 32q15 17 35 22zM186 116q-10 -3 -35.5 -43.5t-30.5 -46.5l-9 -13q-9 -10 -9 -17q1 -6 25 -6l41 2q8 1 14 32l11 65l1 14q0 13 -8 13z" />
    <glyph glyph-name="uni2085" unicode="&#x2085;" 
d="M191 216l8 2l62 3q13 0 17 -11l1 -7q0 -12 -7 -24t-17 -14l-24 -8l-76 -7q-19 -4 -22 -7q-5 -3 -5.5 -12t-2.5 -15l-3 -21q0 -6 2 -8q6 -7 19.5 -6.5t21.5 -1.5q46 -10 61.5 -17.5t27.5 -21.5q16 -22 16 -65q-2 -54 -30 -96l-36 -37q-29 -29 -86 -29l-18 1q-81 6 -81 41
l1 7q3 13 22 18q7 3 30 3l39 -10l14 -1q41 8 55 27q23 34 27 72v2q0 14 -10.5 26.5t-23.5 16.5l-73 8l-22 3l-8 4q-15 14 -15 33l6 32l9 56l9 34q8 26 54.5 27t57.5 3z" />
    <glyph glyph-name="uni2086" unicode="&#x2086;" 
d="M258 216l14 3q20 0 20 -27q0 -9 -3 -16q-3 -8 -8.5 -9.5t-20.5 -1.5l-29 -10q-28 -6 -81 -59q-25 -30 -27 -39v-1q0 -15 28.5 -15t47 -3.5t30.5 -13.5q38 -32 38 -86q0 -68 -50 -106q-16 -15 -54 -20l-7 -1l-32 5q-29 6 -36 10q-53 26 -53 108q0 92 47 164l17 24
q43 61 114 86zM109 -10q-14 -14 -14 -61q1 -13 7.5 -29t14.5 -21t29 -5q22 0 30 5q24 14 29 50v8q0 26 -13 38t-45 18l-17 1q-16 0 -21 -4z" />
    <glyph glyph-name="uni2087" unicode="&#x2087;" 
d="M125 210l37 -2l14 1l21 -2l15 -1l65 3q41 0 44 -20v-5q0 -15 -12 -27.5t-58.5 -80.5t-87 -140t-66.5 -106q-9 -11 -31 -11q-23 4 -23 30l2 11l5 12l20 28l62 99l47 78l29 46q7 11 7 22q-3 7 -15 7l-25 -2l-48 2l-34 -1q-19 3 -23 12q-2 3 -2 8l1 11q0 13 4 17q7 8 22 9
l24 2h6z" />
    <glyph glyph-name="uni2088" unicode="&#x2088;" 
d="M173 221q70 0 91 -42l9 -29l3 -19q0 -18 -9 -34l-12 -19l-34 -37l-10 -9q-6 -5 -6 -12q0 -8 5 -14t8 -11q24 -44 26 -55l3 -24q0 -57 -45 -82q-27 -19 -83 -19q-33 0 -53 13q-11 8 -23 33.5t-12 43.5q1 20 9 35l15 30l7 12l23 20l9 7q6 4 6 12q0 7 -5.5 12t-8.5 10
q-16 29 -21 53l-1 14l2 19q15 92 107 92zM160 168q-16 -2 -23 -16.5t-11 -25.5l-1 -10l2 -16q0 -11 12.5 -25.5t20.5 -14.5q5 1 20 10q41 27 41 65q0 16 -10 27q-6 7 -43 7zM141 -15q-13 -3 -29.5 -31.5t-16.5 -47.5q0 -16 12 -23q12 -8 36 -8l14 2q27 8 27 43q0 23 -11 38
l-16 19q-7 8 -16 8z" />
    <glyph glyph-name="uni2089" unicode="&#x2089;" 
d="M170 218q71 0 103 -68q5 -13 9 -63l1 -37l1 -17q0 -11 -5 -21q-8 -15 -13 -39q-14 -65 -114 -132q-49 -31 -99 -31q-13 1 -21 9.5t-8 19.5q0 10 7 17q9 8 27 11t29 8q69 36 93 60l12 16q6 8 6 21q0 7 -15 7l-19 -1q-41 0 -66 20q-46 40 -46 97q0 32 16 66q9 20 50 44
q26 13 52 13zM146 152q-13 -2 -17 -10l-9 -16q-5 -13 -5 -29q0 -21 10 -41t38 -20l16 3q35 6 43 14q6 9 6 21q0 21 -13 45t-27.5 29t-32.5 5z" />
    <glyph glyph-name="uni208A" unicode="&#x208a;" horiz-adv-x="314" 
d="M157 141l8 1l8 -1q16 -3 16 -33l-2 -34l-2 -16q0 -10 6 -14q5 -4 16 -3.5t17 -0.5q55 0 55 -35q0 -9 -11 -14l-7 -3l-28 -3h-24q-26 0 -31 -10q-6 -10 -9 -41t-9 -46t-24 -19l-6 -1q-8 0 -11.5 6.5t-6.5 14.5q-3 7 -3 15q0 11 3.5 22t3.5 33q0 13 -5 17q-10 7 -26 7
l-22 -3l-17 1q-14 1 -23 8.5t-9 17.5t11 18.5t22 8.5l38 -2l14 1q11 1 21.5 10.5t12 46t14.5 46.5z" />
    <glyph glyph-name="uni208B" unicode="&#x208b;" horiz-adv-x="314" 
d="M106 46l25 -3l40 1l32 -6q35 0 44 -3q10 -4 18.5 -15t8.5 -22q0 -13 -16 -19l-18 -2l-40 3l-23 1l-26 5l-73 3l-8 -1l-12 -1l-17 3q-7 3 -12.5 12.5t-5.5 18.5q0 10 7 14l3 2l14 4l14 3l40 2h5z" />
    <glyph glyph-name="uni208D" unicode="&#x208d;" horiz-adv-x="175" 
d="M154 279q7 3 14 3q24 0 24 -21l-1 -7q-3 -11 -12.5 -23t-24 -40t-29.5 -61q-18 -36 -41 -126q-10 -44 -10 -91q0 -74 37 -159l8 -24l1 -5q0 -17 -19 -29l-13 -3q-14 0 -25 20q-6 9 -12 34q-24 68 -27 94q-4 18 -4 74q5 105 25 160q32 84 55 121l36 60q13 20 18 23z" />
    <glyph glyph-name="uni208E" unicode="&#x208e;" horiz-adv-x="175" 
d="M62 283q13 0 16 -10t13.5 -25t16 -32t15.5 -74q12 -84 12 -117l-5 -53l-7 -41q-37 -129 -99 -210q-20 -28 -42 -28t-22 22q0 15 8 26l44 62l13 24l21 46l19 62q14 55 15 83v6q0 111 -20 166l-27 56l-2 11q0 24 29 26h2z" />
    <glyph glyph-name="Euro" unicode="&#x20ac;" horiz-adv-x="459" 
d="M95 194q-1 9 -12 9l-19 -1l-16 3q-23 6 -23 27q0 16 15 30q6 6 27.5 6t26.5 6l2 5l2 20l2 14l-1 10q-1 9 -9 9h-12l-15 -1q-14 0 -23.5 11t-9.5 26q0 7 3 13q9 20 42 20l17 -2q16 0 25 8q6 5 7.5 13t4.5 15q11 30 25 47l31 38q67 91 232 91q68 0 68 -41q0 -29 -23 -33
l-9 -1l-24 2l-55 1l-21 -2q-49 -7 -84 -40l-30 -31l-10 -12l-18 -35l-2 -11q0 -6 2 -8q5 -7 52 -7l23 -1l53 2l49 -2q21 -3 27 -23l1 -13q-3 -23 -17 -27t-38 -4l-25 -2l-109 4l-22 1q-26 0 -28 -21l3 -28q3 -17 30 -17l122 -3h6l24 1l19 -3q13 -5 13 -17q0 -10 -6 -20
q-7 -13 -18 -16l-29 -4h-7l-27 1l-71 2l-35 1l-11 -2q-10 -2 -11 -8v-4q0 -11 8 -39q18 -56 69 -79q20 -10 39 -10l86 5q14 -1 23.5 -10t9.5 -22q0 -9 -4 -16q-7 -13 -22 -16t-27 -8q-13 -5 -37 -5l-37 1l-37 8q-89 24 -116 79q-29 55 -34 85z" />
    <glyph glyph-name="uni2117" unicode="&#x2117;" horiz-adv-x="682" 
d="M329 619l34 2q40 0 74 -8.5t41 -12.5l24 -12l18 -10l19 -9q15 -9 51 -45q55 -59 77 -129q10 -28 10 -66l-3 -53l-9 -59q-6 -42 -27 -80q-16 -27 -48 -56.5t-45 -36.5q-42 -24 -105 -44l-19 -5q-61 -8 -95 -8q-100 0 -167 60q-30 30 -50 61l-16 29q-31 49 -34 87
q-6 45 -6 67l4 25v32l16 72q12 46 45.5 88.5t63.5 59.5l61 31l19 6l29 6zM326 558l-98 -30q-19 -7 -44 -38q-40 -40 -54.5 -85t-14.5 -125l1 -15l2 -16q5 -62 62 -129l21 -22q10 -10 41 -27q40 -20 94 -20q35 0 75 9l21 6q64 23 91 39q34 18 59.5 62t32.5 113l2 23l-2 41
l-6 21q-3 23 -7 30q-29 55 -54 82q-24 30 -42 36l-34 15l-31 24q-10 7 -63 7l-39 1zM370 488l15 1l24 -2q21 -1 35 -13q29 -18 39 -41q5 -15 5 -31l-4 -28q-6 -29 -25 -53l-18 -19q-14 -11 -40 -20l-22 -9l-22 -5l-19 -1q-12 0 -16 -6q-5 -6 -5 -30l-8 -42q0 -31 -13.5 -47
t-27.5 -18h-2q-18 0 -18 26l4 31l3 31l9 59v24l5 23l13 77l8 60l6 19q11 13 58 13zM361 439l-13 -5q-6 -4 -6 -19l-6 -36l-6 -34v-21l-1 -5q0 -2 1 -2q1 -3 13 -3q55 11 70 42q10 24 11 30q0 17 -3 24q-13 30 -49 30z" />
    <glyph glyph-name="trademark" unicode="&#x2122;" horiz-adv-x="716" 
d="M421 465q-5 0 -7.5 -20.5t-4.5 -25.5l-24 -139q-5 -37 -30 -37q-7 0 -14 4q-15 10 -15 33q0 15 7 46l46 220l8 35q7 25 28 28l6 1q20 0 32 -20q8 -19 21.5 -76t22.5 -79l10 -28q3 -12 7 -14h2l3 1l6 6l26 44l8 9l24 38l17 30l7 8l26 36l20 30q11 16 28 16q6 0 16 -4
q15 -7 15 -32q0 -12 -8 -56l-2 -34l1 -67l-4 -69l1 -47l-4 -43q-5 -20 -19 -29q-8 -6 -16 -6q-14 0 -22 19l-3 20l6 50l1 42l5 73q0 29 -10 29q-6 0 -16 -13l-22 -29q-14 -19 -37 -71l-37 -78q-10 -17 -27 -17q-11 2 -17 12.5t-10 39.5l-9 39q-25 125 -42 125zM84 598
q10 4 29 4l13 -1l40 -3h4l94 7q18 0 33 -5l21 -7q8 -2 8 -13l-1 -10q-6 -27 -88 -27l-8 -1l-5 -5l-5 -14l-7 -38l-19 -185q0 -21 -9.5 -42t-25.5 -23h-6q-26 0 -27 44v20l1 21l13 83l14 129q0 8 -6.5 10t-27.5 2l-30 -1q-21 2 -21 25q0 14 2.5 20t13.5 10z" />
    <glyph glyph-name="uni2126" unicode="&#x2126;" horiz-adv-x="621" 
d="M450 69q2 -5 18 -5l46 4l27 3q36 0 36 -32q0 -22 -19 -35l-10 -4l-33 -5l-32 -2l-88 3l-10 -1l-27 -2q-21 0 -27 14l-2 12q0 18 18 38q16 23 43.5 47.5t57 63t39.5 56.5l13 26q30 60 30 95l-4 52q0 19 -4 27q-3 15 -13 25l-21 27q-54 65 -143 65q-79 0 -134 -63t-61 -126
l-2 -47l1 -12l19 -71q1 -8 18 -48l15 -34q24 -51 40 -71t17 -26l1 -7q0 -14 -10 -26.5t-24 -15.5l-5 -1l-19 4h-5l-19 -1l-24 6h-5l-22 -1l-52 8h-5l-24 -1l-16 2q-18 8 -18 29q0 12 7 22q8 14 27 14l73 -2l18 -1q15 0 15 7l-2 8l-12 20l-17 46q-11 19 -12 28l-13 37l-14 56
v6l9 102l7 27l22 44q15 33 22 41q27 36 75 68l55 32q18 8 53 13q32 7 43 7q46 0 109 -30t102 -90l13 -27q9 -17 12 -48l1 -18q0 -68 -29 -134l-20 -48q-33 -54 -69.5 -94.5t-36.5 -51.5z" />
    <glyph glyph-name="arrowleft" unicode="&#x2190;" horiz-adv-x="959" 
d="M420 643l13 1q12 -2 22 -14t10 -24l-1 -5q-6 -22 -34.5 -45.5t-93.5 -96.5l-61 -63l-31 -42q-8 -8 -8 -14t13 -6h12l60 3l9 -1l4 -1l22 3l47 -2l73 5l42 5l27 2l20 -1l26 -1l72 -2l41 3l52 -5l35 -2l48 4l12 -1q9 -2 16.5 -14.5t7.5 -25.5q0 -8 -3 -12q-5 -9 -27 -21
q-14 -7 -30 -7l-125 8h-9l-57 -2l-78 2l-33 -3l-25 1l-19 -2l-12 -1l-25 1l-12 -1l-24 -2l-33 1l-125 -4l-28 3q-10 0 -11 -4v-3q0 -10 5 -15l5 -8l70 -75l40 -40q60 -70 71 -88l26 -37q2 -3 2 -11q0 -13 -9.5 -25t-21.5 -17l-10 -1q-25 0 -48 36.5t-56 78t-69 84.5
l-100 124q-10 14 -10 35q2 22 13 31l36 27l159 177l88 89l18 16z" />
    <glyph glyph-name="arrowup" unicode="&#x2191;" horiz-adv-x="780" 
d="M388 613q8 0 14 -4q45 -31 69 -57l94 -99l113 -129l35 -30l13 -16q4 -5 4 -13q0 -19 -22 -29q-12 -5 -21 -5q-30 0 -59 34l-177 198q-10 10 -14 10q-3 0 -4 -2q-4 -5 -4 -34l-1 -20l4 -89l-3 -27l4 -204l-1 -18l-3 -31l-4 -81l-1 -64l-1 -39l-4 -16q-3 -13 -18.5 -24.5
t-30.5 -11.5q-26 4 -29 36l3 26q3 72 8 109l4 43l-2 70q4 40 4 89l-4 99l1 70l7 114q0 19 -5 27q-2 3 -5 3q-6 0 -16 -10q-24 -21 -43 -48l-43 -46l-79 -82l-34 -44q-28 -42 -53 -42q-8 0 -15 4q-15 7 -15 23q0 38 71 105l100 98l60 76l58 59q23 22 45 22z" />
    <glyph glyph-name="arrowright" unicode="&#x2192;" horiz-adv-x="959" 
d="M605 611l63 -76l68 -79l35 -29l24 -27l27 -26q15 -18 22 -23l26 -20q14 -10 15 -30v-2q0 -23 -40 -59l-95 -92l-27 -28l-80 -89l-43 -46l-15 -21q-6 -8 -17 -10h-5q-17 0 -33.5 12t-16.5 29q4 17 17.5 31t24.5 25l57 64l53 54l26 33l32 35q6 6 6 11l-1 3q-2 5 -14 7
l-23 4l-14 -1l-37 4l-39 -2l-60 -3l-89 -3l-61 -1l-77 3l-10 -1l-12 -1l-51 6l-59 2h-4l-39 -4l-10 1q-25 6 -25 42q0 8 4 18q11 21 40 21l38 -3l33 3l16 1l99 -7l63 -3l99 7h8l41 -1l50 7h5l34 -3h63q16 0 19 7l1 5q0 6 -6 14l-38 44l-82 97l-28 27l-46 51q-5 6 -5 17
q0 17 12 29.5t29 12.5t29 -13t23 -24z" />
    <glyph glyph-name="arrowdown" unicode="&#x2193;" horiz-adv-x="780" 
d="M397 793q32 0 38 -23l3 -23l-1 -13l-7 -132l-3 -116l2 -85l-5 -88l1 -13l1 -58l2 -16v-72q1 -14 7 -16h2q5 0 9.5 6t8.5 8l212 211q14 13 33 13l13 -3l9 -5q12 -12 12 -24q0 -19 -22 -41l-55 -53l-91 -95l-25 -21l-50 -52l-17 -24l-14 -12q-13 -8 -18 -14
q-14 -19 -32 -27l-31 -9h-3q-10 0 -16 8t-16 13q-13 8 -22 21l-36 43q-14 16 -47 41t-45 42q-47 62 -92 103l-20 17q-46 38 -46 65q0 15 14 26q10 7 21 7q23 0 58 -35l65 -75l60 -59l41 -46l30 -28l7 -8q5 -4 10 -4q3 0 6 3q4 5 4 14l-3 24l-3 73l1 18l-3 61l1 9l2 84l6 112
l1 79l-1 24l3 29l2 92q0 44 39 44z" />
    <glyph glyph-name="uni2196" unicode="&#x2196;" horiz-adv-x="780" 
d="M181 440q-9 -4 -9 -24l2 -38l1 -49l-1 -17l-4 -179q-4 -43 -36 -45h-4l-9 1q-25 6 -25 37l3 173v15l-3 93l-5 71l1 15l1 21l-1 22l-1 18q0 55 34 55l29 -4l17 -1l26 2q7 2 69 2l27 -2l42 -1l51 -7l62 -1l91 -8q39 0 48 -4q17 -11 17 -32q0 -19 -13 -29q-8 -8 -38 -8l-7 1
l-55 2q-54 9 -83 9l-20 -1l-143 10q-16 0 -19 -5l-1 -4q0 -6 7 -13l67 -61l44 -42l82 -93l72 -70l6 -8l106 -112l21 -22q12 -11 18 -24q3 -8 3 -18q0 -27 -14 -37q-11 -7 -26 -7q-13 0 -22 6q-10 6 -28 30l-44 56q-14 22 -40 43q-43 34 -112 110l-132 143q-31 32 -47 32z
" />
    <glyph glyph-name="uni2197" unicode="&#x2197;" horiz-adv-x="780" 
d="M228 601l108 -3h36l78 -1l21 1l146 3l32 -3h4l21 1l10 -2q9 -5 9 -23l-5 -48l3 -66l-2 -66l3 -105l2 -41l-2 -68l-5 -70q-2 -13 -15 -18q-7 -4 -15 -4q-17 0 -27 16t-12 33l-2 20l5 56l-3 82l-1 24l2 106l-3 33l-3 10q-1 6 -8 6q-10 -4 -19 -17t-17 -21l-58 -62l-24 -24
l-39 -43l-258 -242l-21 -23q-22 -25 -35 -25l-6 1q-11 3 -18.5 14t-7.5 22q0 8 2 11q4 8 29 33l43 47l145 136l64 61q25 25 77 88l22 23q54 52 55 64v5q-2 5 -19 9l-46 3l-12 -1l-13 -1l-44 2l-53 -2l-133 3l-12 2q-22 7 -22 31q0 11 5 17q8 10 33 16h5z" />
    <glyph glyph-name="uni2198" unicode="&#x2198;" horiz-adv-x="780" 
d="M133 561l10 1q14 0 40 -21l82 -74q14 -12 32 -35t38.5 -38.5t26.5 -22.5l30 -31l67 -76l60 -57q73 -73 79 -81.5t14 -12.5q9 0 9 21l4 85l-5 192l-7 62q0 46 48 46q16 -2 19 -14.5t4 -23.5l5 -70l2 -36l-2 -60l3 -168q0 -95 -11.5 -121t-48.5 -26l-23 2l-16 1l-87 -2
l-30 3l-173 1l-77 -5l-18 1q-14 1 -23.5 10.5t-9.5 22.5q0 9 6 18q15 22 142 22h67l32 -1l39 3q7 2 33.5 2t29.5 3v1q0 7 -30 30l-6 6l-70 70l-41 52l-41 42l-34 35l-94 92l-29 32l-28 22l-19 20l-13 10q-16 10 -16 28q0 14 9 25.5t21 14.5z" />
    <glyph glyph-name="uni2199" unicode="&#x2199;" horiz-adv-x="780" 
d="M636 579q14 0 26 -12t12 -26l-2 -9q-6 -13 -34 -38l-65 -60l-32 -32l-59 -59l-49 -45l-42 -42l-81 -86l-75 -71l-12 -11q-9 -8 -9 -14l1 -3q1 -4 8 -4l12 3q70 10 217 10l30 -1l51 1l11 -1l30 -3q19 -1 29 -9q7 -6 7 -13q0 -14 -14 -28.5t-23 -18.5q-33 -12 -77 -12
l-58 5l-20 1h-6l-24 -1l-72 -4h-10l-41 1l-22 -2q-45 -8 -80 -8l-27 2q-27 5 -36 13q-14 14 -14 44l3 111l4 36l-4 59l3 55l-4 110l-4 31q0 34 24 49q7 5 17 5q39 0 39 -76v-49l6 -155l1 -14l-4 -56q0 -13 8 -13q8 2 15.5 12t13.5 15l59 59l126 137l71 66l22 26l24 28l64 58
l29 26q15 13 37 13z" />
    <glyph glyph-name="uni21B0" unicode="&#x21b0;" horiz-adv-x="758" 
d="M222 263l-1 -4q0 -8 21.5 -25.5t67.5 -72.5t64 -82q18 -28 18 -49q0 -22 -23 -29l-8 -1q-21 0 -39 29l-48 63l-74 82l-32 28l-70 66l-12 9q-12 8 -14 22l-1 6q0 24 42 59l17 18q46 60 94 99t66 60q40 46 69 50l7 1q15 0 29 -10t14 -24l-1 -5q-3 -16 -22 -28l-22 -16
l-113 -97q-52 -47 -52 -63q1 -5 7.5 -6t22.5 -1q51 -6 80 -6l11 1l16 1l294 -5l19 -2q32 0 32 -36l-2 -37l3 -36l1 -43l-1 -17v-90q0 -55 -33 -58l-14 -3l-3 1q-20 6 -21 22l-2 32l-3 32l4 25l-1 47l2 36l1 14q0 30 -13 38q-3 2 -10 2l-19 -2l-41 -1l-12 1l-48 2h-51l-118 7
l-37 -3l-29 2q-11 0 -12 -3z" />
    <glyph glyph-name="uni21B1" unicode="&#x21b1;" horiz-adv-x="758" 
d="M539 251q-4 9 -30 9l-126 -7l-66 1l-9 2l-40 4l-20 1l-46 -3h-3l-22 2q-9 0 -14 -4q-16 -11 -19 -41l-9 -171q-5 -41 -44 -41q-33 4 -33 50l9 102l8 112q7 59 26 71q7 6 27 6l55 -3l41 2l41 -1l51 1l109 -6l34 3l88 -5q13 0 16 6v2q0 7 -10 17.5t-14 15.5q-15 28 -68 92
q-23 30 -44 46l-26 31q-16 14 -16 36q2 23 33 23l19 -3q17 -5 33 -19l36 -34l34 -37l58 -77l38 -46l46 -66q6 -8 6 -18l-1 -8q-2 -9 -10 -14.5t-16 -13.5t-8.5 -14t-10.5 -13t-22.5 -25.5t-53.5 -59.5l-29 -28l-57 -68l-34 -48l-18 -22q-10 -13 -24 -13l-13 3q-9 3 -12 8
q-8 9 -8 22q0 12 8 24l127 168q34 37 34 46z" />
    <glyph glyph-name="uni21B2" unicode="&#x21b2;" horiz-adv-x="758" 
d="M190 276q0 -8 18.5 -28.5t34.5 -41.5l73 -89l14 -20q21 -31 21 -48q0 -15 -14 -27l-14 -6l-8 -1q-20 0 -42 33q-20 32 -50 64.5t-53 63.5q-33 48 -62 78l-21 18q-16 14 -16 29q0 10 6 17l130 144l74 66l42 45l20 16q8 6 20 8h5q18 0 31 -11.5t13 -25.5q0 -11 -7 -18
q-9 -11 -34.5 -28t-49.5 -41l-60 -63l-30 -40q-7 -7 -7 -13v-2q2 -8 80 -8l34 -2q37 0 127 -9l118 -8q12 0 16 7q7 11 7 31l-4 47l-1 29l3 108q0 40 6.5 53t25.5 17l9 1l8 -1q21 -4 21 -37l-2 -48l-2 -41l5 -120v-4l-2 -26l-5 -30q-2 -31 -8 -39.5t-22.5 -17t-30.5 -8.5
l-25 2l-105 14l-28 4l-85 5l-37 -1l-111 10q-23 0 -26 -6v-1z" />
    <glyph glyph-name="uni21B3" unicode="&#x21b3;" horiz-adv-x="758" 
d="M127 623q30 0 31 -55v-22l-4 -162q0 -28 20 -31q6 -2 95 -2l55 -5l126 -3l41 2l15 -1l11 -1q7 0 8 4l1 4q0 7 -6 13l-29 37l-62 85l-43 51l-12 19q-5 7 -5 18q0 17 14.5 27.5t31.5 10.5l12 -2q18 -6 35 -37l35 -47l116 -138l25 -33l47 -58q5 -7 5 -18q-3 -21 -17 -29
t-28 -19l-22 -19q-150 -148 -166.5 -172t-27 -32.5t-24.5 -8.5q-15 1 -32 12t-17 25l1 6l4 8l17 19l62 62l35 35l44 51l15 16q4 5 4 11q0 14 -37 14l-16 1l-49 3l-56 4l-18 -1l-26 2q-27 0 -35 2l-37 2l-97 2l-66 4q-31 4 -31 40l4 41l8 171l-2 54l1 9q4 25 44 31h2z" />
    <glyph glyph-name="uni21B4" unicode="&#x21b4;" horiz-adv-x="745" 
d="M79 620l63 -5l96 1q38 0 59 -4l49 -5l46 -2q23 -3 24 -27v-36l-2 -20l-6 -63q-2 -10 -2 -79l3 -87l-2 -72l3 -55l-1 -13q0 -8 3 -12q1 -3 5 -3q2 0 13 7l30 19l55 59l76 74q30 27 47 27q28 0 28 -39q0 -11 -3 -18q-13 -26 -62 -65l-46 -43q-86 -91 -131 -122
q-5 -3 -21.5 -21t-32.5 -18q-13 0 -44 26t-49.5 51.5t-28.5 34.5q-94 82 -157 192l-8 15l-1 6l1 5q1 7 14 15t27 8q11 0 18 -5q14 -10 22 -27t18 -30q19 -26 60 -69t66 -62q9 -9 14 -9q6 0 6 16l1 207v65l4 70l1 10q0 12 -8 17q-11 8 -23.5 6.5t-33.5 3.5t-43 5t-48 1
l-103 1l-9 3q-22 10 -22 33q0 27 28 33h7z" />
    <glyph glyph-name="carriagereturn" unicode="&#x21b5;" horiz-adv-x="758" 
d="M640 624q38 0 41 -50l1 -55l-1 -100l-1 -66l1 -13l6 -33q0 -13 -14 -29q-16 -19 -53 -19l-109 3l-25 -2l-42 1l-99 -4l-17 1l-99 7q-10 0 -13 -4v-2q0 -4 5.5 -6.5t7.5 -4.5l87 -70l96 -107l15 -12q21 -15 26 -23q4 -7 4 -14q0 -14 -15 -24.5t-33 -10.5q-21 0 -37.5 11.5
t-50 53.5t-78.5 83l-51 46l-56 45l-22 25q-4 6 -25.5 23.5t-23.5 28.5v3q0 23 51 58l15 12l66 60l53 52q38 32 49 46l54 65q7 10 18 13l12 2q33 0 33 -32q0 -19 -25.5 -46t-28.5 -31l-27 -33l-51 -47l-19 -24q-33 -35 -49 -46l-6 -4q-5 -3 -5 -7l1 -2q3 -5 10.5 -5t12.5 -1
l46 3l77 -3h9l139 3l29 1h8l42 -1l9 2q13 3 13 15l1 20l6 43v8l-3 58l3 40l-2 16q-4 12 -4 27l1 16q2 36 32 40h5z" />
    <glyph glyph-name="partialdiff" unicode="&#x2202;" horiz-adv-x="461" 
d="M157 695q10 4 23 4q40 0 66 -19q17 -11 52.5 -26t62.5 -56l31 -50q18 -32 27 -62l8 -39q7 -28 12 -78l4 -47l-4 -39l-1 -50l-18 -52l-28 -68q-55 -95 -136 -122l-13 -3l-53 -2l-48 5q-20 4 -32 12q-24 11 -41 37l-9 15q-20 30 -20 81q0 96 26 142q25 52 86 98
q24 17 58 29.5t53 12.5l26 -2l10 -2q27 0 38 -5q10 -5 14 -5q8 0 8 11l-1 14q-2 33 -20 61l-34 56q-18 28 -47 48q-40 25 -53 30q-18 5 -26 10q-37 24 -37 43q0 11 16 18zM251 350q-43 -9 -90 -59l-22 -29q-7 -16 -13 -47l-7 -65q0 -48 28 -71q19 -15 42 -16h9l43 7
q18 3 44 29q37 35 60 103q14 39 16 65l3 37l-2 14l-5 7l-19 13q-26 15 -56 15z" />
    <glyph glyph-name="uni2206" unicode="&#x2206;" horiz-adv-x="494" 
d="M309 610q34 0 40 -18l4 -13l17 -65q10 -66 29 -141l26 -129l37 -140l4 -34v-4q0 -55 -20 -67q-12 -6 -35 -6l-47 5l-36 2h-8l-38 -1l-86 6l-69 -5l-22 2l-20 -3l-19 1q-10 0 -13 -2l-11 -2q-15 0 -26 11.5t-11 24.5l1 9l9 22l19 37q43 70 75 150l43 93l47 91l20 52l22 41
l17 46q15 37 51 37zM97 74q1 -1 15 -1l128 2l44 -6l19 3l51 -6l18 -3q5 0 8 3q3 2 3 8l-4 43l-15 52l-48 243l-11 68q-3 15 -9 15q-18 0 -57 -100t-60 -144l-28 -51l-25 -45l-17 -50q-13 -17 -13 -29z" />
    <glyph glyph-name="product" unicode="&#x220f;" horiz-adv-x="477" 
d="M206 685l28 2l70 -4l95 -3h8l31 1l14 -1l68 -5q18 -2 22.5 -4.5t7.5 -7.5l1 -8q0 -12 -6 -28t-14 -22q-6 -5 -25 -5l-29 1q-31 0 -34 -14l-10 -82l-20 -110l-2 -66l-22 -103l-14 -123l-5 -20l-16 -122v-4l2 -25l-9 -47q-5 -49 -17 -69q-16 -24 -34 -26h-3q-23 0 -26 20
l-1 6l4 26l10 74l2 52l12 95l17 93l11 92l13 48l12 120l8 36l11 66l3 43l2 23q0 16 -10 21q-5 2 -35 2l-54 6l-23 3q-10 0 -15 -4q-8 -8 -8.5 -21t-2.5 -21l-5 -29l-8 -106l-14 -78l-3 -47l-27 -167l-10 -34l-15 -129l-15 -82q-7 -70 -10 -82q-12 -36 -44 -36q-30 4 -30 45
l8 43l6 41l11 42q7 95 23 168l26 150l4 58l12 46l7 73l15 128l2 19q0 10 -3.5 14t-19.5 4l-19 1q-51 0 -51 28l3 16q8 25 36 25l24 -1q55 0 80 5z" />
    <glyph glyph-name="summation" unicode="&#x2211;" horiz-adv-x="396" 
d="M67 -132q0 -6 28 -6l85 4l70 -1l54 2h8q54 0 54 -32l-3 -13q-10 -26 -47 -26l-43 3l-225 -5l-24 2q-37 2 -48 40l-2 13q0 13 9 23t16 20l42 58l33 43l68 76l15 23l53 64l24 38l23 29l13 14q7 7 7 16q0 14 -10.5 30t-15.5 30l-13 27l-47 69l-14 31l-7 9l-20 33l-78 120
q-16 27 -16 44q0 11 6 22q11 18 54 21l27 2l67 2l73 -4l44 1l48 -5l25 -2q66 0 66 -38q0 -30 -66 -30q-35 0 -80 9l-12 1l-33 -2l-86 4l-13 -1q-13 -3 -16 -10v-1l1 -5l9 -15l39 -60l117 -197l14 -29l7 -9q16 -19 19 -32v-7q0 -21 -13 -35l-35 -37l-23 -31l-15 -26
q-14 -20 -31.5 -35.5t-31.5 -34.5l-20 -32l-79 -89q-31 -38 -38 -50q-13 -13 -13 -23z" />
    <glyph glyph-name="minus" unicode="&#x2212;" horiz-adv-x="416" 
d="M223 326l13 1l30 -2l60 -3l31 -1q25 1 41 -7q22 -9 22 -31q0 -20 -21 -24l-22 -3l-35 5l-80 1l-46 1l-14 -1h-7l-28 1l-58 -1l-12 1h-4l-16 -1l-8 1q-11 2 -18.5 13.5t-7.5 23.5q0 11 5 16q9 10 27 10l68 -2l13 1z" />
    <glyph glyph-name="uni2219" unicode="&#x2219;" horiz-adv-x="416" 
d="M190 413l13 1q40 0 67.5 -17t29.5 -33l4 -15l11 -19q8 -22 8 -42q0 -23 -9 -44q-31 -61 -121 -72h-8q-55 0 -83 49q-5 11 -8 40l-1 23q0 87 64 118q16 9 33 11z" />
    <glyph glyph-name="radical" unicode="&#x221a;" horiz-adv-x="498" 
d="M524 672l10 2q25 0 25 -29q0 -6 -6 -21q-7 -33 -25 -79l-23 -60l-77 -175l-13 -38l-24 -70q-6 -10 -7.5 -22.5t-22.5 -53.5l-38 -79l-14 -24q-7 -12 -21 -17q-27 -8 -44 -8q-33 0 -41 19l-4 16l-22 135l-2 30q-9 40 -11 96q0 38 -5 66l-5 25l-4 7q-6 11 -20 11l-9 -1
l-19 -2q-18 0 -48 6q-22 6 -22 21q0 8 8 18q17 17 46 17l29 1l55 2l13 -2l15 -2q9 -1 11 -4q12 -11 14.5 -32t5.5 -36l3 -19l16 -155l3 -26l16 -74q2 -10 8 -10l2 1q7 3 10.5 18t7.5 22l27 66l61 159l85 205l7 24q13 56 29 64z" />
    <glyph glyph-name="infinity" unicode="&#x221e;" horiz-adv-x="655" 
d="M529 440q47 0 84.5 -39.5t37.5 -101.5q0 -22 -7 -50q-10 -30 -31 -52l-18 -19q-25 -23 -68 -33q-16 -5 -66 -5q-10 0 -22 4l-19 10l-88 70q-4 5 -10 6h-3q-14 0 -30.5 -15t-48.5 -29t-63 -19q-21 -6 -30 -6q-17 0 -34 5q-21 4 -33 15q-33 26 -33 78q0 31 11 62
q11 51 58 82q20 13 52 13q27 0 54 -9q24 -7 34 -16l45 -44q14 -14 21 -14q5 0 18 10q25 20 37 26l56 37q54 34 96 34zM510 367q-50 -7 -106 -53l-19 -15q-7 -6 -9 -15v-2q0 -13 24 -34q38 -38 85 -38l22 2q33 6 55.5 29.5t22.5 54.5q0 28 -20 50t-46 22zM113 274
q0 -36 22 -42l13 -2l17 -1q20 0 38 7q22 7 57 30q9 6 12 15v2q0 8 -19 31q-35 37 -79 37q-31 0 -46 -26t-15 -51z" />
    <glyph glyph-name="integral" unicode="&#x222b;" horiz-adv-x="232" 
d="M245 677l12 1q19 0 38 -9.5t19 -29.5l-1 -10q-3 -13 -10 -16.5t-28 -3.5t-30 -5q-21 -15 -26 -38l-11 -45l-10 -52l-13 -130l-16 -95v-19l-8 -60l-11 -100q-12 -118 -38.5 -177.5t-75.5 -85.5q-15 -10 -43 -10q-13 1 -22.5 15.5t-9.5 29.5q0 13 10 21.5t22.5 8t24.5 7.5
q13 11 26.5 37t14.5 61t9.5 63.5t11 74t20.5 158.5l17 141l13 69q20 181 115 199z" />
    <glyph glyph-name="congruent" unicode="&#x2245;" horiz-adv-x="416" 
d="M170 487q34 0 50 -8q22 -7 51.5 -29.5t50.5 -30.5q7 -3 16 -3q8 0 20 5q10 5 21.5 16.5t26.5 11.5q26 -7 26 -30q0 -18 -27 -40t-41 -24l-21 -3q-36 0 -89 35l-26 15q-24 11 -63 17h-3q-10 0 -32.5 -17.5t-32.5 -17.5q-7 0 -11 3q-15 9 -15 27q0 12 8 19l31 32l9 6
q21 12 39 15zM178 323l107 -6l82 -2l30 -1q27 -4 27 -31q0 -10 -7 -20q-5 -10 -14 -12l-6 -1q-7 0 -20 5l-11 1l-21 -1l-49 2l-22 -1l-40 4l-42 -2l-12 1l-26 6h-4l-58 -5q-40 0 -40 31q0 16 15 24q13 7 43 7zM107 195l44 -1l28 1l66 -3l109 -5l15 -3l19 -4q9 -2 15 -9
q8 -10 8 -22q0 -15 -16 -21l-21 -4l-28 5l-32 1l-115 5l-48 5h-46l-36 -4l-19 3q-16 6 -16 24q0 16 13 23q7 5 38 8z" />
    <glyph glyph-name="approxequal" unicode="&#x2248;" horiz-adv-x="416" 
d="M172 416q27 0 62 -15q26 -15 30 -16l35 -16l22 -3l12 1l58 25l15 1q25 -5 25 -27q0 -10 -7 -20q-10 -12 -42.5 -29t-60.5 -17q-24 0 -57 11l-12 4l-25 15q-42 18 -72 18q-14 -2 -32 -20.5t-24 -21.5t-13 -3l-13 2q-18 5 -18 29q0 13 6 22q24 40 87 57zM162 278
q33 0 56.5 -15t34.5 -18l39 -15l18 -2q12 0 32 16t31 16l12 -2q19 -8 19 -29q0 -11 -5 -18q-12 -19 -40 -34.5t-58 -15.5q-16 0 -28 4l-43 16l-25 17l-16 7q-14 6 -62 6q-14 -1 -20 -10t-15 -17q-7 -7 -24 -7q-10 0 -13 2q-16 9 -16 29q0 12 7 26l6 7l16 11l16 10
q27 16 78 16z" />
    <glyph glyph-name="notequal" unicode="&#x2260;" horiz-adv-x="416" 
d="M321 468l8 2q7 0 15 -16q3 -5 3 -10q0 -11 -13.5 -24.5t-13.5 -22.5q4 -13 34 -13l25 1q50 -5 50 -31l-3 -13q-8 -21 -43 -21l-16 1h-8l-32 -1l-37 3q-11 0 -15 -3l-17 -22q-11 -11 -13 -27v-1q0 -7 19 -7l83 1l26 2q34 0 41 -28l1 -5q0 -15 -17.5 -25t-35.5 -12l-120 -3
q-32 0 -38.5 -3t-16.5 -20l-34 -62q-8 -13 -21 -16l-7 -1q-8 0 -9.5 8t-1.5 21q0 12 15 36l6 8l2 6q7 11 7 19v2q-1 7 -42 7q-6 2 -35.5 2t-40.5 7q-15 9 -15 28q0 29 32 29l74 -2l13 1l19 -2l11 -1q15 0 27 6q7 3 16 18t11 23v2q0 11 -41 11l-84 4l-22 3q-20 0 -28 15
l-3 13q0 16 16 22l32 11l11 1l38 -5l33 -3l26 -1l35 -3q22 0 33 8t26 42t35 41z" />
    <glyph glyph-name="lessequal" unicode="&#x2264;" horiz-adv-x="416" 
d="M305 468l46 22q7 3 19 3q17 0 26 -7q12 -9 12 -22q0 -9 -6 -16l-9 -9l-26 -14q-8 -5 -16 -5.5t-17 -4.5l-29 -12l-66 -31l-43 -21l-10 -6q-4 -3 -4 -7q0 -13 40 -33l73 -39l30 -21l46 -22l9 -7q9 -11 9 -22q0 -15 -16 -24q-8 -4 -20 -4q-33 0 -79 36q-15 11 -44 23.5
t-38 18.5l-85 53q-31 20 -31 45q0 19 63 47zM58 56l-6 -1q-12 0 -24 7t-12 19q0 7 2 10q5 10 16 15l21 10q18 8 43 8l50 -1l32 1l78 -1l21 1l66 4h2q14 0 26 -8t12 -20q0 -5 -5 -15q-13 -24 -85 -24l-121 -6l-45 3l-20 -1l-33 1z" />
    <glyph glyph-name="greaterequal" unicode="&#x2265;" horiz-adv-x="416" 
d="M170 204l-20 -15q-22 -20 -45 -20q-17 0 -26 7q-12 9 -12 22q0 19 27 32l14 7l33 20l29 12l66 31l43 21l10 6q4 3 4 7q0 13 -40 33l-73 39l-30 21l-48 23l-7 6q-9 10 -9 22q0 15 16 24q8 4 20 4q33 0 79 -36l17 -11l55 -25l95 -60q20 -12 28 -31l3 -13q0 -19 -63 -47z
M348 125l6 1q12 0 24 -7t12 -19q0 -7 -2 -10q-5 -10 -16 -15l-21 -10q-18 -8 -43 -8l-50 1l-32 -1l-78 1l-21 -1l-66 -4h-2q-14 0 -26 8t-12 20q0 5 5 15q13 24 85 24l121 6l45 -3l20 1l33 -1z" />
    <glyph glyph-name="dotmath" unicode="&#x22c5;" horiz-adv-x="416" 
d="M198 344l11 2q18 0 32.5 -14.5t15.5 -33.5q0 -44 -44 -55l-8 -1l-10 1q-17 3 -22 7q-8 7 -13 28l-1 26q2 12 14 24.5t25 15.5z" />
    <glyph glyph-name="H18543" unicode="&#x25aa;" horiz-adv-x="730" 
d="M637 606q19 0 32 -32q4 -11 4 -23l-3 -41l3 -31v-84l-2 -15q-4 -10 -4 -17l3 -15l-1 -19l-2 -100l3 -31l-3 -32l1 -48q0 -13 -2.5 -20t-2.5 -17l3 -45q0 -38 -35 -42l-92 -5l-30 6l-62 -3l-115 6l-27 1l-65 -1l-67 7l-44 -4q-25 0 -44.5 20.5t-20.5 77.5v50l1 61l-6 87
l-6 169l3 48l8 42l1 17q2 6 8 12q9 8 22 8h20l34 7l38 2l50 -1l79 3l23 -3l135 7l34 -4l29 2l79 -1l18 1h3z" />
    <glyph glyph-name="H18551" unicode="&#x25ab;" horiz-adv-x="730" 
d="M438 613l17 2l45 -5l66 -1l56 -7l27 -6q15 -2 22 -16q3 -5 3 -10l-6 -29l-1 -18l1 -43l-3 -72q-5 -35 -5 -82l4 -76l3 -43l-2 -59v-33l2 -62l-1 -11q-2 -20 -17.5 -35.5t-36.5 -20.5l-37 -3l-75 2l-106 -2l-52 3l-28 1l-57 -1q-35 0 -60 5l-63 6q-35 4 -46 20
q-11 14 -13 33l-5 78l-2 120l-1 161l1 112l-1 32q0 27 12 36q10 10 29 10l34 -2l157 19h12l119 -4zM428 530l-15 -1l-107 4l-79 -7l-52 -3l-17 -4l-4 -3q-7 -10 -7 -47l-2 -74l1 -16l4 -228v-53q0 -13 5 -19q5 -5 12.5 -5t13.5 -1l72 -11h9l51 4l12 -1l187 -3q41 0 52 4
q17 5 17 32.5t2 42.5t2 79l-2 20l-4 67l5 83l1 18l-1 36l5 52l1 12q0 4 -4 9q-14 14 -53 14l-15 1l-39 -2l-42 2z" />
    <glyph glyph-name="uni25B4" unicode="&#x25b4;" horiz-adv-x="436" 
d="M130 151h-31q-44 5 -47 35l-1 6l1 8l8 21l17 47q41 111 85 193l16 43l8 15q17 23 30 23q18 0 42.5 -65t47.5 -109l31 -54l10 -36l14 -32l9 -14q29 -37 29 -56q-2 -28 -48 -31l-40 -2l-55 -5q-25 0 -48 6t-41.5 5t-36.5 2z" />
    <glyph glyph-name="uni25B5" unicode="&#x25b5;" horiz-adv-x="436" 
d="M225 535q25 0 48 -61l39 -97l19 -39l18 -60l14 -29l23 -53l3 -14q0 -22 -22 -31q-12 -4 -28 -4l-31 2l-10 1l-64 -2l-32 2l-99 -3q-34 0 -46.5 14t-12.5 29q0 29 31 75l38 76l24 41q30 48 38 78q19 68 45 74zM223 425q-7 -2 -15 -22t-9 -21l-16 -38l-43 -81l-10 -25
l-1 -9l2 -8q3 -7 19 -7l16 1l49 1l12 -1l19 -1q25 0 33.5 6t8.5 21l-3 19l-40 118q-5 24 -13 39q-2 8 -9 8z" />
    <glyph glyph-name="uni25B6" unicode="&#x25b6;" horiz-adv-x="476" 
d="M84 464l8 1l13 -2l26 -14l32 -14l51 -20l113 -58l46 -19l22 -8q42 -14 42 -36l-1 -8q-2 -11 -13 -15l-21 -10l-46 -26q-127 -64 -210 -88q-17 -5 -29.5 -13.5t-30.5 -12.5h-8q-38 0 -38 29l3 36l1 32q8 60 8 90l-4 45q-2 6 -2 35l2 12v2l-3 19l3 16l2 4q7 16 34 23z" />
    <glyph glyph-name="uni25B7" unicode="&#x25b7;" horiz-adv-x="476" 
d="M70 459q22 0 43 -12.5t41 -20.5l33 -15l98 -35l39 -13l15 -9l24 -14l14 -5l40 -28q11 -6 11 -17q0 -22 -58 -46l-25 -12l-54 -29l-38 -13l-94 -36l-56 -25l-26 -10h-3q-14 0 -23 10t-9 25l2 140l-1 32l2 47l-1 16l-2 31q0 35 14 37zM112 220q1 -2 8 -2q16 0 57 16l68 26
l7 2q45 15 45 29q0 6 -22 16l-20 9l-26 12q-58 32 -85 34l-23 4l-5 -1q-6 -4 -6 -40l-1 -63q0 -38 3 -42z" />
    <glyph glyph-name="uni25BE" unicode="&#x25be;" horiz-adv-x="436" 
d="M194 489l29 1l111 -4l14 -2q27 -4 35 -9t11 -18v-4q0 -11 -11 -26t-20 -31l-13 -22l-44 -101l-16 -53l-36 -77l-7 -15q-12 -32 -35 -32q-25 0 -31 31l-5 19l-30 78l-11 32q-22 86 -50 121q-32 48 -34 64v5q0 20 21 30l19 7l60 7z" />
    <glyph glyph-name="uni25BF" unicode="&#x25bf;" horiz-adv-x="436" 
d="M135 480q5 -2 18 -2l172 4q20 0 39 -9t19 -22l-2 -9l-22 -51l-11 -33l-90 -212q-21 -64 -38 -65h-4q-8 2 -25.5 36.5t-22.5 52.5l-12 32l-34 79l-17 53l-18 40l-21 52l-16 33l-1 7q0 8 12 11.5t64 3.5zM217 218q3 0 7 6l70 150q8 20 8 27q0 17 -21 19l-14 2l-50 1l-50 -2
l-17 -1q-13 0 -17 -6l-1 -2v-2q0 -9 18 -45l25 -66q6 -22 22 -51l6 -15q4 -10 11 -14z" />
    <glyph glyph-name="uni25C0" unicode="&#x25c0;" horiz-adv-x="476" 
d="M398 465l9 1q22 0 25 -35l3 -45q6 -42 6 -64l-4 -43l3 -36l-2 -20l-1 -49l-1 -22q-1 -35 -27 -41l-7 -1l-11 2l-21 13q-25 20 -86 48l-97 39l-104 44q-46 14 -46 37l1 6q6 26 71 45l82 31l44 17l63 31l28 8z" />
    <glyph glyph-name="uni25C1" unicode="&#x25c1;" horiz-adv-x="476" 
d="M410 460q24 -3 24 -35l-1 -40l1 -23l-8 -158l1 -29l2 -24q0 -28 -17 -31l-7 -1q-25 0 -49 21l-12 7l-31 11l-137 64l-38 12q-12 4 -33 17l-40 17q-26 11 -26 27q0 12 29.5 30.5t79.5 32.5l40 17l31 12l34 14l50 22q72 31 95 36zM345 377l-33 -14l-48 -15l-57 -25l-35 -16
l-6 -3q-5 -2 -6 -7v-1q0 -5 9 -8l143 -61l21 -13q12 -8 23 -8q12 0 12 36l2 38l-3 69q0 22 -2 26t-10 4z" />
    <glyph glyph-name="lozenge" unicode="&#x25ca;" horiz-adv-x="465" 
d="M302 610q19 0 26 -12q1 -3 10 -15l22 -42l10 -33l20 -44l12 -38q6 -40 26 -78q24 -41 24 -60q0 -21 -15 -38.5t-26 -33.5l-32 -47l-33 -32l-20 -29l-37 -40q-29 -34 -44 -47l-15 -15l-9 -4l-8 -1q-15 0 -24 12l-15 22l-12 33l-40 76l-15 35l-9 21l-36 57l-12 16
q-4 6 -4 18q2 21 21 44q70 85 105 135l52 62l23 40q17 28 36 35zM287 510q-7 -1 -14 -12l-24 -30l-56 -72l-37 -51l-21 -33l-3 -11v-2q0 -14 13 -32l28 -54l31 -69l16 -29q5 -10 13 -10q10 2 20 16l49 55l33 34l17 30l12 18q9 12 9 23t-12 41l-21 74l-6 20q-4 16 -25 68
l-6 17q-4 10 -12 10z" />
    <glyph glyph-name="circle" unicode="&#x25cb;" horiz-adv-x="730" 
d="M319 613l39 -2l38 -2l47 -7q14 -3 23 -9t23 -11l26 -10l29 -17l41 -36q22 -20 56 -80t37 -110l1 -57l-4 -34l-12 -51q-25 -74 -62 -112l-20 -18l-45 -30q-51 -35 -168 -35l-17 2l-54 8l-86 23q-16 6 -31 19q-46 31 -88 103l-22 40q-14 35 -14 90q0 43 10 81l13 45
q39 129 164 188q35 19 62 22h14zM169 438q-20 -40 -24 -63q-9 -36 -9 -79q0 -91 56 -160q39 -51 188 -67l33 -2q36 0 69 11l32 19l37 31q49 53 54 138l1 23l-5 51q-21 80 -92 145q-10 10 -42 26q-29 16 -56 24q-46 12 -83 12q-33 0 -51 -9q-81 -41 -108 -100z" />
    <glyph glyph-name="H18533" unicode="&#x25cf;" horiz-adv-x="730" 
d="M333 607l33 2l27 -2l51 -11l25 -3l29 -9l29 -13q13 -5 35 -27l42 -38l32 -39l5 -9l17 -45l5 -43l10 -76l-1 -14q-1 -10 -18 -64q-5 -22 -9 -28l-14 -20q-17 -41 -21 -47q-37 -57 -80 -82l-43 -16q-40 -19 -67 -23l-16 -1l-60 7l-62 6l-22 7q-24 9 -64 35q-29 18 -34 23
q-28 27 -68 93q-29 53 -37 92l-1 26q0 43 9 68l8 21q11 46 20 63q9 21 34 50.5t36.5 47.5t35 32t52.5 21.5t82 15.5z" />
    <glyph glyph-name="uniFB00" unicode="&#xfb00;" horiz-adv-x="508" 
d="M507 688l9 1l52 -7l10 -5q17 -10 17 -32q0 -16 -12 -25q-10 -7 -20 -7q-11 0 -22 4.5t-22 4.5l-7 -1q-35 -6 -43 -21l-20 -25q-15 -19 -15 -81l1 -19q3 -12 17 -12l13 1l45 4q25 0 40 -10q7 -6 7 -16q0 -12 -6 -24q-10 -19 -23 -19l-10 1l-26 -3l-10 -1l-22 2l-11 -1
l-13 -2q-20 -4 -21 -45.5t-7 -81.5l-15 -65l-5 -43l-10 -69l-4 -20l-3 -24q-7 -49 -41 -49t-34 45q0 13 21 118l5 27l21 180l2 13q0 9 -6 11q-4 2 -33 2l-38 6l-40 2l-14 1q-21 0 -29 -12q-5 -5 -5 -13l-1 -12l-7 -53l-30 -245q-3 -41 -7 -49q-4 -11 -20 -19.5t-30 -8.5
l-7 1q-20 8 -20 38l3 27l9 81l9 46q2 8 2 46l9 39l11 94l3 30q0 4 -2 6q-5 9 -14 10l-28 2l-14 1q-9 1 -9 20q0 6 3 11q6 11 23 19t29 9q18 0 26 9q9 9 14 57l3 14q41 127 141 127q34 0 52 -9q10 -4 19 -15t9 -22q0 -9 -5 -14q-8 -10 -21 -10l-31 3q-47 -3 -64 -19
t-22 -37.5t-9 -41.5l-3 -24q0 -23 20 -23l59 2l12 -1l29 -4l16 2q11 3 18 22l9 57l4 13l8 22q8 29 41.5 65t89.5 44z" />
    <glyph glyph-name="uniFB01" unicode="&#xfb01;" horiz-adv-x="446" 
d="M270 678l52 4q25 0 37 -3.5t22.5 -3.5t19 -9t8.5 -26t-10 -25q-14 -9 -34 -9q-15 0 -53 7l-13 1q-31 0 -54 -20q-32 -30 -41 -74q-8 -24 -8 -30l2 -8q7 -10 36 -13l7 -1l24 -2l85 5l33 3q40 0 40 -29l-2 -19q-1 -28 -15 -89l-4 -29l-9 -33v-27l-17 -99l-8 -99
q-4 -33 -28 -35l-7 -1q-43 0 -43 63l1 7q21 151 36 233l10 60l1 10q0 10 -9 13l-11 1l-46 -4l-69 5q-9 0 -15 -7l-3 -9l-7 -50l-19 -169l-11 -88q-8 -48 -21 -61.5t-30 -13.5q-10 0 -19 8.5t-9 27.5q0 18 6 45l5 53l12 105l16 152q0 11 -13 11l-30 -2q-13 0 -22 5t-11 25v4
l2 9q9 19 33 19l22 -1q32 0 34 25q4 41 14 69q18 54 51 83q34 28 82 36z" />
    <glyph glyph-name="uniFB02" unicode="&#xfb02;" horiz-adv-x="449" 
d="M313 682l30 -3l23 -8l12 -2h3l33 5q12 0 22 -10q8 -11 8 -27l-2 -25l-17 -154l-2 -33l-11 -56l-30 -259l-3 -48q-10 -49 -53 -49q-11 1 -18.5 10.5t-8.5 20.5v5q0 16 8 53l3 57l19 134l7 70l10 55l2 43l7 39q3 18 3 63l3 19q0 6 -2 9q-5 9 -27 14q-14 5 -33 5
q-63 0 -93 -64q-11 -20 -12 -46l-1 -10l2 -7q3 -5 11.5 -6.5t13.5 -3.5l9 -1l28 2l35 -1q17 -4 17 -24q0 -29 -28 -39q-13 -5 -23 -5l-44 2q-11 0 -19 -3q-7 -3 -8 -9.5t-3 -13.5l-14 -80l-6 -83l-14 -100l-2 -35q-1 -84 -56 -84q-27 2 -27 34l4 37q5 58 15.5 115.5
t12.5 116.5q0 24 10 64q3 7 3 17l-3 15q-4 7 -12 7l-22 -3q-30 0 -30 39q2 20 33 26l39 5q15 4 18.5 43t41.5 96t98 67l30 4h10z" />
    <glyph glyph-name="uniFB03" unicode="&#xfb03;" horiz-adv-x="676" 
d="M538 686l25 -2q51 -8 67 -30q10 -17 10 -22l-2 -7q-2 -7 -9 -13q-13 -14 -26 -14q-15 0 -29 10.5t-31 10.5q-37 -2 -62 -22q-44 -41 -52 -78q-4 -10 -4 -32q0 -7 8 -9l52 -8l42 2l46 -2l20 1q24 0 41 -10q12 -9 12 -25l-4 -30l-9 -116l-5 -46l-11 -106l-4 -70
q-4 -47 -34 -63l-12 -2q-12 0 -22.5 7t-12.5 17l-1 14l8 89q15 109 20 196l1 39l2 22l-1 6q-5 7 -13.5 6t-18.5 1.5t-19 2.5l-36 -2l-35 -1l-13 2l-8 -2q-7 -5 -10 -20l-10 -79l-13 -96l-3 -33l-6 -33q-5 -20 -5 -49q-3 -54 -11 -71q-12 -23 -37 -23q-31 0 -31 45l2 48
l14 106q14 97 16 128l4 46q0 27 -10 31l-7 2l-15 -1l-39 4l-5 -1l-14 -1l-15 1l-7 -1q-19 0 -24 -5q-5 -4 -8 -21l-6 -46l-12 -66l-6 -26l-17 -151l-4 -28q0 -17 -13 -37.5t-24 -26.5l-14 -3l-8 1q-23 8 -23 51l28 200l15 82l6 42l-1 11q0 10 -17 14l-33 6q-15 7 -15 26
l3 18q6 16 35 21t36 18q5 12 11 53q21 95 77 122q29 16 52 20l37 4l32 -6q14 -4 14 -20q0 -20 -13 -33q-12 -14 -35 -14l-21 1q-22 0 -34 -12q-29 -27 -35 -59l-4 -29l-3 -19q0 -9 6 -13q9 -5 20 -5.5t71 -0.5q35 0 47.5 7.5t15.5 32.5l4 17l13 46q42 77 120 106q11 5 49 5z
" />
    <glyph glyph-name="uniFB04" unicode="&#xfb04;" horiz-adv-x="678" 
d="M493 692l18 2l18 -1q43 -3 56 -8q11 -3 15 -8t15 -7l8 -1l24 2q17 0 25 -15q5 -8 5 -15l-6 -23l-10 -79l-9 -87l-9 -46l-24 -187l-8 -75q-7 -83 -24 -121q-7 -15 -29 -15q-28 2 -33 33v3l6 33l12 103l22 146l10 90l14 84l4 51l2 28q0 4 -2 7q-13 25 -40 27l-33 6l-10 1
q-41 0 -68 -45l-18 -36q-10 -23 -10 -44l1 -13q1 -10 14 -10l40 2q28 0 30 -23v-3q0 -7 -5 -14q-14 -22 -30 -25h-4l-27 2q-18 0 -24 -12q-4 -8 -7 -46l-6 -43l-2 -36l-8 -46l-7 -49l-6 -79l-9 -59q-1 -62 -34 -62l-13 4l-22 10l-5 5q-4 7 -4 17l7 46l18 157l14 102l6 64
q0 15 -2.5 18.5t-7.5 5.5q-8 3 -21 3l-28 -1l-26 2l-26 -1l-18 1q-13 0 -21 -6q-12 -9 -12 -24t-4 -27l-5 -21l-27 -240l-2 -36l-4 -13q-10 -31 -36 -31l-10 2q-22 8 -22 30l4 35l6 67l30 222l6 29l-2 7q-2 6 -12 6l-17 -2q-22 0 -24 28v7q0 21 21 25l16 1q11 0 18 7
q7 8 11 38.5t22.5 74t47.5 61.5l27 16q25 13 64 18l28 1q12 -2 21 -11.5t9 -21.5q0 -23 -27 -31l-18 -5l-33 -5q-19 -3 -33 -17q-17 -19 -33 -72l-1 -15q0 -20 6 -24q8 -8 25 -8l19 1l82 -5l9 1q7 1 11 17l5 26l23 79q28 81 123 96z" />
    <glyph glyph-name="uniFEFF" unicode="&#xfeff;" horiz-adv-x="0" 
 />
    <glyph glyph-name="glyph318" horiz-adv-x="209" 
d="M182 610q22 0 25 -27l2 -21l1 -8q0 -11 -5 -21.5t-5 -23.5l-4 -29l-12 -84l-1 -34l-25 -169q-3 -38 -31 -47l-15 -3q-21 2 -26 26l-1 14l7 61l13 102l5 46l14 94l2 43q0 32 15.5 56.5t40.5 24.5zM108 93q21 0 31 -8t10 -41q-2 -32 -8.5 -40t-21.5 -12l-10 -1
q-19 0 -36.5 15t-17.5 36q0 39 40 50z" />
    <glyph glyph-name="glyph319" horiz-adv-x="209" 
d="M195 469l-13 -114l-8 -61l-12 -76l-4 -19q-9 -51 -40 -51q-31 5 -31 44l1 15l13 60l15 175l12 85q5 66 14 76q5 7 32 7q35 0 38 -13l1 -23zM77 91q7 4 18 4q39 0 50 -26q2 -3 2 -10q0 -47 -33 -65l-14 -3q-19 0 -38 24q-11 16 -11 32q0 28 26 44z" />
    <glyph glyph-name="glyph320" horiz-adv-x="228" 
d="M270 722l16 3q26 0 26 -24q0 -11 -6 -21l-11 -15q-54 -60 -89 -146l-12 -39l-12 -29l-9 -39l-28 -107l-8 -73l-8 -130l3 -56q8 -60 28 -112l31 -76q10 -30 10 -43q0 -22 -38 -22q-11 0 -17 3q-15 8 -23 25q-35 75 -51 150l-10 57q-6 26 -6 72q0 110 26.5 237.5
t79.5 241.5q32 74 69 112q31 28 39 31z" />
    <glyph glyph-name="glyph321" horiz-adv-x="228" 
d="M280 733q13 0 23 -7t10 -19q0 -19 -18 -36.5t-24 -28.5l-33 -53l-35 -75l-29 -87q-14 -43 -23 -105l-12 -76l-6 -70l-1 -29l8 -120q5 -74 23 -121q3 -10 10 -17.5t12 -17.5q5 -8 5 -27l2 -27q0 -39 -34 -39q-21 0 -33 35l-6 17l-30 92q-16 47 -19 94q-8 93 -8 145l1 20
q3 60 17 148l16 81l8 33l35 89l17 34l48 91l23 34l18 23q16 19 35 19z" />
    <glyph glyph-name="glyph322" horiz-adv-x="228" 
d="M93 730l7 1q16 0 24 -14l20 -38l13 -39q31 -91 39 -126q3 -12 10 -82l6 -29v-30q0 -73 -16 -146l-6 -36q-26 -111 -89 -241l-26 -49q-38 -69 -45 -78l-15 -20q-8 -10 -24 -11h-2q-21 0 -21 23l3 21q3 17 13.5 30.5t19.5 28.5l68 132q13 27 33 99l12 31q32 76 32 180
l-4 72l-8 68q-6 47 -45 156l-19 40l-3 11l-2 15q0 25 25 31z" />
    <glyph glyph-name="glyph323" horiz-adv-x="228" 
d="M75 726q10 4 17 4q33 0 47 -25l2 -6l1 -15l29 -70l20 -101l10 -69l1 -14l-2 -43l3 -34l-5 -49l-6 -80l-4 -49l-26 -104l-23 -56l-38 -76l-52 -92l-20 -32q-10 -14 -28 -19l-11 -2q-14 0 -23.5 9t-9.5 22l3 15l42 63q73 110 114 278q13 53 13 152l-1 17l4 72q0 21 -7 46.5
t-9.5 56t-10.5 61.5q-9 39 -26 76l-15 26l-2 12q0 19 13 26z" />
    <glyph glyph-name="glyph324" horiz-adv-x="412" 
d="M272 617l7 1q12 0 23 -8t11 -24l-7 -37l-11 -66q-9 -23 -9 -33l2 -7q2 -3 9 -3l31 7l85 29l11 2q21 0 24 -28v-3q0 -14 -11 -27t-23 -17l-27 -4l-39 -9l-17 -5q-15 -4 -17 -10v-3q0 -27 15 -49l29 -63l7 -27l1 -5q0 -10 -7.5 -19t-17.5 -11h-5q-25 0 -37 16l-9 12
l-50 107l-1 8q1 7 -8 9q-6 0 -21.5 -17t-17.5 -18q-18 -11 -39 -39l-19 -28l-6 -6q-15 -11 -31 -11q-17 0 -23 13q-7 10 -7 19q0 14 10 25l20 23q6 9 22 22l22 18q7 5 12.5 14.5t11.5 14.5q5 5 5 9q-1 3 -9.5 8t-14.5 6l-62 27q-17 4 -23 10q-9 9 -9 22t8 24t20 14h4l9 -1
l86 -36l22 -10l7 -1q4 0 7 3l5 9l7 33l21 98q4 17 24 22z" />
    <glyph glyph-name="glyph325" horiz-adv-x="412" 
d="M254 620l9 1q28 0 35 -27l3 -21l-6 -56l-6 -23l-2 -28q0 -22 21 -22l29 4q56 16 69 17l13 1q19 0 27 -11q7 -7 7 -18q0 -13 -11 -24.5t-27 -11.5l-15 -2l-64 -14l-18 -4q-10 -2 -14 -13l-1 -4q0 -9 8.5 -19t11.5 -18l23 -40q20 -31 20 -46q0 -14 -11 -24q-9 -9 -20 -12
h-5q-14 0 -27.5 11.5t-15.5 24.5l-8 22l-2 16l-7 19l-14 32q-8 13 -16 16h-3q-9 0 -17 -9.5t-12 -13.5q-25 -27 -30 -36l-28 -34q-12 -14 -30 -14q-15 0 -24.5 10.5t-9.5 25.5l3 15q9 17 37 38.5t37 34.5l17 19q3 4 3 8q-1 5 -9 9l-13 6l-91 44q-23 13 -23 32q0 13 10 23
q6 5 17 5l16 -3q38 -11 95 -43l21 -12l6 -1l6 2q7 4 7 35l11 115q1 13 18 18z" />
    <glyph glyph-name="glyph326" horiz-adv-x="416" 
d="M241 496q3 2 13 2q27 0 31 -23v-3l-4 -23l-10 -70l-2 -21q0 -9 3 -12q9 -7 63 -7t63 -1t21 -9q11 -7 11 -22q0 -22 -18 -29q-37 -13 -66 -13l-36 3l-10 1l-41 -2q-11 -1 -11 -23l1 -17l-11 -49l-6 -68q-3 -29 -28 -35l-10 -1q-25 0 -31 25l-1 11l6 45l10 66l2 26
q0 23 -18 23l-58 -7q-32 0 -50 13.5t-18 30.5q0 13 14 23q7 6 22 6l24 -1l59 4l27 2q18 4 19 25l2 13l11 70q4 25 9 33.5t18 13.5z" />
    <glyph glyph-name="glyph327" horiz-adv-x="416" 
d="M241 485l8 1q11 0 22.5 -5.5t13.5 -14.5q2 -5 2 -18l-1 -16l-13 -59l-4 -28q0 -8 3 -9q3 -3 24 -3l39 -3l51 1q17 0 32.5 -12t15.5 -26q0 -15 -17 -25t-44 -10l-59 1l-24 2q-24 0 -32 -11q-7 -7 -6.5 -17.5t-1.5 -19.5l-6 -60q0 -53 -30 -62l-8 -1q-27 0 -30 34
q0 24 5.5 53.5t5.5 67.5q0 10 -5 14q-4 4 -13 4l-14 -1l-80 1q-48 2 -48 35q0 31 48 31l39 -2l41 4l25 -2q16 0 21 13l6 20l16 80l3 28q2 11 15 15z" />
    <glyph glyph-name="glyph328" horiz-adv-x="205" 
d="M72 98q4 2 21 2q25 0 39.5 -18.5t14.5 -44.5q0 -41 -49 -107q-16 -23 -46 -34q-8 -8 -20 -8q-22 0 -22 18l2 10q2 6 7.5 9.5t9.5 8.5l25 22q14 12 21 38v2q0 7 -10.5 16.5t-13.5 14.5q-7 13 -7 25q0 16 16 35q5 9 12 11z" />
    <glyph glyph-name="glyph329" horiz-adv-x="205" 
d="M91 98l6 1q13 0 27 -9.5t18 -20.5q9 -20 9 -43q0 -14 -9 -28.5t-11 -24.5q-4 -15 -20 -31l-23 -21q-24 -24 -41 -24q-8 0 -14.5 7t-6.5 16l1 6q3 8 16 19l19 14q11 7 17 21v2q0 4 -4.5 8t-6.5 8.5t-9 11.5q-19 19 -19 42q0 19 14 28l13 10z" />
    <glyph glyph-name="glyph330" horiz-adv-x="287" 
d="M210 324l10 1l32 -3q17 0 20 -3q10 -7 10 -18q0 -14 -15 -24q-8 -6 -39 -12l-64 -2l-92 -1q-25 5 -25 26q0 7 2 10q7 13 20 16l23 4l32 4z" />
    <glyph glyph-name="glyph331" horiz-adv-x="287" 
d="M126 325l65 -5l36 2l21 -3q7 -3 13.5 -2.5t10.5 -6.5q5 -8 5 -19q0 -28 -33 -31l-150 -2q-14 0 -23 4q-16 6 -16 29q0 16 10 25l8 4z" />
    <glyph glyph-name="glyph332" horiz-adv-x="205" 
d="M97 97q36 0 42 -19q7 -16 7 -24l-1 -7l-4 -25q-3 -16 -24 -26l-13 -6l-10 -1q-20 0 -35.5 18.5t-15.5 38.5l1 10q6 24 14.5 30.5t32.5 10.5h6z" />
    <glyph glyph-name="glyph333" horiz-adv-x="205" 
d="M88 102q58 0 58 -62q0 -46 -40 -46q-21 0 -38.5 15.5t-22.5 35.5l-2 15q0 42 45 42z" />
    <glyph glyph-name="glyph334" horiz-adv-x="338" 
d="M355 694l8 1q14 0 23 -9.5t9 -23.5l-1 -9l-12 -23l-29 -57l-66 -145l-12 -37l-30 -50l-16 -47l-46 -85l-90 -199l-14 -38l-58 -108q-21 -42 -40 -43h-3q-15 0 -24 10t-9 24l2 13l68 125l39 85l40 93l32 70l45 82l11 32l37 68l19 52l24 53l48 107l23 44q7 12 22 15z" />
    <glyph glyph-name="glyph335" horiz-adv-x="338" 
d="M370 705q31 0 31 -29l-2 -13q-2 -8 -22.5 -41.5t-46.5 -103.5l-45 -87l-36 -78l-15 -23l-16 -44l-11 -24l-53 -110l-20 -38l-13 -35l-23 -44q-5 -8 -7 -17.5t-7 -17.5l-10 -19l-15 -31l-22 -56l-9 -31l-5 -10l-12 -26q-6 -13 -23 -14h-5q-34 0 -34 29l1 8l13 31
q29 91 95 225l33 78l54 102l22 57l30 49l29 67l36 74l14 38l47 89q4 6 8.5 22t17.5 20l15 3h6z" />
    <glyph glyph-name="glyph336" horiz-adv-x="473" 
d="M258 519l68 -3q37 -6 77 -51q10 -10 17 -28q10 -20 13.5 -43t13.5 -50q5 -25 5 -62q0 -59 -9 -92q-19 -124 -130 -172l-57 -19l-22 -2q-71 0 -124 53l-28 41q-8 11 -20 45q-6 20 -6 89l1 13l5 48l20 88l6 15q18 48 62.5 83.5t97.5 45.5zM258 442q-80 -18 -110 -135
l-11 -46l-4 -42l-1 -38l2 -10q11 -42 36.5 -69t60.5 -27q33 0 72.5 22t51.5 56l7 32l9 40l4 56l-2 44l-14 66q-2 8 -23 36q-15 17 -58 17z" />
    <glyph glyph-name="glyph337" horiz-adv-x="473" 
d="M223 526q43 8 60 8q19 0 40 -6q23 -5 34 -12q77 -45 82 -110l2 -17q8 -30 8 -73l-2 -44l-12 -81q-9 -32 -30 -73q-37 -75 -65 -100q-18 -15 -78 -36l-34 -7l-10 -1l-35 6l-20 3l-7 3q-46 23 -68 75q-32 88 -32 164q0 37 21 121t70 130l21 14l23 19q13 12 32 17zM240 452
q-14 -5 -23 -14q-42 -35 -62 -99.5t-23 -104.5l-1 -17q0 -40 8 -62l15 -47q20 -49 64 -49l12 1l31 7q25 8 39 25t28 40q35 48 44 163l1 25q0 25 -9.5 75t-77.5 63l-15 2z" />
    <glyph glyph-name="glyph338" horiz-adv-x="258" 
d="M191 520l18 3q38 0 40 -34l-5 -34l-7 -34l-22 -92q-30 -172 -28.5 -248t-42.5 -85h-1q-32 0 -33 49l-1 54l12 131q8 67 16 100l16 64q7 28 7 36l-4 5l-10 1l-10 -2l-39 -7l-16 -2q-6 0 -9 3q-13 9 -13 28q0 16 10 25l34 12q67 24 88 27z" />
    <glyph glyph-name="glyph339" horiz-adv-x="258" 
d="M198 510l12 -1q27 -8 27 -37l-13 -76l-12 -97l-7 -42l-9 -69l-8 -81l-10 -43l-2 -21q-6 -54 -44 -56h-2q-12 0 -21 9.5t-11 20.5l-1 9q0 16 5 32t6 31l4 52l25 125l5 59l3 30l5 34q5 15 5 28l-1 9q-2 8 -13 8l-10 -1l-27 1l-15 -1q-30 0 -30 37q0 21 13 27l53 7l47 2
l21 4h5z" />
    <glyph glyph-name="glyph340" horiz-adv-x="400" 
d="M230 531q59 0 105 -38.5t46 -107.5q0 -51 -42 -109l-25 -35q-24 -35 -109 -112l-29 -30l-6 -6q-33 -26 -33 -30q0 -3 10 -3l33 2l31 2l36 3l66 7l29 3q10 0 14 -2q24 -6 24 -34q0 -25 -22 -33l-38 -7l-56 -4l-30 -1l-80 -5l-23 -2l-45 -2q-65 0 -71 33l-1 13q3 23 67 71
q48 36 82 76l22 17l76 92q40 57 40 107l-1 10q-4 29 -33 45q-20 13 -61 13l-55 -10q-21 -6 -35 -6q-24 0 -28 20l-1 8q0 22 32 37l28 8q13 4 77 10h6z" />
    <glyph glyph-name="glyph341" horiz-adv-x="400" 
d="M222 528l17 1q49 0 79 -25l40 -28l13 -15q7 -10 9 -25l8 -53l-1 -8q-14 -75 -67 -125l-91 -85l-48 -38l-32 -31q-23 -16 -23 -27q3 -5 13 -5l84 -1l23 1l56 3q23 0 38 -7q25 -10 25 -31q0 -25 -32 -33l-32 -3l-51 2l-25 -2l-27 -2l-92 3l-46 6l-27 4q-21 10 -21 39
q2 11 7 18l19 20l42 42l42 42l141 124q18 17 28 34.5t10 49.5l-1 9q-1 31 -23 50.5t-50 22.5h-7q-23 0 -54 -13l-33 -19l-12 -2q-22 0 -28 17l-2 10q0 28 27 47q37 28 104 33z" />
    <glyph glyph-name="glyph342" horiz-adv-x="374" 
d="M205 524q55 0 97.5 -32.5t46.5 -82.5l1 -24q0 -38 -13 -64l-17 -30q-13 -17 -42 -40.5t-40.5 -29.5t-11.5 -14q0 -6 12 -12t16 -9l33 -23q17 -12 23 -30l8 -24q12 -30 12 -64q0 -44 -33 -102q-22 -36 -47 -48l-28 -15l-28 -16q-38 -17 -92 -17l-13 1q-54 6 -80 27
q-16 11 -16 32l2 10q6 10 29 16h6l19 -2l47 -14q5 -2 19 -2q28 0 71 20q37 16 51 48q16 34 16 71q-5 45 -33 70t-61 32l-41 2q-31 3 -36 33l-1 7q0 19 23 24l31 5l10 4q41 22 54 33q56 45 70 79q5 13 5 50q0 29 -24.5 46t-50.5 17l-69 -9l-33 -5l-9 1q-22 4 -22 30l1 7
q1 24 33 29q44 13 103 15h2z" />
    <glyph glyph-name="glyph343" horiz-adv-x="374" 
d="M171 527l15 1l37 -5l27 -3l28 -15q42 -20 54 -46l8 -17q6 -14 6 -47q0 -52 -19 -87q-16 -33 -30 -48l-29 -29l-12 -10q-14 -9 -14 -16q1 -6 15 -13l22 -11q23 -19 35 -37q12 -17 14 -27q8 -35 8 -65l-5 -48q-27 -116 -189 -158q-34 -10 -68 -10l-15 1q-44 6 -44 46
q0 12 7 18q10 9 27 9l13 -1q56 0 111 25l19 7l7 5l20 15l20 19q19 18 19 76q0 15 -8 39q-8 20 -26 30q-55 34 -109 34l-37 -4q-22 0 -25 14l-1 5l3 15q0 12 3 17q8 10 20 12.5t23 5.5l45 12l27 11q29 12 51 35l32 30q6 8 16 46l2 12l-7 36q-3 27 -37 39.5t-56 12.5
q-38 0 -58 -18q-7 -6 -15 -8l-8 -1q-21 0 -28 20l-2 12q0 12 21 28t34 20z" />
    <glyph glyph-name="glyph344" horiz-adv-x="470" 
d="M374 523q31 0 31 -27l-1 -7l-9 -39q-5 -17 -9.5 -79t-10.5 -92l-9 -82q-6 -27 -6 -43q2 -11 17 -11l56 4q31 0 34 -24v-4q0 -42 -88 -42q-25 -3 -30.5 -11t-9 -34t-3.5 -34q-13 -88 -27 -135q-12 -35 -34 -39l-8 -1q-31 0 -31 43l9 29l22 92l5 64q0 11 -2 13t-7 2h-59
q-85 0 -125 -5l-24 -2q-20 0 -28 11l-4 6l-2 14l-1 11q0 21 12 36l26 33l16 23l52 72l127 153l26 36q46 62 85 68zM311 376q-11 0 -78 -77l-51 -59l-10 -12q-58 -68 -60 -86q-2 -6 55 -6l61 3h25q26 1 31 32l6 25l22 176q0 4 -1 4z" />
    <glyph glyph-name="glyph345" horiz-adv-x="470" 
d="M343 509l17 1q28 -5 28 -40l-6 -60l-29 -180l-4 -50q0 -11 -5 -25t-5 -26l2 -11q4 -12 20 -14l44 -3l27 1q24 0 29 -21l2 -12q0 -33 -32 -37l-20 -2l-66 4q-14 0 -17 -20t-4 -24q-9 -58 -9 -72q-3 -54 -31 -65l-14 -3q-23 0 -28 32l-1 8l6 37q4 45 9 63.5t5 27.5
q0 10 -5 14l-8 2l-52 -2h-37l-18 1q-45 2 -85 11l-22 2q-9 0 -18.5 9.5t-9.5 22.5l1 12q4 26 24 50l47 54l58 81l79 95l26 24l24 35l66 73zM213 265l-14 -25l-8 -10l-45 -52l-29 -34q-8 -12 -8 -27q3 -8 16.5 -9t20.5 -3l39 -3l44 2l27 -3l7 1q17 3 17 46l22 166q4 16 4 41
q0 6 -5 6t-8.5 -4.5t-5.5 -6.5z" />
    <glyph glyph-name="glyph346" horiz-adv-x="384" 
d="M152 -134q-21 -14 -46 -18l-51 -8h-7q-34 0 -34 34q2 20 20 28l38 13l65 25q36 14 59 34q24 20 32 29q37 42 44 94l1 17q0 34 -13 52q-34 42 -127 42l-34 -4q-16 0 -29 10q-12 9 -12 29q0 12 10 47l9 25l11 64l11 66l6 38l5 14q11 23 38 23l38 -9l14 -1l102 2l35 -1
q21 -3 35 -13t14 -22q0 -10 -14.5 -24.5t-44.5 -14.5l-47 4l-65 -2l-20 1q-10 0 -17 -3q-8 -5 -10 -14l-5 -16l-20 -106l1 -7q2 -8 10 -10t33 -2l40 -5q45 -11 70 -25q55 -29 55 -132l-1 -12l-3 -35q-17 -70 -70 -127l-38 -31l-20 -14z" />
    <glyph glyph-name="glyph347" horiz-adv-x="384" 
d="M163 513l32 2l73 -6l11 -1l38 3l45 -7l10 -4q16 -10 16 -32q0 -14 -9 -21q-10 -9 -26 -9l-38 2l-46 -1l-34 3l-12 1q-34 0 -49 -11q-6 -4 -8 -11l-4 -17q-5 -44 -9 -59l-9 -41v-8q0 -10 2 -12q3 -5 9 -5.5t11 -1.5l17 -2l7 -3l61 -19q43 -11 74 -56q24 -32 24 -91
q0 -38 -14 -75q-13 -38 -39 -81q-14 -25 -44 -48l-30 -20l-20 -8l-19 -7q-9 -4 -50.5 -11.5t-64.5 -7.5q-21 0 -33 6q-20 12 -20 41t27 29l42 -2q104 0 154 72q27 40 30 59l4 31l1 12q0 17 -7.5 40.5t-20.5 34.5q-15 12 -21 14l-45 18l-44 11l-39 3q-17 2 -25 13
q-10 11 -10 28l5 33l21 88l5 25q0 29 13 73l5 15l3 5q8 11 23 12.5t27 3.5z" />
    <glyph glyph-name="glyph348" horiz-adv-x="423" 
d="M191 368q32 8 77 8l15 -1q64 -11 97 -54q19 -23 25 -52q4 -16 4 -37q0 -32 -16.5 -97t-69 -109t-119.5 -44l-48 5q-18 3 -47 35.5t-36 60.5l-11 60l-6 48l1 11l6 45q14 121 43 159l11 18l10 21q12 31 58 72t70 53l89 39l10 4l34 5h7q38 0 38 -30q0 -9 -4 -17
q-7 -13 -20 -14t-39.5 -11t-36.5 -16l-39 -20q-42 -23 -68 -55q-20 -18 -36 -46l-17 -31l-2 -9q0 -4 6 -6zM209 302l-28 -4q-26 -4 -35 -40l-8 -43l-3 -42q0 -25 6 -50q10 -31 20 -46q17 -24 51 -24q88 10 109 96l9 54v7q0 44 -15 62q-22 26 -59 30l-35 1z" />
    <glyph glyph-name="glyph349" horiz-adv-x="423" 
d="M441 577q0 -17 -27 -22l-18 -2l-19 -5q-135 -30 -202 -151q-18 -37 -23 -63v-4q0 -4 3 -4l14 4l29 12l46 15l23 2l40 -2q17 -4 49 -24l22 -25q18 -23 24 -42t6 -59l-1 -17l-2 -16l-19 -62q-32 -95 -118 -118q-28 -10 -64 -10q-40 0 -66 15q-15 10 -38 35l-10 11l-23 44
l-12 56l-4 47q0 38 6 71q8 81 59 175l24 32l15 23q15 28 77.5 67t97.5 46l68 12q34 -2 42 -36zM220 289q-25 -2 -69 -31l-14 -9q-6 -4 -6 -16l-1 -67l2 -11q12 -46 31 -71.5t62 -25.5l23 2q30 4 54 39.5t26 76.5l4 34q-5 30 -13 43q-15 22 -28.5 28t-36.5 8l-22 1z" />
    <glyph glyph-name="glyph350" horiz-adv-x="379" 
d="M282 512l68 -3h4l23 2q31 0 38 -17l1 -9q0 -15 -7 -24q-22 -27 -47 -76l-24 -36q-30 -51 -38 -72l-27 -45l-13 -19l-20 -44l-86 -156l-6 -12l-28 -39l-19 -29l-16 -34q-16 -28 -23.5 -33.5t-19.5 -5.5q-27 2 -27 34l1 8q3 14 15 33l138 252l20 40l24 40l54 103l24 37
q13 16 13 24q-1 5 -6 6t-8 2l-22 2l-82 -2h-43l-32 -3q-20 0 -34 7q-14 6 -14 31q0 20 12 27q10 5 43 5l29 1l10 -1l29 -1z" />
    <glyph glyph-name="glyph351" horiz-adv-x="379" 
d="M308 439q-2 3 -8 3l-6 -1l-24 -2l-20 1l-27 -2h-20l-74 -1l-35 1q-15 2 -27.5 17.5t-12.5 39.5q0 4 2 7q5 15 23 15l41 -7h32l190 6q71 0 71 -36l-3 -12l-13 -23q-28 -59 -45 -83q-14 -18 -23 -37l-31 -60l-44 -82q-24 -51 -106 -185q-13 -26 -57.5 -76.5t-64.5 -50.5
q-8 0 -13 4q-19 12 -19 35q0 12 9 24l12 16l48 59q37 42 87 129l88 174l19 33q31 59 41 71q11 11 11 20z" />
    <glyph glyph-name="glyph352" horiz-adv-x="413" 
d="M294 611l36 -14q80 -30 80 -112q0 -50 -38 -95l-39 -44l-25 -23l-5 -4q-6 -4 -6 -8q0 -6 11 -16t16 -16q28 -30 41 -67q11 -28 11 -62q0 -101 -93 -137l-83 -26l-23 -2q-44 0 -78 26.5t-51 66.5l-3 8l-2 39q0 26 8 55.5t13 37.5q21 38 66 65q25 18 25 26q0 9 -22 33
q-39 43 -39 111l1 10q0 37 21.5 76t53 57t93.5 18zM219 280q-14 -2 -24 -10.5t-18 -14.5q-15 -9 -32 -29l-5 -4l-6 -13q-4 -5 -3.5 -8t-2.5 -7q-8 -13 -15 -57v-6q0 -21 23.5 -49t53.5 -28l11 1q84 11 101 77q2 6 2 23q0 56 -39 93l-18 20q-11 13 -23 13zM239 551
q-23 -1 -41.5 -17.5t-25.5 -42.5l-4 -16l-2 -26l2 -16q10 -46 40 -63q23 -19 31 -19t18 7l19 14q33 30 40 40q22 29 22 70q0 18 -6 33q-12 21 -26 27q-20 9 -67 9z" />
    <glyph glyph-name="glyph353" horiz-adv-x="413" 
d="M256 618l13 -1q139 -15 139 -111q0 -47 -22 -87q-15 -25 -67 -66l-14 -9q-11 -7 -11 -12q0 -8 9.5 -16t13.5 -14q61 -78 61 -161l-5 -14q-5 -35 -20.5 -65t-26.5 -38q-39 -32 -78 -38l-23 -2l-79 7l-21 8q-30 14 -53 37q-13 14 -25.5 44t-12.5 47l6 40q8 28 14 38l26 34
l32 33l15 11l38 25q11 7 12 13v2q0 7 -19 15q-19 11 -38.5 40t-19.5 77q0 52 17 80q25 38 34 45q27 27 60 32zM229 279l-10 -4l-28 -20q-58 -36 -80 -86q-5 -10 -5 -31l3 -29l4 -9q22 -28 30 -33q14 -11 44 -13l22 -1q21 0 48 9q18 5 28.5 24t12.5 36l2 28q0 52 -28 92
l-17 25q-9 13 -21 13zM228 549q-15 -3 -40.5 -29t-25.5 -53l3 -23q5 -23 28.5 -45.5t44.5 -22.5l8 1q10 3 34 21q38 25 57 73q5 15 5 27q0 32 -25 45l-12 5l-33 4l-14 1q-16 0 -30 -4z" />
    <glyph glyph-name="glyph354" horiz-adv-x="428" 
d="M236 526q83 0 133 -84l21 -48q13 -31 13 -108l-1 -28l-2 -25l5 -26l-1 -8q-6 -23 -20 -39l-5 -8l-11 -30q-34 -77 -59 -117q-14 -24 -57 -72.5t-111 -74.5q-14 -7 -47 -12l-32 -8l-15 -1q-15 1 -27.5 16t-12.5 30q0 14 13 21l12 4l35 5l23 7q104 32 172 150l16 27
q4 8 4 16q0 7 -4 10q-3 3 -8 3l-12 -3l-23 -2l-17 1q-71 7 -99.5 32t-44.5 66t-16 89q0 58 24 115q13 27 35 49q35 39 92 50zM134 370q-6 -24 -6 -54l3 -43l11 -28q8 -20 26 -33q17 -16 54 -21l16 -1l28 3l27 8q15 4 23 14q17 19 17 82q0 45 -15 83.5t-42 56t-53 17.5
q-63 0 -89 -84z" />
    <glyph glyph-name="glyph355" horiz-adv-x="428" 
d="M319 195l1 5q0 4 -3 7h-1q-3 0 -6 -5q-10 -13 -37 -28.5t-45 -15.5l-31 -3q-37 0 -78.5 30t-59.5 80l-4 16l-5 49v8q0 34 24 79t40 55l31 23l27 12l52 12q5 2 22 2q57 0 103 -37.5t53 -93.5l7 -46l1 -16q0 -46 -6 -91q-11 -66 -34 -120q-33 -74 -46 -94.5t-54 -68.5
l-48 -43l-17 -9l-46 -33q-20 -15 -79 -36q-10 -4 -22 -4q-8 0 -14 3q-18 11 -18 37l1 9q3 10 11 15l19 11l60 29l54 35l53 48l42 52q20 25 39 73zM209 452q-32 -5 -57 -41t-25 -74l4 -29l3 -28l4 -10q12 -24 27 -34q17 -11 62 -11q41 4 79 38l18 15l5 8q3 7 3 20l-2 52
q-3 43 -29 69.5t-68 26.5z" />
    <glyph glyph-name="glyph356" horiz-adv-x="205" 
d="M97 92q37 0 43 -22l1 -13q0 -23 -14 -42.5t-39 -24.5h-5q-16 0 -29 17t-15 32v3q0 17 14.5 30.5t31.5 18.5zM137 476q37 0 52 -24q3 -6 3 -14q0 -17 -11 -34.5t-25 -20.5l-14 -1q-14 0 -22 4q-30 17 -30 48q0 20 17 33q10 7 20 8z" />
    <glyph glyph-name="glyph357" horiz-adv-x="205" 
d="M148 478q42 0 42 -34q-1 -13 -22 -48q-10 -15 -25 -18l-11 -1q-22 0 -34.5 16.5t-12.5 37.5q0 12 4 22q6 17 19.5 19.5t30.5 4.5zM100 96q35 0 39 -25l4 -9v-4l-3 -31q-6 -14 -20.5 -24t-27.5 -10q-19 0 -33 15.5t-14 36.5q2 38 44 50z" />
    <glyph glyph-name="glyph358" horiz-adv-x="205" 
d="M73 97q7 3 20 3q52 0 52 -60l-2 -20q-2 -9 -14 -33l-11 -21l-5 -9q-10 -25 -50 -48l-18 -10l-11 -3q-19 0 -19 23l2 12q4 10 15 14.5t19 9.5q6 3 13.5 11.5t7.5 15t2 11.5v3q0 9 -9 20t-12 18q-5 10 -5 20q0 30 25 43zM130 477q16 0 41 -15q17 -9 21 -19q3 -6 3 -13
q0 -20 -20.5 -38.5t-39.5 -18.5q-27 0 -43 46q-3 7 -3 18q0 27 29 38z" />
    <glyph glyph-name="glyph359" horiz-adv-x="205" 
d="M94 97q38 0 49 -40l2 -15l-9 -55l-8 -20q-4 -9 -19 -28q-24 -34 -58 -34q-24 2 -24 28q2 8 8.5 11.5t11.5 8.5l18 13q10 7 13 19l1 9q0 10 -10 11t-18 15.5t-8 30.5q0 42 44 46h7zM137 478q13 0 41 -11q6 -2 8.5 -10t5.5 -13q3 -6 3 -14q0 -11 -4 -21q-9 -18 -27 -26.5
t-31 -8.5q-20 0 -33.5 14.5t-13.5 34.5q0 40 38 53z" />
    </font>
</defs>
</svg>
